G04 #@! TF.GenerationSoftware,KiCad,Pcbnew,(5.1.9-0-10_14)*
G04 #@! TF.CreationDate,2022-03-06T10:31:41-07:00*
G04 #@! TF.ProjectId,001,3030312e-6b69-4636-9164-5f7063625858,rev?*
G04 #@! TF.SameCoordinates,Original*
G04 #@! TF.FileFunction,Profile,NP*
%FSLAX46Y46*%
G04 Gerber Fmt 4.6, Leading zero omitted, Abs format (unit mm)*
G04 Created by KiCad (PCBNEW (5.1.9-0-10_14)) date 2022-03-06 10:31:41*
%MOMM*%
%LPD*%
G01*
G04 APERTURE LIST*
G04 #@! TA.AperFunction,Profile*
%ADD10C,0.100000*%
G04 #@! TD*
G04 APERTURE END LIST*
D10*
X102928870Y-122412300D02*
X102928870Y-122412300D01*
X102928880Y-122412200D02*
X102928870Y-122412300D01*
X102928890Y-122412100D02*
X102928880Y-122412200D01*
X102765920Y-122087800D02*
X102928890Y-122412100D01*
X102644590Y-121762800D02*
X102765920Y-122087800D01*
X102560370Y-121437400D02*
X102644590Y-121762800D01*
X102508730Y-121112200D02*
X102560370Y-121437400D01*
X102485160Y-120787600D02*
X102508730Y-121112200D01*
X102485120Y-120464100D02*
X102485160Y-120787600D01*
X102504080Y-120142000D02*
X102485120Y-120464100D01*
X102537520Y-119821900D02*
X102504080Y-120142000D01*
X102629750Y-119189500D02*
X102537520Y-119821900D01*
X102725600Y-118570300D02*
X102629750Y-119189500D01*
X102788840Y-117968000D02*
X102725600Y-118570300D01*
X102796920Y-117674400D02*
X102788840Y-117968000D01*
X102783260Y-117386300D02*
X102796920Y-117674400D01*
X102714920Y-117074900D02*
X102783260Y-117386300D01*
X102648130Y-116687700D02*
X102714920Y-117074900D01*
X102521790Y-115722100D02*
X102648130Y-116687700D01*
X102409460Y-114562000D02*
X102521790Y-115722100D01*
X102316350Y-113279800D02*
X102409460Y-114562000D01*
X102247670Y-111947900D02*
X102316350Y-113279800D01*
X102208590Y-110639000D02*
X102247670Y-111947900D01*
X102204310Y-109425400D02*
X102208590Y-110639000D01*
X102240050Y-108379700D02*
X102204310Y-109425400D01*
X102332960Y-106537200D02*
X102240050Y-108379700D01*
X102421250Y-104762900D02*
X102332960Y-106537200D01*
X102482200Y-103902600D02*
X102421250Y-104762900D01*
X102564210Y-103061000D02*
X102482200Y-103902600D01*
X102674710Y-102238500D02*
X102564210Y-103061000D01*
X102821090Y-101435700D02*
X102674710Y-102238500D01*
X102991420Y-100669300D02*
X102821090Y-101435700D01*
X103164980Y-99955600D02*
X102991420Y-100669300D01*
X103499000Y-98683700D02*
X103164980Y-99955600D01*
X103777560Y-97616200D02*
X103499000Y-98683700D01*
X103881780Y-97157700D02*
X103777560Y-97616200D01*
X103955020Y-96748800D02*
X103881780Y-97157700D01*
X104078470Y-95982300D02*
X103955020Y-96748800D01*
X104198590Y-95233300D02*
X104078470Y-95982300D01*
X104244840Y-94871500D02*
X104198590Y-95233300D01*
X104275140Y-94521600D02*
X104244840Y-94871500D01*
X104284470Y-94185900D02*
X104275140Y-94521600D01*
X104267800Y-93867000D02*
X104284470Y-94185900D01*
X104215440Y-93159000D02*
X104267800Y-93867000D01*
X104181220Y-92755500D02*
X104215440Y-93159000D01*
X104127600Y-92333700D02*
X104181220Y-92755500D01*
X104044050Y-91905100D02*
X104127600Y-92333700D01*
X103920040Y-91480700D02*
X104044050Y-91905100D01*
X103839580Y-91273500D02*
X103920040Y-91480700D01*
X103745060Y-91071700D02*
X103839580Y-91273500D01*
X103635170Y-90876500D02*
X103745060Y-91071700D01*
X103508580Y-90689300D02*
X103635170Y-90876500D01*
X103397160Y-90522000D02*
X103508580Y-90689300D01*
X103330600Y-90383100D02*
X103397160Y-90522000D01*
X103304330Y-90269900D02*
X103330600Y-90383100D01*
X103313780Y-90179200D02*
X103304330Y-90269900D01*
X103354350Y-90108000D02*
X103313780Y-90179200D01*
X103421480Y-90053500D02*
X103354350Y-90108000D01*
X103510600Y-90012400D02*
X103421480Y-90053500D01*
X103617120Y-89982000D02*
X103510600Y-90012400D01*
X103864070Y-89940700D02*
X103617120Y-89982000D01*
X104125730Y-89905700D02*
X103864070Y-89940700D01*
X104365490Y-89853000D02*
X104125730Y-89905700D01*
X104465720Y-89812500D02*
X104365490Y-89853000D01*
X104546750Y-89758600D02*
X104465720Y-89812500D01*
X104604360Y-89667200D02*
X104546750Y-89758600D01*
X104640550Y-89522400D02*
X104604360Y-89667200D01*
X104660080Y-89333400D02*
X104640550Y-89522400D01*
X104667690Y-89109300D02*
X104660080Y-89333400D01*
X104666210Y-88592300D02*
X104667690Y-89109300D01*
X104674160Y-88044500D02*
X104666210Y-88592300D01*
X104693560Y-87782000D02*
X104674160Y-88044500D01*
X104729570Y-87539100D02*
X104693560Y-87782000D01*
X104786960Y-87325100D02*
X104729570Y-87539100D01*
X104870470Y-87149100D02*
X104786960Y-87325100D01*
X104923500Y-87078100D02*
X104870470Y-87149100D01*
X104984860Y-87020200D02*
X104923500Y-87078100D01*
X105055120Y-86976200D02*
X104984860Y-87020200D01*
X105134880Y-86947500D02*
X105055120Y-86976200D01*
X105224740Y-86935100D02*
X105134880Y-86947500D01*
X105325300Y-86940300D02*
X105224740Y-86935100D01*
X105437130Y-86964000D02*
X105325300Y-86940300D01*
X105560850Y-87007500D02*
X105437130Y-86964000D01*
X105628890Y-87045400D02*
X105560850Y-87007500D01*
X105691450Y-87099400D02*
X105628890Y-87045400D01*
X105801510Y-87251200D02*
X105691450Y-87099400D01*
X105893650Y-87453800D02*
X105801510Y-87251200D01*
X105970500Y-87698400D02*
X105893650Y-87453800D01*
X106034680Y-87975800D02*
X105970500Y-87698400D01*
X106088800Y-88277200D02*
X106034680Y-87975800D01*
X106177410Y-88915800D02*
X106088800Y-88277200D01*
X106257320Y-89542200D02*
X106177410Y-88915800D01*
X106349530Y-90084700D02*
X106257320Y-89542200D01*
X106406810Y-90301900D02*
X106349530Y-90084700D01*
X106475030Y-90471200D02*
X106406810Y-90301900D01*
X106556820Y-90583500D02*
X106475030Y-90471200D01*
X106603620Y-90615500D02*
X106556820Y-90583500D01*
X106654800Y-90629900D02*
X106603620Y-90615500D01*
X106759290Y-90622200D02*
X106654800Y-90629900D01*
X106859300Y-90580400D02*
X106759290Y-90622200D01*
X106955530Y-90507400D02*
X106859300Y-90580400D01*
X107048690Y-90406300D02*
X106955530Y-90507400D01*
X107228450Y-90132000D02*
X107048690Y-90406300D01*
X107404190Y-89781900D02*
X107228450Y-90132000D01*
X107765970Y-88951400D02*
X107404190Y-89781900D01*
X107963100Y-88519700D02*
X107765970Y-88951400D01*
X108178600Y-88109600D02*
X107963100Y-88519700D01*
X108326400Y-87829500D02*
X108178600Y-88109600D01*
X108538100Y-87399500D02*
X108326400Y-87829500D01*
X108806000Y-86848500D02*
X108538100Y-87399500D01*
X109122300Y-86205200D02*
X108806000Y-86848500D01*
X109479200Y-85498200D02*
X109122300Y-86205200D01*
X109869000Y-84756400D02*
X109479200Y-85498200D01*
X110283900Y-84008400D02*
X109869000Y-84756400D01*
X110716100Y-83283000D02*
X110283900Y-84008400D01*
X111160400Y-82597700D02*
X110716100Y-83283000D01*
X111603600Y-81952000D02*
X111160400Y-82597700D01*
X112025500Y-81348100D02*
X111603600Y-81952000D01*
X112405900Y-80788100D02*
X112025500Y-81348100D01*
X112724700Y-80274100D02*
X112405900Y-80788100D01*
X112854600Y-80035000D02*
X112724700Y-80274100D01*
X112961700Y-79808200D02*
X112854600Y-80035000D01*
X113043300Y-79594000D02*
X112961700Y-79808200D01*
X113096800Y-79392600D02*
X113043300Y-79594000D01*
X113119900Y-79204200D02*
X113096800Y-79392600D01*
X113109900Y-79029300D02*
X113119900Y-79204200D01*
X113011300Y-78811600D02*
X113109900Y-79029300D01*
X112914000Y-78633400D02*
X113011300Y-78811600D01*
X112822900Y-78475000D02*
X112914000Y-78633400D01*
X112743100Y-78317000D02*
X112822900Y-78475000D01*
X112679200Y-78139900D02*
X112743100Y-78317000D01*
X112636900Y-77924100D02*
X112679200Y-78139900D01*
X112621000Y-77650200D02*
X112636900Y-77924100D01*
X112635900Y-77298700D02*
X112621000Y-77650200D01*
X112669000Y-77199000D02*
X112635900Y-77298700D01*
X112725500Y-77094200D02*
X112669000Y-77199000D01*
X112902900Y-76870700D02*
X112725500Y-77094200D01*
X113156700Y-76630400D02*
X112902900Y-76870700D01*
X113475500Y-76375500D02*
X113156700Y-76630400D01*
X113847700Y-76108200D02*
X113475500Y-76375500D01*
X114261800Y-75830600D02*
X113847700Y-76108200D01*
X115169800Y-75253700D02*
X114261800Y-75830600D01*
X116107800Y-74662100D02*
X115169800Y-75253700D01*
X116983700Y-74073600D02*
X116107800Y-74662100D01*
X117369700Y-73785900D02*
X116983700Y-74073600D01*
X117705700Y-73505500D02*
X117369700Y-73785900D01*
X117980200Y-73234700D02*
X117705700Y-73505500D01*
X118181800Y-72975600D02*
X117980200Y-73234700D01*
X118212400Y-72910400D02*
X118181800Y-72975600D01*
X118226600Y-72842700D02*
X118212400Y-72910400D01*
X118208100Y-72700100D02*
X118226600Y-72842700D01*
X118131400Y-72547800D02*
X118208100Y-72700100D01*
X118001400Y-72386100D02*
X118131400Y-72547800D01*
X117823200Y-72214900D02*
X118001400Y-72386100D01*
X117601900Y-72034300D02*
X117823200Y-72214900D01*
X117050000Y-71645100D02*
X117601900Y-72034300D01*
X116385800Y-71219100D02*
X117050000Y-71645100D01*
X115649600Y-70756800D02*
X116385800Y-71219100D01*
X114881800Y-70258800D02*
X115649600Y-70756800D01*
X114122500Y-69725600D02*
X114881800Y-70258800D01*
X113401000Y-69159900D02*
X114122500Y-69725600D01*
X112719500Y-68570300D02*
X113401000Y-69159900D01*
X112077900Y-67965700D02*
X112719500Y-68570300D01*
X111476200Y-67354900D02*
X112077900Y-67965700D01*
X110914400Y-66747000D02*
X111476200Y-67354900D01*
X110392400Y-66150900D02*
X110914400Y-66747000D01*
X109910200Y-65575600D02*
X110392400Y-66150900D01*
X109467800Y-65029900D02*
X109910200Y-65575600D01*
X109205500Y-64631500D02*
X109467800Y-65029900D01*
X108970000Y-64248900D02*
X109205500Y-64631500D01*
X108760000Y-63881800D02*
X108970000Y-64248900D01*
X108574200Y-63530100D02*
X108760000Y-63881800D01*
X108411400Y-63193400D02*
X108574200Y-63530100D01*
X108270300Y-62871600D02*
X108411400Y-63193400D01*
X108149500Y-62564500D02*
X108270300Y-62871600D01*
X108047900Y-62271900D02*
X108149500Y-62564500D01*
X107964000Y-61993500D02*
X108047900Y-62271900D01*
X107896800Y-61729200D02*
X107964000Y-61993500D01*
X107844700Y-61478700D02*
X107896800Y-61729200D01*
X107806660Y-61241800D02*
X107844700Y-61478700D01*
X107781330Y-61018400D02*
X107806660Y-61241800D01*
X107767260Y-60808100D02*
X107781330Y-61018400D01*
X107763270Y-60610900D02*
X107767260Y-60808100D01*
X107768270Y-60426400D02*
X107763270Y-60610900D01*
X107778310Y-60241900D02*
X107768270Y-60426400D01*
X107792170Y-60046300D02*
X107778310Y-60241900D01*
X107812300Y-59841500D02*
X107792170Y-60046300D01*
X107841000Y-59629400D02*
X107812300Y-59841500D01*
X107880700Y-59412100D02*
X107841000Y-59629400D01*
X107933900Y-59191600D02*
X107880700Y-59412100D01*
X108002900Y-58969800D02*
X107933900Y-59191600D01*
X108090200Y-58748900D02*
X108002900Y-58969800D01*
X108198200Y-58530600D02*
X108090200Y-58748900D01*
X108329300Y-58317100D02*
X108198200Y-58530600D01*
X108485900Y-58110300D02*
X108329300Y-58317100D01*
X108670400Y-57912200D02*
X108485900Y-58110300D01*
X108885300Y-57724800D02*
X108670400Y-57912200D01*
X109132900Y-57550100D02*
X108885300Y-57724800D01*
X109415600Y-57390100D02*
X109132900Y-57550100D01*
X109735900Y-57246800D02*
X109415600Y-57390100D01*
X109912600Y-57190300D02*
X109735900Y-57246800D01*
X110102100Y-57154800D02*
X109912600Y-57190300D01*
X110303200Y-57138600D02*
X110102100Y-57154800D01*
X110514900Y-57140000D02*
X110303200Y-57138600D01*
X110736000Y-57158100D02*
X110514900Y-57140000D01*
X110965400Y-57191300D02*
X110736000Y-57158100D01*
X111202100Y-57238300D02*
X110965400Y-57191300D01*
X111445000Y-57297600D02*
X111202100Y-57238300D01*
X111692900Y-57368000D02*
X111445000Y-57297600D01*
X111944800Y-57447900D02*
X111692900Y-57368000D01*
X112199500Y-57536000D02*
X111944800Y-57447900D01*
X112456000Y-57631000D02*
X112199500Y-57536000D01*
X112713200Y-57731400D02*
X112456000Y-57631000D01*
X112969900Y-57835900D02*
X112713200Y-57731400D01*
X113225000Y-57943100D02*
X112969900Y-57835900D01*
X113477500Y-58051500D02*
X113225000Y-57943100D01*
X113726300Y-58159900D02*
X113477500Y-58051500D01*
X113970200Y-58266800D02*
X113726300Y-58159900D01*
X114208100Y-58370800D02*
X113970200Y-58266800D01*
X114439100Y-58470600D02*
X114208100Y-58370800D01*
X114661800Y-58564700D02*
X114439100Y-58470600D01*
X114875400Y-58651800D02*
X114661800Y-58564700D01*
X115078500Y-58730500D02*
X114875400Y-58651800D01*
X115270300Y-58799400D02*
X115078500Y-58730500D01*
X115449500Y-58857100D02*
X115270300Y-58799400D01*
X115615000Y-58902400D02*
X115449500Y-58857100D01*
X115765800Y-58933600D02*
X115615000Y-58902400D01*
X115900800Y-58949600D02*
X115765800Y-58933600D01*
X116018800Y-58948800D02*
X115900800Y-58949600D01*
X116118800Y-58929900D02*
X116018800Y-58948800D01*
X116199600Y-58891400D02*
X116118800Y-58929900D01*
X116260200Y-58832200D02*
X116199600Y-58891400D01*
X116344000Y-58695600D02*
X116260200Y-58832200D01*
X116398100Y-58565300D02*
X116344000Y-58695600D01*
X116426600Y-58439100D02*
X116398100Y-58565300D01*
X116433200Y-58314700D02*
X116426600Y-58439100D01*
X116427200Y-58184800D02*
X116433200Y-58314700D01*
X116421100Y-58052100D02*
X116427200Y-58184800D01*
X116414800Y-57917300D02*
X116421100Y-58052100D01*
X116408800Y-57780700D02*
X116414800Y-57917300D01*
X116403500Y-57643000D02*
X116408800Y-57780700D01*
X116398000Y-57504800D02*
X116403500Y-57643000D01*
X116393000Y-57366600D02*
X116398000Y-57504800D01*
X116390000Y-57228900D02*
X116393000Y-57366600D01*
X116388500Y-57092300D02*
X116390000Y-57228900D01*
X116388000Y-56957300D02*
X116388500Y-57092300D01*
X116389000Y-56824600D02*
X116388000Y-56957300D01*
X116392000Y-56694500D02*
X116389000Y-56824600D01*
X116397200Y-56567800D02*
X116392000Y-56694500D01*
X116404800Y-56444800D02*
X116397200Y-56567800D01*
X116414800Y-56326300D02*
X116404800Y-56444800D01*
X116427900Y-56212700D02*
X116414800Y-56326300D01*
X116455600Y-56025800D02*
X116427900Y-56212700D01*
X116486800Y-55839600D02*
X116455600Y-56025800D01*
X116522100Y-55654500D02*
X116486800Y-55839600D01*
X116562100Y-55471000D02*
X116522100Y-55654500D01*
X116607500Y-55289400D02*
X116562100Y-55471000D01*
X116658800Y-55110200D02*
X116607500Y-55289400D01*
X116716700Y-54934000D02*
X116658800Y-55110200D01*
X116781700Y-54761000D02*
X116716700Y-54934000D01*
X116854600Y-54591800D02*
X116781700Y-54761000D01*
X116935800Y-54426770D02*
X116854600Y-54591800D01*
X117026100Y-54266380D02*
X116935800Y-54426770D01*
X117126000Y-54111060D02*
X117026100Y-54266380D01*
X117236200Y-53961260D02*
X117126000Y-54111060D01*
X117357300Y-53817410D02*
X117236200Y-53961260D01*
X117489800Y-53679950D02*
X117357300Y-53817410D01*
X117634400Y-53549340D02*
X117489800Y-53679950D01*
X117808500Y-53415670D02*
X117634400Y-53549340D01*
X117999100Y-53298640D02*
X117808500Y-53415670D01*
X118207500Y-53198980D02*
X117999100Y-53298640D01*
X118435200Y-53117340D02*
X118207500Y-53198980D01*
X118682800Y-53070720D02*
X118435200Y-53117340D01*
X118947500Y-53071040D02*
X118682800Y-53070720D01*
X119225400Y-53111230D02*
X118947500Y-53071040D01*
X119512300Y-53184330D02*
X119225400Y-53111230D01*
X119804200Y-53283370D02*
X119512300Y-53184330D01*
X120097200Y-53401370D02*
X119804200Y-53283370D01*
X120387100Y-53531340D02*
X120097200Y-53401370D01*
X120669900Y-53666320D02*
X120387100Y-53531340D01*
X120941600Y-53799310D02*
X120669900Y-53666320D01*
X121198100Y-53923350D02*
X120941600Y-53799310D01*
X121435500Y-54031460D02*
X121198100Y-53923350D01*
X121649600Y-54116650D02*
X121435500Y-54031460D01*
X121836500Y-54171930D02*
X121649600Y-54116650D01*
X121992000Y-54190350D02*
X121836500Y-54171930D01*
X122112300Y-54164910D02*
X121992000Y-54190350D01*
X122157900Y-54133560D02*
X122112300Y-54164910D01*
X122193100Y-54088660D02*
X122157900Y-54133560D01*
X122249200Y-53978270D02*
X122193100Y-54088660D01*
X122298700Y-53856050D02*
X122249200Y-53978270D01*
X122342600Y-53723320D02*
X122298700Y-53856050D01*
X122382400Y-53581480D02*
X122342600Y-53723320D01*
X122448400Y-53296020D02*
X122382400Y-53581480D01*
X122517300Y-53001690D02*
X122448400Y-53296020D01*
X122592000Y-52702550D02*
X122517300Y-53001690D01*
X122675000Y-52402700D02*
X122592000Y-52702550D01*
X122769200Y-52106190D02*
X122675000Y-52402700D01*
X122877400Y-51817100D02*
X122769200Y-52106190D01*
X123002300Y-51539510D02*
X122877400Y-51817100D01*
X123146600Y-51277500D02*
X123002300Y-51539510D01*
X123313200Y-51035140D02*
X123146600Y-51277500D01*
X123504700Y-50816500D02*
X123313200Y-51035140D01*
X123724000Y-50625650D02*
X123504700Y-50816500D01*
X123973700Y-50466680D02*
X123724000Y-50625650D01*
X124256700Y-50343590D02*
X123973700Y-50466680D01*
X124575700Y-50260660D02*
X124256700Y-50343590D01*
X124741900Y-50239840D02*
X124575700Y-50260660D01*
X124908800Y-50235660D02*
X124741900Y-50239840D01*
X125283400Y-50258660D02*
X124908800Y-50235660D01*
X125672900Y-50346950D02*
X125283400Y-50258660D01*
X126039400Y-50469000D02*
X125672900Y-50346950D01*
X126213700Y-50534400D02*
X126039400Y-50469000D01*
X126387500Y-50602290D02*
X126213700Y-50534400D01*
X126560800Y-50672760D02*
X126387500Y-50602290D01*
X126733900Y-50745900D02*
X126560800Y-50672760D01*
X126906900Y-50821750D02*
X126733900Y-50745900D01*
X127080100Y-50900400D02*
X126906900Y-50821750D01*
X127253600Y-50981890D02*
X127080100Y-50900400D01*
X127427500Y-51066310D02*
X127253600Y-50981890D01*
X127602100Y-51153720D02*
X127427500Y-51066310D01*
X127777600Y-51244190D02*
X127602100Y-51153720D01*
X127954000Y-51337790D02*
X127777600Y-51244190D01*
X128131700Y-51434590D02*
X127954000Y-51337790D01*
X128455700Y-51598890D02*
X128131700Y-51434590D01*
X128795300Y-51770960D02*
X128455700Y-51598890D01*
X129150300Y-51950560D02*
X128795300Y-51770960D01*
X129520300Y-52137540D02*
X129150300Y-51950560D01*
X130303900Y-52532940D02*
X129520300Y-52137540D01*
X131143500Y-52955590D02*
X130303900Y-52532940D01*
X132036500Y-53404010D02*
X131143500Y-52955590D01*
X132980200Y-53876680D02*
X132036500Y-53404010D01*
X133971900Y-54372100D02*
X132980200Y-53876680D01*
X135009100Y-54888800D02*
X133971900Y-54372100D01*
X136088900Y-55425100D02*
X135009100Y-54888800D01*
X137208900Y-55979800D02*
X136088900Y-55425100D01*
X138366300Y-56551100D02*
X137208900Y-55979800D01*
X139558500Y-57137700D02*
X138366300Y-56551100D01*
X140782800Y-57737900D02*
X139558500Y-57137700D01*
X142036700Y-58350400D02*
X140782800Y-57737900D01*
X143317300Y-58973600D02*
X142036700Y-58350400D01*
X144622200Y-59606000D02*
X143317300Y-58973600D01*
X145948500Y-60246000D02*
X144622200Y-59606000D01*
X147293800Y-60892300D02*
X145948500Y-60246000D01*
X148655200Y-61543200D02*
X147293800Y-60892300D01*
X150030200Y-62197400D02*
X148655200Y-61543200D01*
X151416200Y-62853100D02*
X150030200Y-62197400D01*
X152810400Y-63509100D02*
X151416200Y-62853100D01*
X154210200Y-64163700D02*
X152810400Y-63509100D01*
X155613000Y-64815500D02*
X154210200Y-64163700D01*
X157037700Y-65475300D02*
X155613000Y-64815500D01*
X158461000Y-66134800D02*
X157037700Y-65475300D01*
X159880200Y-66792900D02*
X158461000Y-66134800D01*
X161292600Y-67448600D02*
X159880200Y-66792900D01*
X162695600Y-68101000D02*
X161292600Y-67448600D01*
X164086500Y-68749100D02*
X162695600Y-68101000D01*
X165462600Y-69391900D02*
X164086500Y-68749100D01*
X166821400Y-70028300D02*
X165462600Y-69391900D01*
X168160100Y-70657500D02*
X166821400Y-70028300D01*
X169476200Y-71278300D02*
X168160100Y-70657500D01*
X170766800Y-71889900D02*
X169476200Y-71278300D01*
X172029500Y-72491200D02*
X170766800Y-71889900D01*
X173261500Y-73081200D02*
X172029500Y-72491200D01*
X174460200Y-73659000D02*
X173261500Y-73081200D01*
X175622900Y-74223500D02*
X174460200Y-73659000D01*
X176746900Y-74773800D02*
X175622900Y-74223500D01*
X177829700Y-75308900D02*
X176746900Y-74773800D01*
X178868500Y-75827700D02*
X177829700Y-75308900D01*
X179860700Y-76329300D02*
X178868500Y-75827700D01*
X180803700Y-76812800D02*
X179860700Y-76329300D01*
X181694700Y-77277000D02*
X180803700Y-76812800D01*
X182531300Y-77721000D02*
X181694700Y-77277000D01*
X183310500Y-78143900D02*
X182531300Y-77721000D01*
X184029900Y-78544600D02*
X183310500Y-78143900D01*
X184686700Y-78922200D02*
X184029900Y-78544600D01*
X185278400Y-79275600D02*
X184686700Y-78922200D01*
X185802200Y-79603900D02*
X185278400Y-79275600D01*
X186255500Y-79906000D02*
X185802200Y-79603900D01*
X186635700Y-80181100D02*
X186255500Y-79906000D01*
X186940000Y-80428000D02*
X186635700Y-80181100D01*
X187165900Y-80645800D02*
X186940000Y-80428000D01*
X187310600Y-80833500D02*
X187165900Y-80645800D01*
X187405600Y-81380100D02*
X187310600Y-80833500D01*
X187454100Y-81859000D02*
X187405600Y-81380100D01*
X187490700Y-82669700D02*
X187454100Y-81859000D01*
X187518000Y-83029500D02*
X187490700Y-82669700D01*
X187577500Y-83377500D02*
X187518000Y-83029500D01*
X187688900Y-83727800D02*
X187577500Y-83377500D01*
X187770200Y-83908100D02*
X187688900Y-83727800D01*
X187871900Y-84094200D02*
X187770200Y-83908100D01*
X187993500Y-84269200D02*
X187871900Y-84094200D01*
X188132300Y-84418700D02*
X187993500Y-84269200D01*
X188286600Y-84548800D02*
X188132300Y-84418700D01*
X188455100Y-84665100D02*
X188286600Y-84548800D01*
X188828400Y-84880000D02*
X188455100Y-84665100D01*
X189240500Y-85110200D02*
X188828400Y-84880000D01*
X189457300Y-85245600D02*
X189240500Y-85110200D01*
X189679400Y-85402400D02*
X189457300Y-85245600D01*
X189905200Y-85586400D02*
X189679400Y-85402400D01*
X190133200Y-85803400D02*
X189905200Y-85586400D01*
X190362100Y-86059300D02*
X190133200Y-85803400D01*
X190590300Y-86359900D02*
X190362100Y-86059300D01*
X190816300Y-86711100D02*
X190590300Y-86359900D01*
X191038600Y-87118700D02*
X190816300Y-86711100D01*
X191249800Y-87599900D02*
X191038600Y-87118700D01*
X191444300Y-88161700D02*
X191249800Y-87599900D01*
X191623000Y-88795000D02*
X191444300Y-88161700D01*
X191787000Y-89490500D02*
X191623000Y-88795000D01*
X191937400Y-90239000D02*
X191787000Y-89490500D01*
X192075400Y-91031200D02*
X191937400Y-90239000D01*
X192318000Y-92710000D02*
X192075400Y-91031200D01*
X192523600Y-94452900D02*
X192318000Y-92710000D01*
X192700600Y-96186300D02*
X192523600Y-94452900D01*
X192857600Y-97836100D02*
X192700600Y-96186300D01*
X193003400Y-99328600D02*
X192857600Y-97836100D01*
X193125100Y-100680700D02*
X193003400Y-99328600D01*
X193208600Y-101963400D02*
X193125100Y-100680700D01*
X193260300Y-103183800D02*
X193208600Y-101963400D01*
X193286800Y-104349200D02*
X193260300Y-103183800D01*
X193294600Y-105466600D02*
X193286800Y-104349200D01*
X193290100Y-106543200D02*
X193294600Y-105466600D01*
X193280000Y-107586300D02*
X193290100Y-106543200D01*
X193270700Y-108602800D02*
X193280000Y-107586300D01*
X193249700Y-109592500D02*
X193270700Y-108602800D01*
X193207600Y-110540800D02*
X193249700Y-109592500D01*
X193154800Y-111433700D02*
X193207600Y-110540800D01*
X193102200Y-112257200D02*
X193154800Y-111433700D01*
X193060400Y-112997200D02*
X193102200Y-112257200D01*
X193040000Y-113639800D02*
X193060400Y-112997200D01*
X193051900Y-114171000D02*
X193040000Y-113639800D01*
X193073200Y-114390400D02*
X193051900Y-114171000D01*
X193106500Y-114576700D02*
X193073200Y-114390400D01*
X193198000Y-114887600D02*
X193106500Y-114576700D01*
X193309300Y-115149000D02*
X193198000Y-114887600D01*
X193434400Y-115368700D02*
X193309300Y-115149000D01*
X193567000Y-115554700D02*
X193434400Y-115368700D01*
X193701200Y-115714900D02*
X193567000Y-115554700D01*
X193830900Y-115857200D02*
X193701200Y-115714900D01*
X193950000Y-115989500D02*
X193830900Y-115857200D01*
X194052400Y-116119800D02*
X193950000Y-115989500D01*
X194138000Y-116256100D02*
X194052400Y-116119800D01*
X194210600Y-116399700D02*
X194138000Y-116256100D01*
X194270500Y-116547900D02*
X194210600Y-116399700D01*
X194317800Y-116698500D02*
X194270500Y-116547900D01*
X194352600Y-116848800D02*
X194317800Y-116698500D01*
X194375300Y-116996400D02*
X194352600Y-116848800D01*
X194386000Y-117139000D02*
X194375300Y-116996400D01*
X194384600Y-117273900D02*
X194386000Y-117139000D01*
X194354600Y-117490500D02*
X194384600Y-117273900D01*
X194295500Y-117696600D02*
X194354600Y-117490500D01*
X194208400Y-117889000D02*
X194295500Y-117696600D01*
X194094600Y-118064400D02*
X194208400Y-117889000D01*
X193955400Y-118219600D02*
X194094600Y-118064400D01*
X193792000Y-118351400D02*
X193955400Y-118219600D01*
X193605600Y-118456600D02*
X193792000Y-118351400D01*
X193397500Y-118531900D02*
X193605600Y-118456600D01*
X193187800Y-118568100D02*
X193397500Y-118531900D01*
X192970800Y-118590000D02*
X193187800Y-118568100D01*
X192526200Y-118602900D02*
X192970800Y-118590000D01*
X192085600Y-118595500D02*
X192526200Y-118602900D01*
X191671100Y-118592600D02*
X192085600Y-118595500D01*
X191304600Y-118619000D02*
X191671100Y-118592600D01*
X191146300Y-118650900D02*
X191304600Y-118619000D01*
X191008200Y-118699400D02*
X191146300Y-118650900D01*
X190893100Y-118767600D02*
X191008200Y-118699400D01*
X190803700Y-118858600D02*
X190893100Y-118767600D01*
X190742900Y-118975500D02*
X190803700Y-118858600D01*
X190713300Y-119121300D02*
X190742900Y-118975500D01*
X190677500Y-119581400D02*
X190713300Y-119121300D01*
X190611800Y-120152200D02*
X190677500Y-119581400D01*
X190527800Y-120805200D02*
X190611800Y-120152200D01*
X190437500Y-121511900D02*
X190527800Y-120805200D01*
X190371500Y-121887600D02*
X190437500Y-121511900D01*
X190265700Y-122284000D02*
X190371500Y-121887600D01*
X190123900Y-122691700D02*
X190265700Y-122284000D01*
X189949800Y-123100800D02*
X190123900Y-122691700D01*
X189747300Y-123501800D02*
X189949800Y-123100800D01*
X189520300Y-123884900D02*
X189747300Y-123501800D01*
X189272400Y-124240400D02*
X189520300Y-123884900D01*
X189007600Y-124558800D02*
X189272400Y-124240400D01*
X188865000Y-124699600D02*
X189007600Y-124558800D01*
X188710000Y-124826100D02*
X188865000Y-124699600D01*
X188544100Y-124938900D02*
X188710000Y-124826100D01*
X188368400Y-125038700D02*
X188544100Y-124938900D01*
X187993300Y-125202300D02*
X188368400Y-125038700D01*
X187595400Y-125322400D02*
X187993300Y-125202300D01*
X187185200Y-125404700D02*
X187595400Y-125322400D01*
X186773400Y-125454800D02*
X187185200Y-125404700D01*
X186370700Y-125478300D02*
X186773400Y-125454800D01*
X185987500Y-125480900D02*
X186370700Y-125478300D01*
X185313300Y-125456900D02*
X185987500Y-125480900D01*
X185013200Y-125426800D02*
X185313300Y-125456900D01*
X184726700Y-125376700D02*
X185013200Y-125426800D01*
X184445900Y-125300300D02*
X184726700Y-125376700D01*
X184162500Y-125191500D02*
X184445900Y-125300300D01*
X183868300Y-125044400D02*
X184162500Y-125191500D01*
X183555300Y-124852800D02*
X183868300Y-125044400D01*
X183257400Y-124635600D02*
X183555300Y-124852800D01*
X183008200Y-124413800D02*
X183257400Y-124635600D01*
X182799000Y-124184200D02*
X183008200Y-124413800D01*
X182620900Y-123943600D02*
X182799000Y-124184200D01*
X182465300Y-123688900D02*
X182620900Y-123943600D01*
X182323300Y-123416800D02*
X182465300Y-123688900D01*
X182045200Y-122808200D02*
X182323300Y-123416800D01*
X181978000Y-122635400D02*
X182045200Y-122808200D01*
X181921000Y-122448300D02*
X181978000Y-122635400D01*
X181831100Y-122042700D02*
X181921000Y-122448300D01*
X181701100Y-121191100D02*
X181831100Y-122042700D01*
X181634600Y-120793300D02*
X181701100Y-121191100D01*
X181549500Y-120446400D02*
X181634600Y-120793300D01*
X181495700Y-120299600D02*
X181549500Y-120446400D01*
X181432400Y-120174600D02*
X181495700Y-120299600D01*
X181357700Y-120074300D02*
X181432400Y-120174600D01*
X181270200Y-120001800D02*
X181357700Y-120074300D01*
X181184400Y-119978300D02*
X181270200Y-120001800D01*
X181025000Y-119965000D02*
X181184400Y-119978300D01*
X180504000Y-119966400D02*
X181025000Y-119965000D01*
X179745100Y-120001000D02*
X180504000Y-119966400D01*
X178786400Y-120063900D02*
X179745100Y-120001000D01*
X177665600Y-120150100D02*
X178786400Y-120063900D01*
X176420900Y-120254600D02*
X177665600Y-120150100D01*
X175090200Y-120372700D02*
X176420900Y-120254600D01*
X173711400Y-120499200D02*
X175090200Y-120372700D01*
X172323200Y-120629800D02*
X173711400Y-120499200D01*
X170966300Y-120762600D02*
X172323200Y-120629800D01*
X169682300Y-120896200D02*
X170966300Y-120762600D01*
X168512800Y-121029000D02*
X169682300Y-120896200D01*
X167499200Y-121159800D02*
X168512800Y-121029000D01*
X166683000Y-121287100D02*
X167499200Y-121159800D01*
X166105800Y-121409600D02*
X166683000Y-121287100D01*
X165919800Y-121468500D02*
X166105800Y-121409600D01*
X165809000Y-121525700D02*
X165919800Y-121468500D01*
X165683900Y-121657900D02*
X165809000Y-121525700D01*
X165590700Y-121828500D02*
X165683900Y-121657900D01*
X165523900Y-122036000D02*
X165590700Y-121828500D01*
X165478400Y-122279000D02*
X165523900Y-122036000D01*
X165448800Y-122556100D02*
X165478400Y-122279000D01*
X165429800Y-122865900D02*
X165448800Y-122556100D01*
X165402500Y-123577800D02*
X165429800Y-122865900D01*
X165354100Y-124403300D02*
X165402500Y-123577800D01*
X165308900Y-124855000D02*
X165354100Y-124403300D01*
X165242400Y-125330900D02*
X165308900Y-124855000D01*
X165149500Y-125829500D02*
X165242400Y-125330900D01*
X165024900Y-126349400D02*
X165149500Y-125829500D01*
X164863300Y-126889100D02*
X165024900Y-126349400D01*
X164659400Y-127447300D02*
X164863300Y-126889100D01*
X164235000Y-128468300D02*
X164659400Y-127447300D01*
X163861700Y-129286700D02*
X164235000Y-128468300D01*
X163528200Y-129936900D02*
X163861700Y-129286700D01*
X163222800Y-130453300D02*
X163528200Y-129936900D01*
X162934300Y-130870300D02*
X163222800Y-130453300D01*
X162651100Y-131222400D02*
X162934300Y-130870300D01*
X162361700Y-131543900D02*
X162651100Y-131222400D01*
X162054800Y-131869300D02*
X162361700Y-131543900D01*
X161877900Y-132043100D02*
X162054800Y-131869300D01*
X161668600Y-132224500D02*
X161877900Y-132043100D01*
X161163900Y-132601100D02*
X161668600Y-132224500D01*
X160563300Y-132982100D02*
X161163900Y-132601100D01*
X159889300Y-133350400D02*
X160563300Y-132982100D01*
X159164500Y-133688900D02*
X159889300Y-133350400D01*
X158411500Y-133980500D02*
X159164500Y-133688900D01*
X158031400Y-134103400D02*
X158411500Y-133980500D01*
X157652700Y-134208100D02*
X158031400Y-134103400D01*
X157278300Y-134292600D02*
X157652700Y-134208100D01*
X156910800Y-134354600D02*
X157278300Y-134292600D01*
X156186900Y-134435800D02*
X156910800Y-134354600D01*
X155469800Y-134479300D02*
X156186900Y-134435800D01*
X154763300Y-134485800D02*
X155469800Y-134479300D01*
X154071400Y-134456100D02*
X154763300Y-134485800D01*
X153398100Y-134390800D02*
X154071400Y-134456100D01*
X152747200Y-134290900D02*
X153398100Y-134390800D01*
X152122800Y-134156900D02*
X152747200Y-134290900D01*
X151528800Y-133989600D02*
X152122800Y-134156900D01*
X150977300Y-133798400D02*
X151528800Y-133989600D01*
X150473600Y-133590900D02*
X150977300Y-133798400D01*
X150011200Y-133365700D02*
X150473600Y-133590900D01*
X149583500Y-133121300D02*
X150011200Y-133365700D01*
X149183900Y-132856000D02*
X149583500Y-133121300D01*
X148805900Y-132568500D02*
X149183900Y-132856000D01*
X148442900Y-132257200D02*
X148805900Y-132568500D01*
X148088300Y-131920600D02*
X148442900Y-132257200D01*
X147747600Y-131567900D02*
X148088300Y-131920600D01*
X147427900Y-131205800D02*
X147747600Y-131567900D01*
X147124700Y-130829100D02*
X147427900Y-131205800D01*
X146833500Y-130432500D02*
X147124700Y-130829100D01*
X146549700Y-130011000D02*
X146833500Y-130432500D01*
X146268900Y-129559200D02*
X146549700Y-130011000D01*
X145986700Y-129071800D02*
X146268900Y-129559200D01*
X145698500Y-128543800D02*
X145986700Y-129071800D01*
X145563000Y-128263600D02*
X145698500Y-128543800D01*
X145447300Y-127975200D02*
X145563000Y-128263600D01*
X145348500Y-127682100D02*
X145447300Y-127975200D01*
X145263800Y-127387400D02*
X145348500Y-127682100D01*
X145125300Y-126806800D02*
X145263800Y-127387400D01*
X145008900Y-126259900D02*
X145125300Y-126806800D01*
X144891800Y-125773400D02*
X145008900Y-126259900D01*
X144826000Y-125560900D02*
X144891800Y-125773400D01*
X144751300Y-125373500D02*
X144826000Y-125560900D01*
X144665100Y-125214500D02*
X144751300Y-125373500D01*
X144564500Y-125087000D02*
X144665100Y-125214500D01*
X144446700Y-124994500D02*
X144564500Y-125087000D01*
X144308700Y-124940300D02*
X144446700Y-124994500D01*
X144041500Y-124891500D02*
X144308700Y-124940300D01*
X143719000Y-124853600D02*
X144041500Y-124891500D01*
X142923900Y-124806800D02*
X143719000Y-124853600D01*
X141955200Y-124793700D02*
X142923900Y-124806800D01*
X140844900Y-124808100D02*
X141955200Y-124793700D01*
X139624800Y-124843700D02*
X140844900Y-124808100D01*
X138326800Y-124894500D02*
X139624800Y-124843700D01*
X136982800Y-124954100D02*
X138326800Y-124894500D01*
X135624500Y-125016500D02*
X136982800Y-124954100D01*
X134270400Y-125072000D02*
X135624500Y-125016500D01*
X132934900Y-125122700D02*
X134270400Y-125072000D01*
X131644600Y-125179200D02*
X132934900Y-125122700D01*
X130426100Y-125252200D02*
X131644600Y-125179200D01*
X129305900Y-125352200D02*
X130426100Y-125252200D01*
X128791000Y-125415800D02*
X129305900Y-125352200D01*
X128310600Y-125490100D02*
X128791000Y-125415800D01*
X127868000Y-125576500D02*
X128310600Y-125490100D01*
X127466700Y-125676400D02*
X127868000Y-125576500D01*
X127109700Y-125791100D02*
X127466700Y-125676400D01*
X126800600Y-125921900D02*
X127109700Y-125791100D01*
X126623400Y-126018000D02*
X126800600Y-125921900D01*
X126470600Y-126119500D02*
X126623400Y-126018000D01*
X126339200Y-126226600D02*
X126470600Y-126119500D01*
X126226300Y-126339500D02*
X126339200Y-126226600D01*
X126044300Y-126583300D02*
X126226300Y-126339500D01*
X125900900Y-126852000D02*
X126044300Y-126583300D01*
X125772600Y-127146900D02*
X125900900Y-126852000D01*
X125635700Y-127469200D02*
X125772600Y-127146900D01*
X125466700Y-127820200D02*
X125635700Y-127469200D01*
X125242100Y-128201000D02*
X125466700Y-127820200D01*
X125101900Y-128397100D02*
X125242100Y-128201000D01*
X124943200Y-128588700D02*
X125101900Y-128397100D01*
X124581000Y-128955400D02*
X124943200Y-128588700D01*
X124176100Y-129294700D02*
X124581000Y-128955400D01*
X123748900Y-129600100D02*
X124176100Y-129294700D01*
X123320100Y-129865200D02*
X123748900Y-129600100D01*
X122910100Y-130083700D02*
X123320100Y-129865200D01*
X122539600Y-130249000D02*
X122910100Y-130083700D01*
X122229000Y-130354800D02*
X122539600Y-130249000D01*
X121873800Y-130436500D02*
X122229000Y-130354800D01*
X121377800Y-130526000D02*
X121873800Y-130436500D01*
X120773900Y-130611500D02*
X121377800Y-130526000D01*
X120095200Y-130681300D02*
X120773900Y-130611500D01*
X119374600Y-130723700D02*
X120095200Y-130681300D01*
X118645200Y-130726900D02*
X119374600Y-130723700D01*
X118287400Y-130710100D02*
X118645200Y-130726900D01*
X117939900Y-130679100D02*
X118287400Y-130710100D01*
X117606600Y-130632400D02*
X117939900Y-130679100D01*
X117291800Y-130568600D02*
X117606600Y-130632400D01*
X116675700Y-130394600D02*
X117291800Y-130568600D01*
X116052100Y-130167900D02*
X116675700Y-130394600D01*
X115432500Y-129893900D02*
X116052100Y-130167900D01*
X114828400Y-129578300D02*
X115432500Y-129893900D01*
X114251200Y-129226500D02*
X114828400Y-129578300D01*
X113712300Y-128844000D02*
X114251200Y-129226500D01*
X113223400Y-128436500D02*
X113712300Y-128844000D01*
X112795700Y-128009300D02*
X113223400Y-128436500D01*
X112614700Y-127791400D02*
X112795700Y-128009300D01*
X112461600Y-127573000D02*
X112614700Y-127791400D01*
X112331900Y-127354500D02*
X112461600Y-127573000D01*
X112221000Y-127136100D02*
X112331900Y-127354500D01*
X112036700Y-126701000D02*
X112221000Y-127136100D01*
X111871600Y-126270100D02*
X112036700Y-126701000D01*
X111688800Y-125846100D02*
X111871600Y-126270100D01*
X111579200Y-125637300D02*
X111688800Y-125846100D01*
X111451200Y-125431200D02*
X111579200Y-125637300D01*
X111300200Y-125228000D02*
X111451200Y-125431200D01*
X111121500Y-125028000D02*
X111300200Y-125228000D01*
X110910700Y-124831600D02*
X111121500Y-125028000D01*
X110662900Y-124639000D02*
X110910700Y-124831600D01*
X110470200Y-124529900D02*
X110662900Y-124639000D01*
X110267100Y-124438500D02*
X110470200Y-124529900D01*
X110054300Y-124363400D02*
X110267100Y-124438500D01*
X109832500Y-124303000D02*
X110054300Y-124363400D01*
X109364900Y-124220300D02*
X109832500Y-124303000D01*
X108870100Y-124178300D02*
X109364900Y-124220300D01*
X108354000Y-124164800D02*
X108870100Y-124178300D01*
X107822400Y-124167500D02*
X108354000Y-124164800D01*
X106735660Y-124173100D02*
X107822400Y-124167500D01*
X106192240Y-124151700D02*
X106735660Y-124173100D01*
X105656500Y-124097800D02*
X106192240Y-124151700D01*
X105134260Y-123999400D02*
X105656500Y-124097800D01*
X104880020Y-123929600D02*
X105134260Y-123999400D01*
X104631340Y-123844200D02*
X104880020Y-123929600D01*
X104388930Y-123741500D02*
X104631340Y-123844200D01*
X104153520Y-123620000D02*
X104388930Y-123741500D01*
X103925850Y-123478300D02*
X104153520Y-123620000D01*
X103706640Y-123314800D02*
X103925850Y-123478300D01*
X103496610Y-123128000D02*
X103706640Y-123314800D01*
X103296480Y-122916300D02*
X103496610Y-123128000D01*
X103107000Y-122678200D02*
X103296480Y-122916300D01*
X102928870Y-122412300D02*
X103107000Y-122678200D01*
M02*
