G04 #@! TF.GenerationSoftware,KiCad,Pcbnew,(5.1.9-0-10_14)*
G04 #@! TF.CreationDate,2022-03-06T10:31:41-07:00*
G04 #@! TF.ProjectId,001,3030312e-6b69-4636-9164-5f7063625858,rev?*
G04 #@! TF.SameCoordinates,Original*
G04 #@! TF.FileFunction,Legend,Bot*
G04 #@! TF.FilePolarity,Positive*
%FSLAX46Y46*%
G04 Gerber Fmt 4.6, Leading zero omitted, Abs format (unit mm)*
G04 Created by KiCad (PCBNEW (5.1.9-0-10_14)) date 2022-03-06 10:31:41*
%MOMM*%
%LPD*%
G01*
G04 APERTURE LIST*
%ADD10C,0.010000*%
G04 APERTURE END LIST*
D10*
G36*
X174464592Y-107353750D02*
G01*
X174553379Y-107365272D01*
X174666353Y-107385212D01*
X174798048Y-107412363D01*
X174942998Y-107445521D01*
X175095736Y-107483478D01*
X175250796Y-107525030D01*
X175402712Y-107568971D01*
X175546016Y-107614094D01*
X175577500Y-107624619D01*
X176078202Y-107816036D01*
X176565713Y-108046945D01*
X177040427Y-108317600D01*
X177502737Y-108628253D01*
X177953036Y-108979157D01*
X178391717Y-109370564D01*
X178576258Y-109550766D01*
X178674684Y-109651820D01*
X178784312Y-109768431D01*
X178900086Y-109894838D01*
X179016954Y-110025278D01*
X179129863Y-110153991D01*
X179233758Y-110275215D01*
X179323586Y-110383189D01*
X179394294Y-110472152D01*
X179440828Y-110536341D01*
X179441106Y-110536765D01*
X179470754Y-110575247D01*
X179492148Y-110591595D01*
X179492358Y-110591600D01*
X179510148Y-110576022D01*
X179549862Y-110532848D01*
X179606827Y-110467422D01*
X179676373Y-110385087D01*
X179737514Y-110311142D01*
X179841250Y-110189434D01*
X179967730Y-110048829D01*
X180110338Y-109896066D01*
X180262453Y-109737878D01*
X180417458Y-109581003D01*
X180568733Y-109432177D01*
X180709659Y-109298135D01*
X180833619Y-109185614D01*
X180895812Y-109132302D01*
X180979178Y-109064476D01*
X181037171Y-109021740D01*
X181075646Y-109000600D01*
X181100455Y-108997562D01*
X181111766Y-109003421D01*
X181129197Y-109008903D01*
X181157806Y-109001121D01*
X181202468Y-108977266D01*
X181268054Y-108934530D01*
X181359441Y-108870105D01*
X181422818Y-108824150D01*
X181876398Y-108517855D01*
X182342517Y-108251386D01*
X182820286Y-108025025D01*
X183308816Y-107839051D01*
X183807218Y-107693747D01*
X184314602Y-107589392D01*
X184830079Y-107526267D01*
X185352759Y-107504654D01*
X185589334Y-107508520D01*
X186089379Y-107543111D01*
X186570450Y-107612893D01*
X187038941Y-107719168D01*
X187501250Y-107863239D01*
X187706000Y-107939583D01*
X187851742Y-108000417D01*
X188017242Y-108075728D01*
X188190994Y-108159776D01*
X188361492Y-108246818D01*
X188517233Y-108331112D01*
X188646710Y-108406917D01*
X188663598Y-108417481D01*
X188806279Y-108507714D01*
X188711401Y-108649144D01*
X188616522Y-108790574D01*
X188441720Y-108681944D01*
X188296825Y-108597811D01*
X188123230Y-108506484D01*
X187932624Y-108413447D01*
X187736698Y-108324187D01*
X187547139Y-108244191D01*
X187375638Y-108178946D01*
X187353817Y-108171329D01*
X186875568Y-108027225D01*
X186395851Y-107924516D01*
X185909860Y-107862397D01*
X185412792Y-107840063D01*
X185377667Y-107839969D01*
X184866331Y-107860831D01*
X184362445Y-107923207D01*
X183866937Y-108026784D01*
X183380735Y-108171249D01*
X182904768Y-108356288D01*
X182439964Y-108581588D01*
X181987252Y-108846834D01*
X181592766Y-109118086D01*
X181508523Y-109180327D01*
X181437227Y-109233148D01*
X181385448Y-109271671D01*
X181359760Y-109291014D01*
X181358276Y-109292200D01*
X181362587Y-109311838D01*
X181374647Y-109329147D01*
X181381189Y-109349291D01*
X181367093Y-109376870D01*
X181327741Y-109417982D01*
X181266538Y-109471914D01*
X180843632Y-109853936D01*
X180444550Y-110260560D01*
X180064201Y-110697317D01*
X179697494Y-111169734D01*
X179675692Y-111199502D01*
X179533220Y-111394653D01*
X179617119Y-111518200D01*
X179649869Y-111572511D01*
X179690284Y-111648524D01*
X179734782Y-111738335D01*
X179779783Y-111834037D01*
X179821704Y-111927728D01*
X179856965Y-112011501D01*
X179881984Y-112077453D01*
X179893181Y-112117678D01*
X179892382Y-112125774D01*
X179870886Y-112136302D01*
X179817315Y-112159704D01*
X179738821Y-112192930D01*
X179642555Y-112232933D01*
X179598782Y-112250924D01*
X179498293Y-112293289D01*
X179413876Y-112331158D01*
X179352322Y-112361305D01*
X179320420Y-112380503D01*
X179317511Y-112384595D01*
X179328954Y-112408748D01*
X179356933Y-112461674D01*
X179397113Y-112535311D01*
X179440342Y-112613017D01*
X179501671Y-112724994D01*
X179567609Y-112849643D01*
X179627905Y-112967429D01*
X179653766Y-113019766D01*
X179696788Y-113107274D01*
X179726782Y-113162585D01*
X179748923Y-113191722D01*
X179768390Y-113200709D01*
X179790358Y-113195568D01*
X179800900Y-113190953D01*
X179840859Y-113176283D01*
X179858548Y-113175787D01*
X179869333Y-113196905D01*
X179895353Y-113248860D01*
X179933066Y-113324549D01*
X179978928Y-113416870D01*
X179994912Y-113449100D01*
X180057950Y-113576428D01*
X180105059Y-113668638D01*
X180139900Y-113728142D01*
X180166132Y-113757350D01*
X180187415Y-113758673D01*
X180207409Y-113734523D01*
X180229774Y-113687309D01*
X180257157Y-113621849D01*
X180294041Y-113538079D01*
X180329157Y-113464932D01*
X180356510Y-113414698D01*
X180362864Y-113405171D01*
X180378507Y-113386970D01*
X180393308Y-113383171D01*
X180412016Y-113398752D01*
X180439377Y-113438694D01*
X180480143Y-113507976D01*
X180508694Y-113558096D01*
X180759052Y-113971226D01*
X181032644Y-114371353D01*
X181325798Y-114754467D01*
X181634842Y-115116557D01*
X181956105Y-115453613D01*
X182285915Y-115761623D01*
X182620600Y-116036577D01*
X182956488Y-116274464D01*
X183049334Y-116333316D01*
X183177800Y-116407446D01*
X183333674Y-116489295D01*
X183505221Y-116573361D01*
X183680704Y-116654141D01*
X183848388Y-116726132D01*
X183996536Y-116783830D01*
X184049333Y-116802219D01*
X184397896Y-116899971D01*
X184763360Y-116968804D01*
X185133683Y-117007207D01*
X185496825Y-117013666D01*
X185664400Y-117005026D01*
X186083788Y-116953983D01*
X186482489Y-116866034D01*
X186860737Y-116741079D01*
X187218763Y-116579014D01*
X187556801Y-116379739D01*
X187875083Y-116143151D01*
X188105458Y-115936828D01*
X188327259Y-115707683D01*
X188515547Y-115479852D01*
X188677656Y-115243542D01*
X188820921Y-114988956D01*
X188832616Y-114965860D01*
X188923253Y-114785396D01*
X189088069Y-114858081D01*
X189163677Y-114891045D01*
X189223029Y-114916207D01*
X189256687Y-114929593D01*
X189260756Y-114930767D01*
X189271332Y-114912457D01*
X189292640Y-114863692D01*
X189320714Y-114793715D01*
X189331100Y-114766725D01*
X189451756Y-114392117D01*
X189532398Y-114010348D01*
X189573689Y-113624689D01*
X189576293Y-113238412D01*
X189540876Y-112854789D01*
X189468101Y-112477092D01*
X189358632Y-112108591D01*
X189213134Y-111752558D01*
X189032270Y-111412266D01*
X188816705Y-111090985D01*
X188567103Y-110791987D01*
X188512525Y-110734498D01*
X188373931Y-110591646D01*
X188253805Y-110710519D01*
X188133678Y-110829392D01*
X187967464Y-110687234D01*
X187651530Y-110444325D01*
X187315085Y-110237135D01*
X186960926Y-110066044D01*
X186591847Y-109931428D01*
X186210644Y-109833667D01*
X185820112Y-109773139D01*
X185423045Y-109750222D01*
X185022239Y-109765295D01*
X184620490Y-109818735D01*
X184220591Y-109910922D01*
X183825339Y-110042233D01*
X183669858Y-110105500D01*
X183568197Y-110149944D01*
X183474719Y-110192332D01*
X183399606Y-110227949D01*
X183353038Y-110252082D01*
X183352142Y-110252606D01*
X183284534Y-110292442D01*
X183233118Y-110203896D01*
X183186507Y-110120958D01*
X183145472Y-110043134D01*
X183114223Y-109978948D01*
X183096969Y-109936922D01*
X183095482Y-109925243D01*
X183125248Y-109907038D01*
X183185464Y-109876112D01*
X183267654Y-109836385D01*
X183363341Y-109791775D01*
X183464051Y-109746203D01*
X183561307Y-109703588D01*
X183646634Y-109667848D01*
X183684334Y-109652953D01*
X184032829Y-109532717D01*
X184372711Y-109443762D01*
X184715456Y-109384004D01*
X185072541Y-109351356D01*
X185388250Y-109343354D01*
X185828914Y-109363719D01*
X186256189Y-109424216D01*
X186670313Y-109524896D01*
X187071521Y-109665809D01*
X187253031Y-109744720D01*
X187334174Y-109781388D01*
X187401064Y-109810090D01*
X187444319Y-109826876D01*
X187454724Y-109829600D01*
X187471569Y-109811942D01*
X187501483Y-109764688D01*
X187539242Y-109696417D01*
X187557834Y-109660267D01*
X187596928Y-109585282D01*
X187629804Y-109527311D01*
X187651485Y-109494903D01*
X187656360Y-109490934D01*
X187679124Y-109501189D01*
X187729461Y-109528775D01*
X187798841Y-109568918D01*
X187846226Y-109597146D01*
X188221126Y-109846059D01*
X188564244Y-110122125D01*
X188874845Y-110424485D01*
X189152194Y-110752282D01*
X189395556Y-111104655D01*
X189604197Y-111480745D01*
X189759362Y-111832860D01*
X189806387Y-111962807D01*
X189854642Y-112112860D01*
X189900453Y-112270047D01*
X189940148Y-112421397D01*
X189970054Y-112553938D01*
X189981522Y-112617437D01*
X189992609Y-112672962D01*
X190008567Y-112696559D01*
X190038505Y-112698417D01*
X190051922Y-112696195D01*
X190170139Y-112674890D01*
X190251560Y-112661009D01*
X190300926Y-112653804D01*
X190322981Y-112652531D01*
X190325036Y-112653247D01*
X190330259Y-112674990D01*
X190339716Y-112728331D01*
X190351612Y-112802964D01*
X190355113Y-112826125D01*
X190367198Y-112940475D01*
X190375128Y-113086678D01*
X190379010Y-113254469D01*
X190378951Y-113433585D01*
X190375058Y-113613759D01*
X190367438Y-113784728D01*
X190356198Y-113936225D01*
X190342329Y-114052350D01*
X190254149Y-114494544D01*
X190129018Y-114920631D01*
X189968071Y-115328274D01*
X189772445Y-115715141D01*
X189543275Y-116078895D01*
X189281698Y-116417201D01*
X189088657Y-116628693D01*
X188929336Y-116792035D01*
X189051863Y-116920493D01*
X189101083Y-116970619D01*
X189134536Y-117007236D01*
X189149948Y-117036912D01*
X189145044Y-117066217D01*
X189117552Y-117101719D01*
X189065195Y-117149990D01*
X188985700Y-117217597D01*
X188933667Y-117261903D01*
X188572250Y-117544135D01*
X188186013Y-117793614D01*
X187778162Y-118009310D01*
X187351906Y-118190196D01*
X186910453Y-118335244D01*
X186457011Y-118443424D01*
X185994788Y-118513709D01*
X185526991Y-118545069D01*
X185056830Y-118536477D01*
X184975500Y-118530862D01*
X184858706Y-118521430D01*
X184754124Y-118512084D01*
X184670307Y-118503658D01*
X184615808Y-118496982D01*
X184602070Y-118494523D01*
X184576746Y-118492069D01*
X184561085Y-118506152D01*
X184550648Y-118545502D01*
X184541633Y-118613343D01*
X184534857Y-118682446D01*
X184532307Y-118732345D01*
X184534063Y-118750693D01*
X184564266Y-118760813D01*
X184629987Y-118771035D01*
X184724415Y-118780891D01*
X184840737Y-118789916D01*
X184972141Y-118797644D01*
X185111818Y-118803609D01*
X185252953Y-118807344D01*
X185377667Y-118808412D01*
X185715414Y-118801030D01*
X186026232Y-118778878D01*
X186323428Y-118740349D01*
X186620308Y-118683835D01*
X186838167Y-118631919D01*
X187278083Y-118499876D01*
X187706791Y-118332904D01*
X188119315Y-118133678D01*
X188510676Y-117904875D01*
X188875898Y-117649170D01*
X189210004Y-117369239D01*
X189241771Y-117339774D01*
X189348791Y-117239557D01*
X189790917Y-117685583D01*
X189685084Y-117781613D01*
X189376686Y-118041898D01*
X189039800Y-118290788D01*
X188684992Y-118521472D01*
X188322825Y-118727140D01*
X187963863Y-118900982D01*
X187917667Y-118921025D01*
X187517182Y-119074415D01*
X187090693Y-119204324D01*
X186649156Y-119307906D01*
X186203533Y-119382314D01*
X186086750Y-119396713D01*
X185956474Y-119408280D01*
X185795994Y-119417467D01*
X185616533Y-119424081D01*
X185429311Y-119427931D01*
X185245550Y-119428826D01*
X185076470Y-119426573D01*
X184933292Y-119420981D01*
X184880250Y-119417320D01*
X184347213Y-119353665D01*
X183829123Y-119251370D01*
X183324741Y-119109953D01*
X182832830Y-118928932D01*
X182352150Y-118707824D01*
X181881465Y-118446148D01*
X181419535Y-118143421D01*
X181388412Y-118120683D01*
X184615998Y-118120683D01*
X184626058Y-118137532D01*
X184659556Y-118151650D01*
X184720749Y-118163778D01*
X184813895Y-118174654D01*
X184943252Y-118185019D01*
X185012294Y-118189581D01*
X185142230Y-118197712D01*
X185240964Y-118203287D01*
X185319552Y-118206310D01*
X185389048Y-118206780D01*
X185460508Y-118204701D01*
X185544986Y-118200074D01*
X185653537Y-118192900D01*
X185700854Y-118189679D01*
X186134709Y-118143827D01*
X186557180Y-118066834D01*
X186960083Y-117960394D01*
X187198000Y-117879788D01*
X187290629Y-117843410D01*
X187396733Y-117798402D01*
X187509682Y-117747966D01*
X187622845Y-117695306D01*
X187729592Y-117643625D01*
X187823292Y-117596128D01*
X187897315Y-117556017D01*
X187945030Y-117526497D01*
X187960000Y-117511626D01*
X187949946Y-117487691D01*
X187922849Y-117435446D01*
X187883312Y-117362964D01*
X187835935Y-117278318D01*
X187785320Y-117189581D01*
X187736068Y-117104824D01*
X187692780Y-117032121D01*
X187660056Y-116979545D01*
X187643278Y-116955932D01*
X187618983Y-116958010D01*
X187565325Y-116976694D01*
X187490371Y-117008814D01*
X187407065Y-117048747D01*
X187011508Y-117223773D01*
X186602357Y-117359196D01*
X186182337Y-117454471D01*
X185754175Y-117509056D01*
X185320597Y-117522409D01*
X185081334Y-117512017D01*
X184969070Y-117503601D01*
X184869876Y-117495079D01*
X184792413Y-117487274D01*
X184745341Y-117481014D01*
X184737375Y-117479258D01*
X184706669Y-117477778D01*
X184700334Y-117485825D01*
X184697498Y-117512246D01*
X184689711Y-117572487D01*
X184678057Y-117658468D01*
X184663616Y-117762109D01*
X184658331Y-117799460D01*
X184643135Y-117908025D01*
X184630339Y-118002433D01*
X184621044Y-118074338D01*
X184616349Y-118115391D01*
X184615998Y-118120683D01*
X181388412Y-118120683D01*
X181202542Y-117984890D01*
X181123196Y-117923616D01*
X181057984Y-117870671D01*
X181013465Y-117831564D01*
X180996198Y-117811809D01*
X180996167Y-117811478D01*
X181008600Y-117788088D01*
X181041822Y-117740566D01*
X181089719Y-117677466D01*
X181112874Y-117648210D01*
X181229582Y-117502517D01*
X181096999Y-117387048D01*
X180747016Y-117064126D01*
X180398872Y-116707952D01*
X180060175Y-116327213D01*
X179738532Y-115930596D01*
X179441551Y-115526787D01*
X179347677Y-115389591D01*
X179295770Y-115309733D01*
X179234050Y-115210804D01*
X179165928Y-115098702D01*
X179094816Y-114979325D01*
X179024127Y-114858569D01*
X178957271Y-114742331D01*
X178897661Y-114636510D01*
X178848708Y-114547001D01*
X178813825Y-114479703D01*
X178796422Y-114440511D01*
X178795093Y-114434464D01*
X178812886Y-114416168D01*
X178860797Y-114384114D01*
X178930962Y-114343239D01*
X178994571Y-114309190D01*
X179094462Y-114254710D01*
X179156444Y-114213939D01*
X179182227Y-114185674D01*
X179182547Y-114176899D01*
X179173264Y-114159296D01*
X179157987Y-114151788D01*
X179130228Y-114156278D01*
X179083502Y-114174671D01*
X179011322Y-114208870D01*
X178921834Y-114253434D01*
X178835626Y-114295980D01*
X178763259Y-114330358D01*
X178713098Y-114352679D01*
X178694155Y-114359267D01*
X178679892Y-114341120D01*
X178651297Y-114290972D01*
X178611771Y-114215262D01*
X178564715Y-114120431D01*
X178532063Y-114052350D01*
X178506532Y-113999455D01*
X179496914Y-113999455D01*
X179503388Y-114029101D01*
X179529296Y-114089072D01*
X179571631Y-114173799D01*
X179627386Y-114277712D01*
X179693555Y-114395240D01*
X179767130Y-114520813D01*
X179845104Y-114648862D01*
X179862523Y-114676767D01*
X180207867Y-115192598D01*
X180575120Y-115673919D01*
X180963565Y-116119909D01*
X181372484Y-116529745D01*
X181801159Y-116902603D01*
X181811084Y-116910606D01*
X181869670Y-116955621D01*
X181949164Y-117013674D01*
X182043452Y-117080616D01*
X182146424Y-117152298D01*
X182251968Y-117224570D01*
X182353972Y-117293282D01*
X182446325Y-117354286D01*
X182522915Y-117403432D01*
X182577631Y-117436571D01*
X182604362Y-117449553D01*
X182604961Y-117449600D01*
X182621866Y-117432372D01*
X182653669Y-117386105D01*
X182694997Y-117318924D01*
X182720195Y-117275376D01*
X182760631Y-117199871D01*
X182788616Y-117139362D01*
X182800564Y-117102115D01*
X182798712Y-117094421D01*
X182767440Y-117077875D01*
X182708524Y-117041441D01*
X182628820Y-116989758D01*
X182535186Y-116927464D01*
X182434480Y-116859202D01*
X182333561Y-116789609D01*
X182239284Y-116723325D01*
X182158510Y-116664991D01*
X182109187Y-116627914D01*
X181748483Y-116327279D01*
X181393243Y-115988495D01*
X181047007Y-115615706D01*
X180713315Y-115213053D01*
X180395706Y-114784678D01*
X180097722Y-114334724D01*
X179970615Y-114125701D01*
X179799975Y-113837277D01*
X179651946Y-113907950D01*
X179580712Y-113944077D01*
X179526225Y-113975696D01*
X179498408Y-113996951D01*
X179496914Y-113999455D01*
X178506532Y-113999455D01*
X178482000Y-113948632D01*
X178437340Y-113859893D01*
X178401471Y-113792570D01*
X178377780Y-113753102D01*
X178370554Y-113745434D01*
X178351848Y-113762230D01*
X178320801Y-113805493D01*
X178295875Y-113845975D01*
X178234253Y-113946884D01*
X178153587Y-114071579D01*
X178060564Y-114210229D01*
X177961871Y-114353005D01*
X177864197Y-114490077D01*
X177781809Y-114601603D01*
X177449227Y-115015203D01*
X177103088Y-115393948D01*
X176744643Y-115737075D01*
X176375143Y-116043817D01*
X175995841Y-116313410D01*
X175607986Y-116545089D01*
X175212831Y-116738089D01*
X174811627Y-116891644D01*
X174405626Y-117004990D01*
X173996078Y-117077362D01*
X173688375Y-117104240D01*
X173418500Y-117117473D01*
X173418500Y-116649833D01*
X173635459Y-116634995D01*
X174042110Y-116587987D01*
X174437607Y-116502994D01*
X174823225Y-116379397D01*
X175200241Y-116216576D01*
X175569931Y-116013914D01*
X175933572Y-115770790D01*
X176292441Y-115486586D01*
X176620075Y-115187730D01*
X176862474Y-114939927D01*
X177104149Y-114668937D01*
X177338494Y-114383268D01*
X177558906Y-114091425D01*
X177758781Y-113801916D01*
X177931515Y-113523247D01*
X177983276Y-113431777D01*
X178021064Y-113363463D01*
X178050258Y-113311233D01*
X178065486Y-113284690D01*
X178066356Y-113283344D01*
X178086372Y-113286530D01*
X178115687Y-113299963D01*
X178149317Y-113314216D01*
X178159834Y-113313007D01*
X178149134Y-113289437D01*
X178119784Y-113236945D01*
X178075909Y-113162296D01*
X178021632Y-113072253D01*
X177961077Y-112973580D01*
X177898369Y-112873041D01*
X177837632Y-112777401D01*
X177782990Y-112693423D01*
X177771750Y-112676517D01*
X177524298Y-112323478D01*
X177269855Y-111996470D01*
X177000502Y-111686500D01*
X176708320Y-111384573D01*
X176624392Y-111305857D01*
X178604804Y-111305857D01*
X178616587Y-111333026D01*
X178648746Y-111385329D01*
X178695860Y-111454333D01*
X178734009Y-111506940D01*
X178805278Y-111605391D01*
X178885932Y-111720528D01*
X178962693Y-111833281D01*
X178991979Y-111877475D01*
X179057700Y-111976509D01*
X179101714Y-112039809D01*
X179124365Y-112067782D01*
X179125995Y-112060832D01*
X179106946Y-112019365D01*
X179099414Y-112004475D01*
X179075856Y-111964362D01*
X179033254Y-111897293D01*
X178976819Y-111811009D01*
X178911761Y-111713251D01*
X178843293Y-111611758D01*
X178776623Y-111514271D01*
X178716964Y-111428532D01*
X178669525Y-111362280D01*
X178647005Y-111332434D01*
X178618965Y-111303837D01*
X178605102Y-111303304D01*
X178604804Y-111305857D01*
X176624392Y-111305857D01*
X176385390Y-111081698D01*
X176302459Y-111007891D01*
X176192237Y-110910104D01*
X176093326Y-110821191D01*
X176009950Y-110745045D01*
X175946330Y-110685557D01*
X175906692Y-110646617D01*
X175895000Y-110632469D01*
X175908269Y-110613711D01*
X175945213Y-110568166D01*
X176001535Y-110500825D01*
X176072941Y-110416676D01*
X176155135Y-110320710D01*
X176243822Y-110217918D01*
X176334706Y-110113289D01*
X176423492Y-110011813D01*
X176505884Y-109918481D01*
X176577587Y-109838282D01*
X176598728Y-109814937D01*
X176640937Y-109768523D01*
X176400260Y-109610721D01*
X176016702Y-109380474D01*
X175616357Y-109180559D01*
X175208019Y-109015042D01*
X174889584Y-108912421D01*
X174764018Y-108878434D01*
X174636309Y-108847015D01*
X174513459Y-108819546D01*
X174402471Y-108797412D01*
X174310348Y-108781995D01*
X174244094Y-108774679D01*
X174210710Y-108776847D01*
X174209049Y-108777996D01*
X174198818Y-108805147D01*
X174186637Y-108861350D01*
X174176784Y-108923150D01*
X174166142Y-108992777D01*
X174156293Y-109043480D01*
X174150158Y-109062665D01*
X174127030Y-109064038D01*
X174069807Y-109061671D01*
X173986513Y-109056043D01*
X173885176Y-109047633D01*
X173859333Y-109045280D01*
X173634844Y-109031951D01*
X173386685Y-109029975D01*
X173131826Y-109038848D01*
X172887236Y-109058066D01*
X172720000Y-109079078D01*
X172282721Y-109166035D01*
X171857712Y-109292323D01*
X171447938Y-109456618D01*
X171056364Y-109657599D01*
X170685952Y-109893940D01*
X170395578Y-110116951D01*
X170198405Y-110281299D01*
X170283967Y-110366862D01*
X170369530Y-110452424D01*
X170420711Y-110410887D01*
X170459059Y-110379662D01*
X170520157Y-110329800D01*
X170593992Y-110269477D01*
X170638154Y-110233368D01*
X170939231Y-110011711D01*
X171270058Y-109813053D01*
X171622689Y-109641134D01*
X171989173Y-109499697D01*
X172361563Y-109392483D01*
X172480654Y-109366019D01*
X172596855Y-109342485D01*
X172678245Y-109328310D01*
X172731460Y-109324238D01*
X172763135Y-109331016D01*
X172779906Y-109349390D01*
X172788411Y-109380104D01*
X172791735Y-109400975D01*
X172812911Y-109546041D01*
X172829198Y-109666979D01*
X172840064Y-109759298D01*
X172844977Y-109818506D01*
X172843760Y-109839895D01*
X172820834Y-109847355D01*
X172765332Y-109861010D01*
X172686190Y-109878756D01*
X172613644Y-109894114D01*
X172298943Y-109974731D01*
X171980083Y-110085604D01*
X171668786Y-110221692D01*
X171376774Y-110377952D01*
X171153667Y-110522028D01*
X171003626Y-110638010D01*
X170842497Y-110779452D01*
X170679266Y-110937195D01*
X170522916Y-111102076D01*
X170382431Y-111264936D01*
X170266797Y-111416613D01*
X170244729Y-111448850D01*
X170128075Y-111634702D01*
X170021051Y-111826679D01*
X169929268Y-112013802D01*
X169858338Y-112185093D01*
X169837330Y-112245885D01*
X169811723Y-112315724D01*
X169787640Y-112364993D01*
X169769809Y-112384241D01*
X169768185Y-112384040D01*
X169698859Y-112360847D01*
X169616164Y-112335557D01*
X169529968Y-112310868D01*
X169450136Y-112289476D01*
X169386536Y-112274079D01*
X169349035Y-112267373D01*
X169343299Y-112267912D01*
X169332444Y-112294897D01*
X169316197Y-112354995D01*
X169296354Y-112439604D01*
X169274711Y-112540119D01*
X169253067Y-112647934D01*
X169233217Y-112754448D01*
X169216958Y-112851054D01*
X169207252Y-112919378D01*
X169194356Y-113067935D01*
X169187583Y-113244264D01*
X169186792Y-113434268D01*
X169191843Y-113623851D01*
X169202596Y-113798918D01*
X169217370Y-113934810D01*
X169228888Y-114027113D01*
X169235395Y-114103337D01*
X169236276Y-114154138D01*
X169232857Y-114169952D01*
X169205818Y-114180364D01*
X169150997Y-114194680D01*
X169082381Y-114209904D01*
X169013955Y-114223038D01*
X168959704Y-114231086D01*
X168942015Y-114232267D01*
X168925559Y-114212078D01*
X168908607Y-114155379D01*
X168892056Y-114067967D01*
X168876808Y-113955644D01*
X168863760Y-113824207D01*
X168853812Y-113679457D01*
X168852570Y-113655475D01*
X168840271Y-113406767D01*
X168374382Y-113406767D01*
X168388354Y-113162123D01*
X168434659Y-112714465D01*
X168521074Y-112278131D01*
X168646410Y-111855152D01*
X168809474Y-111447564D01*
X169009077Y-111057400D01*
X169244027Y-110686693D01*
X169513134Y-110337477D01*
X169815207Y-110011787D01*
X170149055Y-109711655D01*
X170513487Y-109439115D01*
X170603334Y-109379360D01*
X170727344Y-109302664D01*
X170870304Y-109220555D01*
X171020240Y-109139416D01*
X171165175Y-109065627D01*
X171293135Y-109005573D01*
X171349459Y-108981703D01*
X171413190Y-108952334D01*
X171457249Y-108924830D01*
X171471167Y-108907540D01*
X171463478Y-108872857D01*
X171444426Y-108818668D01*
X171438695Y-108804553D01*
X171410812Y-108736623D01*
X171378219Y-108655596D01*
X171365187Y-108622730D01*
X171324152Y-108518623D01*
X171646368Y-108414354D01*
X171992247Y-108311816D01*
X172319559Y-108235244D01*
X172641170Y-108182247D01*
X172969945Y-108150436D01*
X173106292Y-108143109D01*
X173418500Y-108129840D01*
X173418500Y-107691767D01*
X173529625Y-107692102D01*
X173603708Y-107694334D01*
X173707668Y-107700072D01*
X173829286Y-107708373D01*
X173956339Y-107718295D01*
X174076607Y-107728895D01*
X174177868Y-107739233D01*
X174236234Y-107746571D01*
X174323717Y-107759331D01*
X174348803Y-107572091D01*
X174360850Y-107485630D01*
X174371640Y-107414310D01*
X174379460Y-107369226D01*
X174381447Y-107360781D01*
X174405460Y-107351851D01*
X174464592Y-107353750D01*
G37*
X174464592Y-107353750D02*
X174553379Y-107365272D01*
X174666353Y-107385212D01*
X174798048Y-107412363D01*
X174942998Y-107445521D01*
X175095736Y-107483478D01*
X175250796Y-107525030D01*
X175402712Y-107568971D01*
X175546016Y-107614094D01*
X175577500Y-107624619D01*
X176078202Y-107816036D01*
X176565713Y-108046945D01*
X177040427Y-108317600D01*
X177502737Y-108628253D01*
X177953036Y-108979157D01*
X178391717Y-109370564D01*
X178576258Y-109550766D01*
X178674684Y-109651820D01*
X178784312Y-109768431D01*
X178900086Y-109894838D01*
X179016954Y-110025278D01*
X179129863Y-110153991D01*
X179233758Y-110275215D01*
X179323586Y-110383189D01*
X179394294Y-110472152D01*
X179440828Y-110536341D01*
X179441106Y-110536765D01*
X179470754Y-110575247D01*
X179492148Y-110591595D01*
X179492358Y-110591600D01*
X179510148Y-110576022D01*
X179549862Y-110532848D01*
X179606827Y-110467422D01*
X179676373Y-110385087D01*
X179737514Y-110311142D01*
X179841250Y-110189434D01*
X179967730Y-110048829D01*
X180110338Y-109896066D01*
X180262453Y-109737878D01*
X180417458Y-109581003D01*
X180568733Y-109432177D01*
X180709659Y-109298135D01*
X180833619Y-109185614D01*
X180895812Y-109132302D01*
X180979178Y-109064476D01*
X181037171Y-109021740D01*
X181075646Y-109000600D01*
X181100455Y-108997562D01*
X181111766Y-109003421D01*
X181129197Y-109008903D01*
X181157806Y-109001121D01*
X181202468Y-108977266D01*
X181268054Y-108934530D01*
X181359441Y-108870105D01*
X181422818Y-108824150D01*
X181876398Y-108517855D01*
X182342517Y-108251386D01*
X182820286Y-108025025D01*
X183308816Y-107839051D01*
X183807218Y-107693747D01*
X184314602Y-107589392D01*
X184830079Y-107526267D01*
X185352759Y-107504654D01*
X185589334Y-107508520D01*
X186089379Y-107543111D01*
X186570450Y-107612893D01*
X187038941Y-107719168D01*
X187501250Y-107863239D01*
X187706000Y-107939583D01*
X187851742Y-108000417D01*
X188017242Y-108075728D01*
X188190994Y-108159776D01*
X188361492Y-108246818D01*
X188517233Y-108331112D01*
X188646710Y-108406917D01*
X188663598Y-108417481D01*
X188806279Y-108507714D01*
X188711401Y-108649144D01*
X188616522Y-108790574D01*
X188441720Y-108681944D01*
X188296825Y-108597811D01*
X188123230Y-108506484D01*
X187932624Y-108413447D01*
X187736698Y-108324187D01*
X187547139Y-108244191D01*
X187375638Y-108178946D01*
X187353817Y-108171329D01*
X186875568Y-108027225D01*
X186395851Y-107924516D01*
X185909860Y-107862397D01*
X185412792Y-107840063D01*
X185377667Y-107839969D01*
X184866331Y-107860831D01*
X184362445Y-107923207D01*
X183866937Y-108026784D01*
X183380735Y-108171249D01*
X182904768Y-108356288D01*
X182439964Y-108581588D01*
X181987252Y-108846834D01*
X181592766Y-109118086D01*
X181508523Y-109180327D01*
X181437227Y-109233148D01*
X181385448Y-109271671D01*
X181359760Y-109291014D01*
X181358276Y-109292200D01*
X181362587Y-109311838D01*
X181374647Y-109329147D01*
X181381189Y-109349291D01*
X181367093Y-109376870D01*
X181327741Y-109417982D01*
X181266538Y-109471914D01*
X180843632Y-109853936D01*
X180444550Y-110260560D01*
X180064201Y-110697317D01*
X179697494Y-111169734D01*
X179675692Y-111199502D01*
X179533220Y-111394653D01*
X179617119Y-111518200D01*
X179649869Y-111572511D01*
X179690284Y-111648524D01*
X179734782Y-111738335D01*
X179779783Y-111834037D01*
X179821704Y-111927728D01*
X179856965Y-112011501D01*
X179881984Y-112077453D01*
X179893181Y-112117678D01*
X179892382Y-112125774D01*
X179870886Y-112136302D01*
X179817315Y-112159704D01*
X179738821Y-112192930D01*
X179642555Y-112232933D01*
X179598782Y-112250924D01*
X179498293Y-112293289D01*
X179413876Y-112331158D01*
X179352322Y-112361305D01*
X179320420Y-112380503D01*
X179317511Y-112384595D01*
X179328954Y-112408748D01*
X179356933Y-112461674D01*
X179397113Y-112535311D01*
X179440342Y-112613017D01*
X179501671Y-112724994D01*
X179567609Y-112849643D01*
X179627905Y-112967429D01*
X179653766Y-113019766D01*
X179696788Y-113107274D01*
X179726782Y-113162585D01*
X179748923Y-113191722D01*
X179768390Y-113200709D01*
X179790358Y-113195568D01*
X179800900Y-113190953D01*
X179840859Y-113176283D01*
X179858548Y-113175787D01*
X179869333Y-113196905D01*
X179895353Y-113248860D01*
X179933066Y-113324549D01*
X179978928Y-113416870D01*
X179994912Y-113449100D01*
X180057950Y-113576428D01*
X180105059Y-113668638D01*
X180139900Y-113728142D01*
X180166132Y-113757350D01*
X180187415Y-113758673D01*
X180207409Y-113734523D01*
X180229774Y-113687309D01*
X180257157Y-113621849D01*
X180294041Y-113538079D01*
X180329157Y-113464932D01*
X180356510Y-113414698D01*
X180362864Y-113405171D01*
X180378507Y-113386970D01*
X180393308Y-113383171D01*
X180412016Y-113398752D01*
X180439377Y-113438694D01*
X180480143Y-113507976D01*
X180508694Y-113558096D01*
X180759052Y-113971226D01*
X181032644Y-114371353D01*
X181325798Y-114754467D01*
X181634842Y-115116557D01*
X181956105Y-115453613D01*
X182285915Y-115761623D01*
X182620600Y-116036577D01*
X182956488Y-116274464D01*
X183049334Y-116333316D01*
X183177800Y-116407446D01*
X183333674Y-116489295D01*
X183505221Y-116573361D01*
X183680704Y-116654141D01*
X183848388Y-116726132D01*
X183996536Y-116783830D01*
X184049333Y-116802219D01*
X184397896Y-116899971D01*
X184763360Y-116968804D01*
X185133683Y-117007207D01*
X185496825Y-117013666D01*
X185664400Y-117005026D01*
X186083788Y-116953983D01*
X186482489Y-116866034D01*
X186860737Y-116741079D01*
X187218763Y-116579014D01*
X187556801Y-116379739D01*
X187875083Y-116143151D01*
X188105458Y-115936828D01*
X188327259Y-115707683D01*
X188515547Y-115479852D01*
X188677656Y-115243542D01*
X188820921Y-114988956D01*
X188832616Y-114965860D01*
X188923253Y-114785396D01*
X189088069Y-114858081D01*
X189163677Y-114891045D01*
X189223029Y-114916207D01*
X189256687Y-114929593D01*
X189260756Y-114930767D01*
X189271332Y-114912457D01*
X189292640Y-114863692D01*
X189320714Y-114793715D01*
X189331100Y-114766725D01*
X189451756Y-114392117D01*
X189532398Y-114010348D01*
X189573689Y-113624689D01*
X189576293Y-113238412D01*
X189540876Y-112854789D01*
X189468101Y-112477092D01*
X189358632Y-112108591D01*
X189213134Y-111752558D01*
X189032270Y-111412266D01*
X188816705Y-111090985D01*
X188567103Y-110791987D01*
X188512525Y-110734498D01*
X188373931Y-110591646D01*
X188253805Y-110710519D01*
X188133678Y-110829392D01*
X187967464Y-110687234D01*
X187651530Y-110444325D01*
X187315085Y-110237135D01*
X186960926Y-110066044D01*
X186591847Y-109931428D01*
X186210644Y-109833667D01*
X185820112Y-109773139D01*
X185423045Y-109750222D01*
X185022239Y-109765295D01*
X184620490Y-109818735D01*
X184220591Y-109910922D01*
X183825339Y-110042233D01*
X183669858Y-110105500D01*
X183568197Y-110149944D01*
X183474719Y-110192332D01*
X183399606Y-110227949D01*
X183353038Y-110252082D01*
X183352142Y-110252606D01*
X183284534Y-110292442D01*
X183233118Y-110203896D01*
X183186507Y-110120958D01*
X183145472Y-110043134D01*
X183114223Y-109978948D01*
X183096969Y-109936922D01*
X183095482Y-109925243D01*
X183125248Y-109907038D01*
X183185464Y-109876112D01*
X183267654Y-109836385D01*
X183363341Y-109791775D01*
X183464051Y-109746203D01*
X183561307Y-109703588D01*
X183646634Y-109667848D01*
X183684334Y-109652953D01*
X184032829Y-109532717D01*
X184372711Y-109443762D01*
X184715456Y-109384004D01*
X185072541Y-109351356D01*
X185388250Y-109343354D01*
X185828914Y-109363719D01*
X186256189Y-109424216D01*
X186670313Y-109524896D01*
X187071521Y-109665809D01*
X187253031Y-109744720D01*
X187334174Y-109781388D01*
X187401064Y-109810090D01*
X187444319Y-109826876D01*
X187454724Y-109829600D01*
X187471569Y-109811942D01*
X187501483Y-109764688D01*
X187539242Y-109696417D01*
X187557834Y-109660267D01*
X187596928Y-109585282D01*
X187629804Y-109527311D01*
X187651485Y-109494903D01*
X187656360Y-109490934D01*
X187679124Y-109501189D01*
X187729461Y-109528775D01*
X187798841Y-109568918D01*
X187846226Y-109597146D01*
X188221126Y-109846059D01*
X188564244Y-110122125D01*
X188874845Y-110424485D01*
X189152194Y-110752282D01*
X189395556Y-111104655D01*
X189604197Y-111480745D01*
X189759362Y-111832860D01*
X189806387Y-111962807D01*
X189854642Y-112112860D01*
X189900453Y-112270047D01*
X189940148Y-112421397D01*
X189970054Y-112553938D01*
X189981522Y-112617437D01*
X189992609Y-112672962D01*
X190008567Y-112696559D01*
X190038505Y-112698417D01*
X190051922Y-112696195D01*
X190170139Y-112674890D01*
X190251560Y-112661009D01*
X190300926Y-112653804D01*
X190322981Y-112652531D01*
X190325036Y-112653247D01*
X190330259Y-112674990D01*
X190339716Y-112728331D01*
X190351612Y-112802964D01*
X190355113Y-112826125D01*
X190367198Y-112940475D01*
X190375128Y-113086678D01*
X190379010Y-113254469D01*
X190378951Y-113433585D01*
X190375058Y-113613759D01*
X190367438Y-113784728D01*
X190356198Y-113936225D01*
X190342329Y-114052350D01*
X190254149Y-114494544D01*
X190129018Y-114920631D01*
X189968071Y-115328274D01*
X189772445Y-115715141D01*
X189543275Y-116078895D01*
X189281698Y-116417201D01*
X189088657Y-116628693D01*
X188929336Y-116792035D01*
X189051863Y-116920493D01*
X189101083Y-116970619D01*
X189134536Y-117007236D01*
X189149948Y-117036912D01*
X189145044Y-117066217D01*
X189117552Y-117101719D01*
X189065195Y-117149990D01*
X188985700Y-117217597D01*
X188933667Y-117261903D01*
X188572250Y-117544135D01*
X188186013Y-117793614D01*
X187778162Y-118009310D01*
X187351906Y-118190196D01*
X186910453Y-118335244D01*
X186457011Y-118443424D01*
X185994788Y-118513709D01*
X185526991Y-118545069D01*
X185056830Y-118536477D01*
X184975500Y-118530862D01*
X184858706Y-118521430D01*
X184754124Y-118512084D01*
X184670307Y-118503658D01*
X184615808Y-118496982D01*
X184602070Y-118494523D01*
X184576746Y-118492069D01*
X184561085Y-118506152D01*
X184550648Y-118545502D01*
X184541633Y-118613343D01*
X184534857Y-118682446D01*
X184532307Y-118732345D01*
X184534063Y-118750693D01*
X184564266Y-118760813D01*
X184629987Y-118771035D01*
X184724415Y-118780891D01*
X184840737Y-118789916D01*
X184972141Y-118797644D01*
X185111818Y-118803609D01*
X185252953Y-118807344D01*
X185377667Y-118808412D01*
X185715414Y-118801030D01*
X186026232Y-118778878D01*
X186323428Y-118740349D01*
X186620308Y-118683835D01*
X186838167Y-118631919D01*
X187278083Y-118499876D01*
X187706791Y-118332904D01*
X188119315Y-118133678D01*
X188510676Y-117904875D01*
X188875898Y-117649170D01*
X189210004Y-117369239D01*
X189241771Y-117339774D01*
X189348791Y-117239557D01*
X189790917Y-117685583D01*
X189685084Y-117781613D01*
X189376686Y-118041898D01*
X189039800Y-118290788D01*
X188684992Y-118521472D01*
X188322825Y-118727140D01*
X187963863Y-118900982D01*
X187917667Y-118921025D01*
X187517182Y-119074415D01*
X187090693Y-119204324D01*
X186649156Y-119307906D01*
X186203533Y-119382314D01*
X186086750Y-119396713D01*
X185956474Y-119408280D01*
X185795994Y-119417467D01*
X185616533Y-119424081D01*
X185429311Y-119427931D01*
X185245550Y-119428826D01*
X185076470Y-119426573D01*
X184933292Y-119420981D01*
X184880250Y-119417320D01*
X184347213Y-119353665D01*
X183829123Y-119251370D01*
X183324741Y-119109953D01*
X182832830Y-118928932D01*
X182352150Y-118707824D01*
X181881465Y-118446148D01*
X181419535Y-118143421D01*
X181388412Y-118120683D01*
X184615998Y-118120683D01*
X184626058Y-118137532D01*
X184659556Y-118151650D01*
X184720749Y-118163778D01*
X184813895Y-118174654D01*
X184943252Y-118185019D01*
X185012294Y-118189581D01*
X185142230Y-118197712D01*
X185240964Y-118203287D01*
X185319552Y-118206310D01*
X185389048Y-118206780D01*
X185460508Y-118204701D01*
X185544986Y-118200074D01*
X185653537Y-118192900D01*
X185700854Y-118189679D01*
X186134709Y-118143827D01*
X186557180Y-118066834D01*
X186960083Y-117960394D01*
X187198000Y-117879788D01*
X187290629Y-117843410D01*
X187396733Y-117798402D01*
X187509682Y-117747966D01*
X187622845Y-117695306D01*
X187729592Y-117643625D01*
X187823292Y-117596128D01*
X187897315Y-117556017D01*
X187945030Y-117526497D01*
X187960000Y-117511626D01*
X187949946Y-117487691D01*
X187922849Y-117435446D01*
X187883312Y-117362964D01*
X187835935Y-117278318D01*
X187785320Y-117189581D01*
X187736068Y-117104824D01*
X187692780Y-117032121D01*
X187660056Y-116979545D01*
X187643278Y-116955932D01*
X187618983Y-116958010D01*
X187565325Y-116976694D01*
X187490371Y-117008814D01*
X187407065Y-117048747D01*
X187011508Y-117223773D01*
X186602357Y-117359196D01*
X186182337Y-117454471D01*
X185754175Y-117509056D01*
X185320597Y-117522409D01*
X185081334Y-117512017D01*
X184969070Y-117503601D01*
X184869876Y-117495079D01*
X184792413Y-117487274D01*
X184745341Y-117481014D01*
X184737375Y-117479258D01*
X184706669Y-117477778D01*
X184700334Y-117485825D01*
X184697498Y-117512246D01*
X184689711Y-117572487D01*
X184678057Y-117658468D01*
X184663616Y-117762109D01*
X184658331Y-117799460D01*
X184643135Y-117908025D01*
X184630339Y-118002433D01*
X184621044Y-118074338D01*
X184616349Y-118115391D01*
X184615998Y-118120683D01*
X181388412Y-118120683D01*
X181202542Y-117984890D01*
X181123196Y-117923616D01*
X181057984Y-117870671D01*
X181013465Y-117831564D01*
X180996198Y-117811809D01*
X180996167Y-117811478D01*
X181008600Y-117788088D01*
X181041822Y-117740566D01*
X181089719Y-117677466D01*
X181112874Y-117648210D01*
X181229582Y-117502517D01*
X181096999Y-117387048D01*
X180747016Y-117064126D01*
X180398872Y-116707952D01*
X180060175Y-116327213D01*
X179738532Y-115930596D01*
X179441551Y-115526787D01*
X179347677Y-115389591D01*
X179295770Y-115309733D01*
X179234050Y-115210804D01*
X179165928Y-115098702D01*
X179094816Y-114979325D01*
X179024127Y-114858569D01*
X178957271Y-114742331D01*
X178897661Y-114636510D01*
X178848708Y-114547001D01*
X178813825Y-114479703D01*
X178796422Y-114440511D01*
X178795093Y-114434464D01*
X178812886Y-114416168D01*
X178860797Y-114384114D01*
X178930962Y-114343239D01*
X178994571Y-114309190D01*
X179094462Y-114254710D01*
X179156444Y-114213939D01*
X179182227Y-114185674D01*
X179182547Y-114176899D01*
X179173264Y-114159296D01*
X179157987Y-114151788D01*
X179130228Y-114156278D01*
X179083502Y-114174671D01*
X179011322Y-114208870D01*
X178921834Y-114253434D01*
X178835626Y-114295980D01*
X178763259Y-114330358D01*
X178713098Y-114352679D01*
X178694155Y-114359267D01*
X178679892Y-114341120D01*
X178651297Y-114290972D01*
X178611771Y-114215262D01*
X178564715Y-114120431D01*
X178532063Y-114052350D01*
X178506532Y-113999455D01*
X179496914Y-113999455D01*
X179503388Y-114029101D01*
X179529296Y-114089072D01*
X179571631Y-114173799D01*
X179627386Y-114277712D01*
X179693555Y-114395240D01*
X179767130Y-114520813D01*
X179845104Y-114648862D01*
X179862523Y-114676767D01*
X180207867Y-115192598D01*
X180575120Y-115673919D01*
X180963565Y-116119909D01*
X181372484Y-116529745D01*
X181801159Y-116902603D01*
X181811084Y-116910606D01*
X181869670Y-116955621D01*
X181949164Y-117013674D01*
X182043452Y-117080616D01*
X182146424Y-117152298D01*
X182251968Y-117224570D01*
X182353972Y-117293282D01*
X182446325Y-117354286D01*
X182522915Y-117403432D01*
X182577631Y-117436571D01*
X182604362Y-117449553D01*
X182604961Y-117449600D01*
X182621866Y-117432372D01*
X182653669Y-117386105D01*
X182694997Y-117318924D01*
X182720195Y-117275376D01*
X182760631Y-117199871D01*
X182788616Y-117139362D01*
X182800564Y-117102115D01*
X182798712Y-117094421D01*
X182767440Y-117077875D01*
X182708524Y-117041441D01*
X182628820Y-116989758D01*
X182535186Y-116927464D01*
X182434480Y-116859202D01*
X182333561Y-116789609D01*
X182239284Y-116723325D01*
X182158510Y-116664991D01*
X182109187Y-116627914D01*
X181748483Y-116327279D01*
X181393243Y-115988495D01*
X181047007Y-115615706D01*
X180713315Y-115213053D01*
X180395706Y-114784678D01*
X180097722Y-114334724D01*
X179970615Y-114125701D01*
X179799975Y-113837277D01*
X179651946Y-113907950D01*
X179580712Y-113944077D01*
X179526225Y-113975696D01*
X179498408Y-113996951D01*
X179496914Y-113999455D01*
X178506532Y-113999455D01*
X178482000Y-113948632D01*
X178437340Y-113859893D01*
X178401471Y-113792570D01*
X178377780Y-113753102D01*
X178370554Y-113745434D01*
X178351848Y-113762230D01*
X178320801Y-113805493D01*
X178295875Y-113845975D01*
X178234253Y-113946884D01*
X178153587Y-114071579D01*
X178060564Y-114210229D01*
X177961871Y-114353005D01*
X177864197Y-114490077D01*
X177781809Y-114601603D01*
X177449227Y-115015203D01*
X177103088Y-115393948D01*
X176744643Y-115737075D01*
X176375143Y-116043817D01*
X175995841Y-116313410D01*
X175607986Y-116545089D01*
X175212831Y-116738089D01*
X174811627Y-116891644D01*
X174405626Y-117004990D01*
X173996078Y-117077362D01*
X173688375Y-117104240D01*
X173418500Y-117117473D01*
X173418500Y-116649833D01*
X173635459Y-116634995D01*
X174042110Y-116587987D01*
X174437607Y-116502994D01*
X174823225Y-116379397D01*
X175200241Y-116216576D01*
X175569931Y-116013914D01*
X175933572Y-115770790D01*
X176292441Y-115486586D01*
X176620075Y-115187730D01*
X176862474Y-114939927D01*
X177104149Y-114668937D01*
X177338494Y-114383268D01*
X177558906Y-114091425D01*
X177758781Y-113801916D01*
X177931515Y-113523247D01*
X177983276Y-113431777D01*
X178021064Y-113363463D01*
X178050258Y-113311233D01*
X178065486Y-113284690D01*
X178066356Y-113283344D01*
X178086372Y-113286530D01*
X178115687Y-113299963D01*
X178149317Y-113314216D01*
X178159834Y-113313007D01*
X178149134Y-113289437D01*
X178119784Y-113236945D01*
X178075909Y-113162296D01*
X178021632Y-113072253D01*
X177961077Y-112973580D01*
X177898369Y-112873041D01*
X177837632Y-112777401D01*
X177782990Y-112693423D01*
X177771750Y-112676517D01*
X177524298Y-112323478D01*
X177269855Y-111996470D01*
X177000502Y-111686500D01*
X176708320Y-111384573D01*
X176624392Y-111305857D01*
X178604804Y-111305857D01*
X178616587Y-111333026D01*
X178648746Y-111385329D01*
X178695860Y-111454333D01*
X178734009Y-111506940D01*
X178805278Y-111605391D01*
X178885932Y-111720528D01*
X178962693Y-111833281D01*
X178991979Y-111877475D01*
X179057700Y-111976509D01*
X179101714Y-112039809D01*
X179124365Y-112067782D01*
X179125995Y-112060832D01*
X179106946Y-112019365D01*
X179099414Y-112004475D01*
X179075856Y-111964362D01*
X179033254Y-111897293D01*
X178976819Y-111811009D01*
X178911761Y-111713251D01*
X178843293Y-111611758D01*
X178776623Y-111514271D01*
X178716964Y-111428532D01*
X178669525Y-111362280D01*
X178647005Y-111332434D01*
X178618965Y-111303837D01*
X178605102Y-111303304D01*
X178604804Y-111305857D01*
X176624392Y-111305857D01*
X176385390Y-111081698D01*
X176302459Y-111007891D01*
X176192237Y-110910104D01*
X176093326Y-110821191D01*
X176009950Y-110745045D01*
X175946330Y-110685557D01*
X175906692Y-110646617D01*
X175895000Y-110632469D01*
X175908269Y-110613711D01*
X175945213Y-110568166D01*
X176001535Y-110500825D01*
X176072941Y-110416676D01*
X176155135Y-110320710D01*
X176243822Y-110217918D01*
X176334706Y-110113289D01*
X176423492Y-110011813D01*
X176505884Y-109918481D01*
X176577587Y-109838282D01*
X176598728Y-109814937D01*
X176640937Y-109768523D01*
X176400260Y-109610721D01*
X176016702Y-109380474D01*
X175616357Y-109180559D01*
X175208019Y-109015042D01*
X174889584Y-108912421D01*
X174764018Y-108878434D01*
X174636309Y-108847015D01*
X174513459Y-108819546D01*
X174402471Y-108797412D01*
X174310348Y-108781995D01*
X174244094Y-108774679D01*
X174210710Y-108776847D01*
X174209049Y-108777996D01*
X174198818Y-108805147D01*
X174186637Y-108861350D01*
X174176784Y-108923150D01*
X174166142Y-108992777D01*
X174156293Y-109043480D01*
X174150158Y-109062665D01*
X174127030Y-109064038D01*
X174069807Y-109061671D01*
X173986513Y-109056043D01*
X173885176Y-109047633D01*
X173859333Y-109045280D01*
X173634844Y-109031951D01*
X173386685Y-109029975D01*
X173131826Y-109038848D01*
X172887236Y-109058066D01*
X172720000Y-109079078D01*
X172282721Y-109166035D01*
X171857712Y-109292323D01*
X171447938Y-109456618D01*
X171056364Y-109657599D01*
X170685952Y-109893940D01*
X170395578Y-110116951D01*
X170198405Y-110281299D01*
X170283967Y-110366862D01*
X170369530Y-110452424D01*
X170420711Y-110410887D01*
X170459059Y-110379662D01*
X170520157Y-110329800D01*
X170593992Y-110269477D01*
X170638154Y-110233368D01*
X170939231Y-110011711D01*
X171270058Y-109813053D01*
X171622689Y-109641134D01*
X171989173Y-109499697D01*
X172361563Y-109392483D01*
X172480654Y-109366019D01*
X172596855Y-109342485D01*
X172678245Y-109328310D01*
X172731460Y-109324238D01*
X172763135Y-109331016D01*
X172779906Y-109349390D01*
X172788411Y-109380104D01*
X172791735Y-109400975D01*
X172812911Y-109546041D01*
X172829198Y-109666979D01*
X172840064Y-109759298D01*
X172844977Y-109818506D01*
X172843760Y-109839895D01*
X172820834Y-109847355D01*
X172765332Y-109861010D01*
X172686190Y-109878756D01*
X172613644Y-109894114D01*
X172298943Y-109974731D01*
X171980083Y-110085604D01*
X171668786Y-110221692D01*
X171376774Y-110377952D01*
X171153667Y-110522028D01*
X171003626Y-110638010D01*
X170842497Y-110779452D01*
X170679266Y-110937195D01*
X170522916Y-111102076D01*
X170382431Y-111264936D01*
X170266797Y-111416613D01*
X170244729Y-111448850D01*
X170128075Y-111634702D01*
X170021051Y-111826679D01*
X169929268Y-112013802D01*
X169858338Y-112185093D01*
X169837330Y-112245885D01*
X169811723Y-112315724D01*
X169787640Y-112364993D01*
X169769809Y-112384241D01*
X169768185Y-112384040D01*
X169698859Y-112360847D01*
X169616164Y-112335557D01*
X169529968Y-112310868D01*
X169450136Y-112289476D01*
X169386536Y-112274079D01*
X169349035Y-112267373D01*
X169343299Y-112267912D01*
X169332444Y-112294897D01*
X169316197Y-112354995D01*
X169296354Y-112439604D01*
X169274711Y-112540119D01*
X169253067Y-112647934D01*
X169233217Y-112754448D01*
X169216958Y-112851054D01*
X169207252Y-112919378D01*
X169194356Y-113067935D01*
X169187583Y-113244264D01*
X169186792Y-113434268D01*
X169191843Y-113623851D01*
X169202596Y-113798918D01*
X169217370Y-113934810D01*
X169228888Y-114027113D01*
X169235395Y-114103337D01*
X169236276Y-114154138D01*
X169232857Y-114169952D01*
X169205818Y-114180364D01*
X169150997Y-114194680D01*
X169082381Y-114209904D01*
X169013955Y-114223038D01*
X168959704Y-114231086D01*
X168942015Y-114232267D01*
X168925559Y-114212078D01*
X168908607Y-114155379D01*
X168892056Y-114067967D01*
X168876808Y-113955644D01*
X168863760Y-113824207D01*
X168853812Y-113679457D01*
X168852570Y-113655475D01*
X168840271Y-113406767D01*
X168374382Y-113406767D01*
X168388354Y-113162123D01*
X168434659Y-112714465D01*
X168521074Y-112278131D01*
X168646410Y-111855152D01*
X168809474Y-111447564D01*
X169009077Y-111057400D01*
X169244027Y-110686693D01*
X169513134Y-110337477D01*
X169815207Y-110011787D01*
X170149055Y-109711655D01*
X170513487Y-109439115D01*
X170603334Y-109379360D01*
X170727344Y-109302664D01*
X170870304Y-109220555D01*
X171020240Y-109139416D01*
X171165175Y-109065627D01*
X171293135Y-109005573D01*
X171349459Y-108981703D01*
X171413190Y-108952334D01*
X171457249Y-108924830D01*
X171471167Y-108907540D01*
X171463478Y-108872857D01*
X171444426Y-108818668D01*
X171438695Y-108804553D01*
X171410812Y-108736623D01*
X171378219Y-108655596D01*
X171365187Y-108622730D01*
X171324152Y-108518623D01*
X171646368Y-108414354D01*
X171992247Y-108311816D01*
X172319559Y-108235244D01*
X172641170Y-108182247D01*
X172969945Y-108150436D01*
X173106292Y-108143109D01*
X173418500Y-108129840D01*
X173418500Y-107691767D01*
X173529625Y-107692102D01*
X173603708Y-107694334D01*
X173707668Y-107700072D01*
X173829286Y-107708373D01*
X173956339Y-107718295D01*
X174076607Y-107728895D01*
X174177868Y-107739233D01*
X174236234Y-107746571D01*
X174323717Y-107759331D01*
X174348803Y-107572091D01*
X174360850Y-107485630D01*
X174371640Y-107414310D01*
X174379460Y-107369226D01*
X174381447Y-107360781D01*
X174405460Y-107351851D01*
X174464592Y-107353750D01*
G36*
X176359913Y-116640468D02*
G01*
X176408321Y-116708325D01*
X176445120Y-116764262D01*
X176464258Y-116798918D01*
X176465665Y-116804017D01*
X176448139Y-116827785D01*
X176398313Y-116867507D01*
X176321636Y-116919973D01*
X176223557Y-116981976D01*
X176109526Y-117050307D01*
X175984990Y-117121760D01*
X175855399Y-117193125D01*
X175726202Y-117261195D01*
X175602848Y-117322762D01*
X175514000Y-117364292D01*
X175165096Y-117508853D01*
X174827257Y-117621839D01*
X174489859Y-117705651D01*
X174142280Y-117762692D01*
X173773899Y-117795365D01*
X173571959Y-117803486D01*
X173122167Y-117815026D01*
X173122167Y-117428434D01*
X173429918Y-117428434D01*
X173875476Y-117408382D01*
X174309360Y-117348036D01*
X174732509Y-117247111D01*
X175145864Y-117105321D01*
X175550363Y-116922382D01*
X175946945Y-116698008D01*
X176048438Y-116633134D01*
X176254793Y-116498085D01*
X176359913Y-116640468D01*
G37*
X176359913Y-116640468D02*
X176408321Y-116708325D01*
X176445120Y-116764262D01*
X176464258Y-116798918D01*
X176465665Y-116804017D01*
X176448139Y-116827785D01*
X176398313Y-116867507D01*
X176321636Y-116919973D01*
X176223557Y-116981976D01*
X176109526Y-117050307D01*
X175984990Y-117121760D01*
X175855399Y-117193125D01*
X175726202Y-117261195D01*
X175602848Y-117322762D01*
X175514000Y-117364292D01*
X175165096Y-117508853D01*
X174827257Y-117621839D01*
X174489859Y-117705651D01*
X174142280Y-117762692D01*
X173773899Y-117795365D01*
X173571959Y-117803486D01*
X173122167Y-117815026D01*
X173122167Y-117428434D01*
X173429918Y-117428434D01*
X173875476Y-117408382D01*
X174309360Y-117348036D01*
X174732509Y-117247111D01*
X175145864Y-117105321D01*
X175550363Y-116922382D01*
X175946945Y-116698008D01*
X176048438Y-116633134D01*
X176254793Y-116498085D01*
X176359913Y-116640468D01*
G36*
X189585872Y-109695473D02*
G01*
X189908197Y-110071907D01*
X190190701Y-110462587D01*
X190433617Y-110868060D01*
X190637178Y-111288873D01*
X190801619Y-111725573D01*
X190927173Y-112178706D01*
X191014073Y-112648819D01*
X191062554Y-113136459D01*
X191063496Y-113152743D01*
X191077852Y-113406767D01*
X190947676Y-113406767D01*
X190874842Y-113404966D01*
X190835088Y-113397826D01*
X190819252Y-113382742D01*
X190817414Y-113369725D01*
X190814126Y-113276831D01*
X190805382Y-113153152D01*
X190792352Y-113009716D01*
X190776203Y-112857550D01*
X190758104Y-112707682D01*
X190739221Y-112571139D01*
X190721233Y-112461695D01*
X190618337Y-112018931D01*
X190475851Y-111587508D01*
X190295493Y-111170787D01*
X190078982Y-110772125D01*
X189828034Y-110394882D01*
X189544369Y-110042416D01*
X189408470Y-109894834D01*
X189201275Y-109678966D01*
X189297126Y-109583115D01*
X189392977Y-109487263D01*
X189585872Y-109695473D01*
G37*
X189585872Y-109695473D02*
X189908197Y-110071907D01*
X190190701Y-110462587D01*
X190433617Y-110868060D01*
X190637178Y-111288873D01*
X190801619Y-111725573D01*
X190927173Y-112178706D01*
X191014073Y-112648819D01*
X191062554Y-113136459D01*
X191063496Y-113152743D01*
X191077852Y-113406767D01*
X190947676Y-113406767D01*
X190874842Y-113404966D01*
X190835088Y-113397826D01*
X190819252Y-113382742D01*
X190817414Y-113369725D01*
X190814126Y-113276831D01*
X190805382Y-113153152D01*
X190792352Y-113009716D01*
X190776203Y-112857550D01*
X190758104Y-112707682D01*
X190739221Y-112571139D01*
X190721233Y-112461695D01*
X190618337Y-112018931D01*
X190475851Y-111587508D01*
X190295493Y-111170787D01*
X190078982Y-110772125D01*
X189828034Y-110394882D01*
X189544369Y-110042416D01*
X189408470Y-109894834D01*
X189201275Y-109678966D01*
X189297126Y-109583115D01*
X189392977Y-109487263D01*
X189585872Y-109695473D01*
G36*
X125044225Y-49248478D02*
G01*
X125227021Y-49256295D01*
X125394640Y-49270647D01*
X125507750Y-49286397D01*
X125730542Y-49333330D01*
X125983684Y-49402090D01*
X126262422Y-49490846D01*
X126561997Y-49597773D01*
X126877652Y-49721040D01*
X127204632Y-49858820D01*
X127538178Y-50009284D01*
X127873535Y-50170605D01*
X128079500Y-50274871D01*
X128520673Y-50501912D01*
X128997780Y-50746110D01*
X129508566Y-51006350D01*
X130050780Y-51281516D01*
X130622167Y-51570492D01*
X131220475Y-51872164D01*
X131843451Y-52185414D01*
X132488842Y-52509127D01*
X133154394Y-52842188D01*
X133837854Y-53183481D01*
X134536970Y-53531890D01*
X135249488Y-53886299D01*
X135973155Y-54245592D01*
X136705719Y-54608655D01*
X137444925Y-54974370D01*
X138188521Y-55341623D01*
X138934253Y-55709297D01*
X139679869Y-56076277D01*
X140423116Y-56441447D01*
X141161740Y-56803691D01*
X141893489Y-57161895D01*
X142616109Y-57514941D01*
X143327347Y-57861714D01*
X144024950Y-58201098D01*
X144706665Y-58531978D01*
X145370238Y-58853238D01*
X146013418Y-59163762D01*
X146589750Y-59441194D01*
X147173530Y-59721616D01*
X147735649Y-59991279D01*
X148279175Y-60251628D01*
X148807174Y-60504107D01*
X149322716Y-60750161D01*
X149828866Y-60991236D01*
X150328692Y-61228775D01*
X150825262Y-61464224D01*
X151321644Y-61699027D01*
X151820904Y-61934629D01*
X152326110Y-62172475D01*
X152840330Y-62414010D01*
X153366631Y-62660678D01*
X153908080Y-62913924D01*
X154467745Y-63175193D01*
X155048694Y-63445930D01*
X155653993Y-63727579D01*
X156286711Y-64021586D01*
X156949914Y-64329394D01*
X157646670Y-64652450D01*
X158093834Y-64859635D01*
X159138627Y-65343796D01*
X160146156Y-65811078D01*
X161117706Y-66262088D01*
X162054569Y-66697430D01*
X162958032Y-67117709D01*
X163829385Y-67523531D01*
X164669915Y-67915499D01*
X165480912Y-68294220D01*
X166263665Y-68660297D01*
X167019462Y-69014337D01*
X167749593Y-69356944D01*
X168455345Y-69688724D01*
X169138008Y-70010280D01*
X169798871Y-70322218D01*
X170439222Y-70625144D01*
X171060349Y-70919662D01*
X171663543Y-71206377D01*
X172250091Y-71485894D01*
X172821283Y-71758818D01*
X173378407Y-72025754D01*
X173922752Y-72287308D01*
X174169917Y-72406320D01*
X175149148Y-72879502D01*
X176089583Y-73336714D01*
X176991560Y-73778134D01*
X177855413Y-74203941D01*
X178681480Y-74614313D01*
X179470097Y-75009428D01*
X180221600Y-75389464D01*
X180936327Y-75754601D01*
X181614613Y-76105016D01*
X182256796Y-76440887D01*
X182863210Y-76762394D01*
X183434194Y-77069714D01*
X183970083Y-77363025D01*
X184471215Y-77642507D01*
X184937924Y-77908338D01*
X185370549Y-78160695D01*
X185769425Y-78399758D01*
X186134889Y-78625704D01*
X186467277Y-78838712D01*
X186766926Y-79038960D01*
X187028667Y-79222653D01*
X187334415Y-79453375D01*
X187600011Y-79675358D01*
X187825191Y-79888353D01*
X188009693Y-80092114D01*
X188152460Y-80285167D01*
X188200354Y-80360453D01*
X188235148Y-80422098D01*
X188260965Y-80481232D01*
X188281930Y-80548985D01*
X188302166Y-80636487D01*
X188325016Y-80750834D01*
X188361907Y-80946555D01*
X188392119Y-81122266D01*
X188416697Y-81287251D01*
X188436683Y-81450791D01*
X188453125Y-81622171D01*
X188467065Y-81810673D01*
X188479548Y-82025580D01*
X188488169Y-82200750D01*
X188499453Y-82431887D01*
X188510367Y-82625769D01*
X188521657Y-82787461D01*
X188534069Y-82922025D01*
X188548349Y-83034527D01*
X188565244Y-83130031D01*
X188585499Y-83213599D01*
X188609862Y-83290297D01*
X188639078Y-83365188D01*
X188670077Y-83435099D01*
X188705474Y-83508945D01*
X188740380Y-83572179D01*
X188779070Y-83628273D01*
X188825821Y-83680700D01*
X188884910Y-83732931D01*
X188960612Y-83788439D01*
X189057204Y-83850696D01*
X189178962Y-83923174D01*
X189330163Y-84009346D01*
X189481631Y-84094061D01*
X189824977Y-84294751D01*
X190132002Y-84495098D01*
X190408422Y-84699756D01*
X190659953Y-84913379D01*
X190892311Y-85140621D01*
X191111213Y-85386136D01*
X191195455Y-85489456D01*
X191411189Y-85775559D01*
X191609704Y-86071351D01*
X191792575Y-86380529D01*
X191961378Y-86706791D01*
X192117687Y-87053834D01*
X192263078Y-87425355D01*
X192399125Y-87825051D01*
X192527404Y-88256620D01*
X192649489Y-88723759D01*
X192742938Y-89121914D01*
X192805340Y-89406544D01*
X192865535Y-89695041D01*
X192923803Y-89989518D01*
X192980424Y-90292089D01*
X193035679Y-90604869D01*
X193089847Y-90929970D01*
X193143209Y-91269507D01*
X193196045Y-91625593D01*
X193248635Y-92000343D01*
X193301260Y-92395870D01*
X193354199Y-92814288D01*
X193407732Y-93257712D01*
X193462140Y-93728253D01*
X193517703Y-94228028D01*
X193574700Y-94759148D01*
X193633413Y-95323729D01*
X193694121Y-95923884D01*
X193757105Y-96561727D01*
X193822644Y-97239372D01*
X193832800Y-97345500D01*
X193857076Y-97599232D01*
X193882568Y-97865177D01*
X193908549Y-98135780D01*
X193934292Y-98403483D01*
X193959068Y-98660729D01*
X193982152Y-98899963D01*
X194002815Y-99113628D01*
X194020330Y-99294166D01*
X194023289Y-99324584D01*
X194069953Y-99819564D01*
X194111150Y-100291485D01*
X194147598Y-100750658D01*
X194180015Y-101207394D01*
X194209115Y-101672003D01*
X194235618Y-102154797D01*
X194260239Y-102666087D01*
X194268335Y-102848834D01*
X194274748Y-103023558D01*
X194280586Y-103236663D01*
X194285833Y-103484199D01*
X194290470Y-103762216D01*
X194294482Y-104066765D01*
X194297850Y-104393897D01*
X194300559Y-104739662D01*
X194302590Y-105100111D01*
X194303927Y-105471294D01*
X194304553Y-105849262D01*
X194304451Y-106230066D01*
X194303604Y-106609756D01*
X194301994Y-106984382D01*
X194299604Y-107349996D01*
X194296418Y-107702648D01*
X194292419Y-108038388D01*
X194291135Y-108129917D01*
X194286795Y-108425755D01*
X194282720Y-108692211D01*
X194278734Y-108933601D01*
X194274661Y-109154244D01*
X194270323Y-109358455D01*
X194265543Y-109550553D01*
X194260145Y-109734853D01*
X194253951Y-109915674D01*
X194246784Y-110097332D01*
X194238469Y-110284145D01*
X194228827Y-110480429D01*
X194217682Y-110690502D01*
X194204857Y-110918681D01*
X194190176Y-111169283D01*
X194173460Y-111446624D01*
X194154534Y-111755023D01*
X194133219Y-112098797D01*
X194119393Y-112320917D01*
X194098698Y-112667028D01*
X194082327Y-112974100D01*
X194070335Y-113245210D01*
X194062778Y-113483438D01*
X194059709Y-113691861D01*
X194061183Y-113873558D01*
X194067256Y-114031607D01*
X194077981Y-114169085D01*
X194093415Y-114289072D01*
X194113610Y-114394646D01*
X194138623Y-114488884D01*
X194159032Y-114549765D01*
X194199833Y-114652158D01*
X194245945Y-114746156D01*
X194302328Y-114839166D01*
X194373947Y-114938591D01*
X194465764Y-115051835D01*
X194582741Y-115186303D01*
X194594569Y-115199584D01*
X194729930Y-115355658D01*
X194839986Y-115493309D01*
X194931368Y-115621905D01*
X195010707Y-115750812D01*
X195084633Y-115889397D01*
X195088971Y-115898084D01*
X195222179Y-116208091D01*
X195318063Y-116525378D01*
X195376592Y-116846104D01*
X195397735Y-117166431D01*
X195381458Y-117482518D01*
X195327731Y-117790526D01*
X195236522Y-118086615D01*
X195109398Y-118364000D01*
X194942000Y-118630084D01*
X194744127Y-118868747D01*
X194518640Y-119077585D01*
X194268400Y-119254189D01*
X193996270Y-119396154D01*
X193786902Y-119476056D01*
X193692018Y-119505559D01*
X193600953Y-119530076D01*
X193508354Y-119550153D01*
X193408867Y-119566336D01*
X193297137Y-119579173D01*
X193167812Y-119589211D01*
X193015537Y-119596995D01*
X192834959Y-119603074D01*
X192620724Y-119607993D01*
X192468550Y-119610703D01*
X191696016Y-119623417D01*
X191668766Y-119877417D01*
X191653949Y-120009905D01*
X191635253Y-120168202D01*
X191613428Y-120346641D01*
X191589224Y-120539560D01*
X191563394Y-120741294D01*
X191536688Y-120946178D01*
X191509856Y-121148548D01*
X191483649Y-121342740D01*
X191458819Y-121523090D01*
X191436116Y-121683933D01*
X191416291Y-121819606D01*
X191400096Y-121924443D01*
X191388513Y-121991574D01*
X191296747Y-122386205D01*
X191173591Y-122788491D01*
X191022190Y-123192331D01*
X190845686Y-123591623D01*
X190647223Y-123980266D01*
X190429943Y-124352157D01*
X190196990Y-124701194D01*
X189951507Y-125021276D01*
X189696636Y-125306301D01*
X189664039Y-125339396D01*
X189395929Y-125579810D01*
X189098602Y-125791971D01*
X188771534Y-125976089D01*
X188414201Y-126132373D01*
X188026079Y-126261030D01*
X187606643Y-126362271D01*
X187155371Y-126436303D01*
X186822179Y-126471885D01*
X186697866Y-126479696D01*
X186542445Y-126485084D01*
X186363181Y-126488163D01*
X186167338Y-126489047D01*
X185962181Y-126487852D01*
X185754974Y-126484690D01*
X185552981Y-126479677D01*
X185363468Y-126472928D01*
X185193698Y-126464557D01*
X185050936Y-126454677D01*
X184942446Y-126443405D01*
X184933167Y-126442120D01*
X184529337Y-126368665D01*
X184150914Y-126266108D01*
X183789983Y-126131464D01*
X183438632Y-125961744D01*
X183088949Y-125753962D01*
X183059917Y-125735020D01*
X182750673Y-125518230D01*
X182476097Y-125295120D01*
X182230721Y-125059517D01*
X182009074Y-124805250D01*
X181805688Y-124526144D01*
X181615092Y-124216028D01*
X181464727Y-123934688D01*
X181337037Y-123676831D01*
X181228330Y-123444665D01*
X181136127Y-123230268D01*
X181057946Y-123025720D01*
X180991306Y-122823099D01*
X180933725Y-122614485D01*
X180882723Y-122391957D01*
X180835819Y-122147594D01*
X180790531Y-121873475D01*
X180764029Y-121697750D01*
X180743012Y-121555717D01*
X180722494Y-121419056D01*
X180703812Y-121296520D01*
X180688301Y-121196864D01*
X180677300Y-121128841D01*
X180675958Y-121120959D01*
X180653154Y-120988667D01*
X180487918Y-120988667D01*
X180368078Y-120990767D01*
X180208448Y-120996931D01*
X180011357Y-121006956D01*
X179779133Y-121020640D01*
X179514105Y-121037778D01*
X179218600Y-121058169D01*
X178894946Y-121081608D01*
X178545472Y-121107893D01*
X178172507Y-121136821D01*
X177778378Y-121168188D01*
X177365413Y-121201792D01*
X176935942Y-121237429D01*
X176492291Y-121274896D01*
X176036790Y-121313990D01*
X175571766Y-121354509D01*
X175099548Y-121396248D01*
X174622463Y-121439006D01*
X174142842Y-121482578D01*
X173663010Y-121526762D01*
X173185297Y-121571354D01*
X172712031Y-121616152D01*
X172245540Y-121660952D01*
X171788153Y-121705552D01*
X171342197Y-121749747D01*
X170910000Y-121793336D01*
X170493892Y-121836115D01*
X170096200Y-121877881D01*
X169719253Y-121918430D01*
X169365378Y-121957561D01*
X169312167Y-121963551D01*
X169002447Y-121999199D01*
X168697706Y-122035610D01*
X168400895Y-122072354D01*
X168114964Y-122109003D01*
X167842862Y-122145128D01*
X167587540Y-122180302D01*
X167351947Y-122214094D01*
X167139032Y-122246078D01*
X166951747Y-122275824D01*
X166793041Y-122302904D01*
X166665864Y-122326890D01*
X166573165Y-122347353D01*
X166517895Y-122363864D01*
X166504189Y-122371422D01*
X166493684Y-122402746D01*
X166482976Y-122475122D01*
X166472161Y-122587270D01*
X166461338Y-122737908D01*
X166450602Y-122925758D01*
X166440053Y-123149539D01*
X166434036Y-123295834D01*
X166410563Y-123802321D01*
X166380815Y-124271747D01*
X166343849Y-124709048D01*
X166298720Y-125119158D01*
X166244486Y-125507013D01*
X166180203Y-125877547D01*
X166104929Y-126235697D01*
X166017720Y-126586397D01*
X165917632Y-126934582D01*
X165803723Y-127285188D01*
X165675048Y-127643150D01*
X165533886Y-128005417D01*
X165322846Y-128518855D01*
X165119069Y-128993295D01*
X164921284Y-129431204D01*
X164728219Y-129835046D01*
X164538600Y-130207288D01*
X164351155Y-130550395D01*
X164164613Y-130866834D01*
X163977700Y-131159071D01*
X163789146Y-131429571D01*
X163716610Y-131527425D01*
X163583926Y-131696210D01*
X163430220Y-131879595D01*
X163261099Y-132071728D01*
X163082170Y-132266760D01*
X162899042Y-132458842D01*
X162717322Y-132642122D01*
X162542617Y-132810752D01*
X162380535Y-132958880D01*
X162236683Y-133080658D01*
X162200167Y-133109444D01*
X161775217Y-133419033D01*
X161315497Y-133718903D01*
X160828143Y-134005323D01*
X160320294Y-134274561D01*
X159799085Y-134522887D01*
X159271655Y-134746568D01*
X158745141Y-134941875D01*
X158604766Y-134989029D01*
X158277605Y-135091162D01*
X157960163Y-135178821D01*
X157644301Y-135253547D01*
X157321877Y-135316881D01*
X156984749Y-135370364D01*
X156624777Y-135415538D01*
X156233819Y-135453945D01*
X156083000Y-135466484D01*
X155989214Y-135472392D01*
X155862756Y-135478083D01*
X155710974Y-135483421D01*
X155541215Y-135488272D01*
X155360826Y-135492499D01*
X155177155Y-135495968D01*
X154997550Y-135498543D01*
X154829358Y-135500088D01*
X154679927Y-135500469D01*
X154556604Y-135499549D01*
X154466736Y-135497193D01*
X154453167Y-135496524D01*
X153892803Y-135458024D01*
X153366817Y-135405816D01*
X152869123Y-135338626D01*
X152393633Y-135255185D01*
X151934261Y-135154222D01*
X151484921Y-135034465D01*
X151039524Y-134894644D01*
X150591986Y-134733486D01*
X150357417Y-134641242D01*
X150189990Y-134569795D01*
X149999292Y-134482060D01*
X149795694Y-134383299D01*
X149589565Y-134278776D01*
X149391279Y-134173755D01*
X149211204Y-134073500D01*
X149059713Y-133983274D01*
X149054150Y-133979794D01*
X148553854Y-133641864D01*
X148068015Y-133264559D01*
X147597206Y-132848493D01*
X147141999Y-132394283D01*
X146702966Y-131902544D01*
X146280680Y-131373893D01*
X145875713Y-130808944D01*
X145488637Y-130208313D01*
X145379393Y-130026834D01*
X145191732Y-129705921D01*
X145026692Y-129413255D01*
X144881870Y-129142938D01*
X144754860Y-128889071D01*
X144643260Y-128645756D01*
X144544665Y-128407094D01*
X144456673Y-128167188D01*
X144376878Y-127920139D01*
X144302878Y-127660049D01*
X144232269Y-127381020D01*
X144162646Y-127077153D01*
X144145844Y-127000000D01*
X144110651Y-126839232D01*
X144073994Y-126675755D01*
X144037163Y-126514952D01*
X144001447Y-126362207D01*
X143968138Y-126222902D01*
X143938525Y-126102421D01*
X143913898Y-126006146D01*
X143895547Y-125939460D01*
X143884762Y-125907747D01*
X143883704Y-125906149D01*
X143850381Y-125893492D01*
X143778415Y-125881184D01*
X143671497Y-125869399D01*
X143533318Y-125858313D01*
X143367569Y-125848101D01*
X143177940Y-125838939D01*
X142968123Y-125831002D01*
X142741807Y-125824465D01*
X142502683Y-125819504D01*
X142254442Y-125816293D01*
X142000775Y-125815009D01*
X141964834Y-125814993D01*
X141757672Y-125815432D01*
X141548678Y-125816748D01*
X141335214Y-125819029D01*
X141114645Y-125822358D01*
X140884335Y-125826821D01*
X140641650Y-125832505D01*
X140383953Y-125839494D01*
X140108608Y-125847874D01*
X139812981Y-125857730D01*
X139494436Y-125869148D01*
X139150336Y-125882213D01*
X138778047Y-125897011D01*
X138374932Y-125913627D01*
X137938357Y-125932148D01*
X137465686Y-125952657D01*
X136954282Y-125975241D01*
X136768417Y-125983528D01*
X136407426Y-125999635D01*
X136083014Y-126014051D01*
X135789471Y-126027016D01*
X135521088Y-126038770D01*
X135272155Y-126049553D01*
X135036960Y-126059604D01*
X134809796Y-126069163D01*
X134584951Y-126078470D01*
X134356715Y-126087765D01*
X134119379Y-126097287D01*
X133867233Y-126107276D01*
X133594567Y-126117972D01*
X133295670Y-126129615D01*
X133212417Y-126132847D01*
X132692210Y-126153752D01*
X132211508Y-126174617D01*
X131767481Y-126195639D01*
X131357300Y-126217019D01*
X130978137Y-126238955D01*
X130627163Y-126261647D01*
X130301550Y-126285295D01*
X129998468Y-126310096D01*
X129715089Y-126336250D01*
X129448585Y-126363956D01*
X129196126Y-126393414D01*
X128954884Y-126424823D01*
X128843970Y-126440402D01*
X128507161Y-126493879D01*
X128196370Y-126553473D01*
X127914007Y-126618466D01*
X127662478Y-126688140D01*
X127444192Y-126761778D01*
X127261555Y-126838661D01*
X127116976Y-126918072D01*
X127033267Y-126980341D01*
X126992220Y-127020802D01*
X126952264Y-127070874D01*
X126910703Y-127135518D01*
X126864840Y-127219692D01*
X126811979Y-127328358D01*
X126749422Y-127466475D01*
X126674473Y-127639003D01*
X126671978Y-127644824D01*
X126540418Y-127942864D01*
X126415031Y-128206193D01*
X126291686Y-128441160D01*
X126166253Y-128654115D01*
X126034601Y-128851407D01*
X125892600Y-129039385D01*
X125736120Y-129224399D01*
X125561029Y-129412798D01*
X125445926Y-129529504D01*
X125131853Y-129823124D01*
X124795388Y-130102452D01*
X124441782Y-130364355D01*
X124076287Y-130605697D01*
X123704154Y-130823345D01*
X123330635Y-131014162D01*
X122960981Y-131175014D01*
X122600446Y-131302768D01*
X122364500Y-131368805D01*
X122082913Y-131432369D01*
X121764068Y-131493254D01*
X121412996Y-131550693D01*
X121034730Y-131603919D01*
X120634301Y-131652162D01*
X120247834Y-131691752D01*
X120106474Y-131702554D01*
X119933995Y-131711683D01*
X119736978Y-131719111D01*
X119522003Y-131724805D01*
X119295650Y-131728735D01*
X119064500Y-131730870D01*
X118835135Y-131731179D01*
X118614133Y-131729631D01*
X118408078Y-131726195D01*
X118223548Y-131720840D01*
X118067124Y-131713536D01*
X117945388Y-131704252D01*
X117930084Y-131702638D01*
X117548070Y-131650572D01*
X117172164Y-131578719D01*
X116790687Y-131484445D01*
X116391962Y-131365117D01*
X116300250Y-131335069D01*
X115789252Y-131149983D01*
X115282692Y-130936770D01*
X114785168Y-130698230D01*
X114301276Y-130437159D01*
X113835611Y-130156356D01*
X113392770Y-129858619D01*
X112977350Y-129546745D01*
X112593946Y-129223533D01*
X112247156Y-128891780D01*
X112191125Y-128833632D01*
X111998398Y-128621832D01*
X111827003Y-128412293D01*
X111672743Y-128198115D01*
X111531424Y-127972396D01*
X111398848Y-127728236D01*
X111270822Y-127458734D01*
X111143148Y-127156989D01*
X111090050Y-127022661D01*
X110996481Y-126784949D01*
X110913820Y-126582750D01*
X110839603Y-126411406D01*
X110771367Y-126266264D01*
X110706649Y-126142669D01*
X110642985Y-126035965D01*
X110577914Y-125941498D01*
X110508971Y-125854612D01*
X110433694Y-125770653D01*
X110419862Y-125756099D01*
X110289756Y-125630634D01*
X110157873Y-125526850D01*
X110017453Y-125441720D01*
X109861737Y-125372215D01*
X109683966Y-125315306D01*
X109477379Y-125267966D01*
X109241167Y-125228043D01*
X109186655Y-125221053D01*
X109122165Y-125215001D01*
X109044340Y-125209807D01*
X108949826Y-125205391D01*
X108835264Y-125201671D01*
X108697299Y-125198568D01*
X108532575Y-125196000D01*
X108337735Y-125193886D01*
X108109423Y-125192147D01*
X107844283Y-125190700D01*
X107653667Y-125189892D01*
X107319799Y-125188226D01*
X107024283Y-125185820D01*
X106763140Y-125182435D01*
X106532390Y-125177831D01*
X106328055Y-125171770D01*
X106146155Y-125164013D01*
X105982713Y-125154322D01*
X105833748Y-125142458D01*
X105695282Y-125128181D01*
X105563337Y-125111253D01*
X105433932Y-125091435D01*
X105303090Y-125068489D01*
X105166831Y-125042176D01*
X105156000Y-125040003D01*
X104705158Y-124931165D01*
X104282939Y-124791391D01*
X103888390Y-124620031D01*
X103520557Y-124416436D01*
X103178485Y-124179955D01*
X102861219Y-123909938D01*
X102567807Y-123605736D01*
X102297293Y-123266700D01*
X102082121Y-122946584D01*
X101971833Y-122749031D01*
X101865327Y-122520148D01*
X101766770Y-122270938D01*
X101680331Y-122012403D01*
X101610176Y-121755543D01*
X101580985Y-121623667D01*
X101547775Y-121441432D01*
X101523445Y-121264175D01*
X101507329Y-121082205D01*
X101498761Y-120885834D01*
X101497075Y-120665375D01*
X101500514Y-120453430D01*
X101505104Y-120296191D01*
X101511228Y-120152899D01*
X101519620Y-120016653D01*
X101531018Y-119880551D01*
X101546156Y-119737692D01*
X101565770Y-119581174D01*
X101590596Y-119404095D01*
X101621369Y-119199554D01*
X101658824Y-118960649D01*
X101661247Y-118945408D01*
X101703656Y-118670787D01*
X101737392Y-118432366D01*
X101762697Y-118224962D01*
X101779813Y-118043391D01*
X101788982Y-117882469D01*
X101790448Y-117737013D01*
X101784453Y-117601840D01*
X101771239Y-117471766D01*
X101751049Y-117341606D01*
X101739205Y-117278861D01*
X101686844Y-116991071D01*
X101635776Y-116664139D01*
X101586260Y-116301241D01*
X101538553Y-115905557D01*
X101492913Y-115480264D01*
X101449598Y-115028540D01*
X101408865Y-114553563D01*
X101370972Y-114058510D01*
X101336177Y-113546561D01*
X101304738Y-113020893D01*
X101276912Y-112484683D01*
X101252957Y-111941109D01*
X101233130Y-111393351D01*
X101217817Y-110849834D01*
X101209159Y-110414614D01*
X101205172Y-110010893D01*
X101205555Y-109832221D01*
X103229319Y-109832221D01*
X103230675Y-110244620D01*
X103235656Y-110671282D01*
X103244218Y-111106628D01*
X103256316Y-111545078D01*
X103271905Y-111981054D01*
X103290941Y-112408977D01*
X103293403Y-112458500D01*
X103317840Y-112910723D01*
X103345331Y-113358393D01*
X103375556Y-113798329D01*
X103408197Y-114227352D01*
X103442936Y-114642280D01*
X103479455Y-115039933D01*
X103517435Y-115417129D01*
X103556557Y-115770690D01*
X103596503Y-116097433D01*
X103636955Y-116394178D01*
X103677595Y-116657745D01*
X103718103Y-116884953D01*
X103753244Y-117051667D01*
X103773040Y-117140801D01*
X103787590Y-117218396D01*
X103797679Y-117293804D01*
X103804092Y-117376377D01*
X103807611Y-117475468D01*
X103809023Y-117600427D01*
X103809168Y-117718417D01*
X103807805Y-117875902D01*
X103803555Y-118023082D01*
X103795716Y-118167208D01*
X103783586Y-118315529D01*
X103766462Y-118475296D01*
X103743641Y-118653760D01*
X103714419Y-118858171D01*
X103678095Y-119095779D01*
X103671699Y-119136584D01*
X103633461Y-119382872D01*
X103601928Y-119593416D01*
X103576393Y-119774148D01*
X103556149Y-119931003D01*
X103540487Y-120069914D01*
X103528699Y-120196815D01*
X103520079Y-120317641D01*
X103513918Y-120438324D01*
X103512644Y-120470084D01*
X103512400Y-120801605D01*
X103539151Y-121103576D01*
X103594339Y-121380197D01*
X103679403Y-121635668D01*
X103795785Y-121874190D01*
X103944926Y-122099963D01*
X104128268Y-122317187D01*
X104156553Y-122346954D01*
X104335547Y-122516463D01*
X104524718Y-122661898D01*
X104729008Y-122785469D01*
X104953360Y-122889386D01*
X105202717Y-122975859D01*
X105482022Y-123047100D01*
X105796218Y-123105318D01*
X105880969Y-123118122D01*
X105936097Y-123125136D01*
X106001089Y-123131376D01*
X106079100Y-123136930D01*
X106173287Y-123141890D01*
X106286806Y-123146346D01*
X106422814Y-123150387D01*
X106584467Y-123154105D01*
X106774921Y-123157589D01*
X106997333Y-123160930D01*
X107254860Y-123164218D01*
X107550657Y-123167543D01*
X107643084Y-123168517D01*
X107957100Y-123171921D01*
X108232449Y-123175299D01*
X108472797Y-123178846D01*
X108681809Y-123182757D01*
X108863152Y-123187228D01*
X109020490Y-123192454D01*
X109157490Y-123198631D01*
X109277818Y-123205952D01*
X109385139Y-123214615D01*
X109483119Y-123224815D01*
X109575423Y-123236745D01*
X109665718Y-123250603D01*
X109757669Y-123266583D01*
X109854942Y-123284881D01*
X109865584Y-123286939D01*
X110188646Y-123361814D01*
X110500132Y-123458000D01*
X110790556Y-123572145D01*
X111050432Y-123700899D01*
X111072084Y-123713137D01*
X111283778Y-123848589D01*
X111502120Y-124014758D01*
X111717518Y-124203268D01*
X111920383Y-124405742D01*
X112096140Y-124607592D01*
X112220156Y-124768903D01*
X112333687Y-124932795D01*
X112439923Y-125105263D01*
X112542055Y-125292300D01*
X112643275Y-125499899D01*
X112746773Y-125734055D01*
X112855740Y-126000759D01*
X112905194Y-126127259D01*
X112998676Y-126364148D01*
X113083270Y-126566285D01*
X113162289Y-126739458D01*
X113239046Y-126889451D01*
X113316853Y-127022051D01*
X113399023Y-127143043D01*
X113488870Y-127258214D01*
X113589706Y-127373349D01*
X113663639Y-127451871D01*
X113968393Y-127744216D01*
X114308483Y-128026945D01*
X114678460Y-128297314D01*
X115072876Y-128552577D01*
X115486282Y-128789988D01*
X115913230Y-129006802D01*
X116348272Y-129200275D01*
X116785958Y-129367660D01*
X117220840Y-129506212D01*
X117647469Y-129613185D01*
X118060398Y-129685835D01*
X118110000Y-129692270D01*
X118208296Y-129701131D01*
X118341764Y-129708224D01*
X118503282Y-129713550D01*
X118685724Y-129717108D01*
X118881968Y-129718897D01*
X119084890Y-129718917D01*
X119287366Y-129717168D01*
X119482272Y-129713649D01*
X119662484Y-129708360D01*
X119820879Y-129701301D01*
X119950333Y-129692470D01*
X119951500Y-129692369D01*
X120223369Y-129666476D01*
X120499590Y-129635846D01*
X120774044Y-129601412D01*
X121040611Y-129564105D01*
X121293170Y-129524858D01*
X121525601Y-129484603D01*
X121731784Y-129444273D01*
X121905598Y-129404798D01*
X121994084Y-129381261D01*
X122195112Y-129312074D01*
X122417504Y-129215110D01*
X122654735Y-129094442D01*
X122900285Y-128954145D01*
X123147629Y-128798292D01*
X123390245Y-128630957D01*
X123621611Y-128456214D01*
X123835205Y-128278138D01*
X123990959Y-128134006D01*
X124120067Y-128004108D01*
X124232099Y-127881674D01*
X124331159Y-127760309D01*
X124421352Y-127633617D01*
X124506785Y-127495204D01*
X124591562Y-127338674D01*
X124679790Y-127157633D01*
X124775573Y-126945686D01*
X124821428Y-126840391D01*
X124882317Y-126701244D01*
X124943519Y-126564767D01*
X125001148Y-126439376D01*
X125051319Y-126333490D01*
X125090149Y-126255523D01*
X125099460Y-126238000D01*
X125268288Y-125959492D01*
X125454332Y-125715035D01*
X125662698Y-125499732D01*
X125898492Y-125308681D01*
X126166822Y-125136984D01*
X126348184Y-125039898D01*
X126566102Y-124938903D01*
X126804148Y-124845101D01*
X127064143Y-124758186D01*
X127347909Y-124677850D01*
X127657267Y-124603785D01*
X127994041Y-124535683D01*
X128360050Y-124473235D01*
X128757118Y-124416135D01*
X129187065Y-124364074D01*
X129651714Y-124316745D01*
X130152886Y-124273839D01*
X130692403Y-124235048D01*
X131272086Y-124200065D01*
X131339167Y-124196394D01*
X131446579Y-124190644D01*
X131553911Y-124185064D01*
X131664163Y-124179526D01*
X131780338Y-124173904D01*
X131905438Y-124168069D01*
X132042465Y-124161893D01*
X132194420Y-124155249D01*
X132364305Y-124148008D01*
X132555123Y-124140044D01*
X132769876Y-124131227D01*
X133011564Y-124121432D01*
X133283191Y-124110529D01*
X133587758Y-124098391D01*
X133928268Y-124084890D01*
X134307721Y-124069899D01*
X134355417Y-124068018D01*
X134530831Y-124060969D01*
X134741633Y-124052283D01*
X134980923Y-124042255D01*
X135241799Y-124031180D01*
X135517361Y-124019354D01*
X135800708Y-124007073D01*
X136084940Y-123994633D01*
X136363154Y-123982330D01*
X136567334Y-123973208D01*
X137071581Y-123950679D01*
X137536371Y-123930171D01*
X137964525Y-123911593D01*
X138358867Y-123894859D01*
X138722218Y-123879877D01*
X139057401Y-123866560D01*
X139367240Y-123854818D01*
X139654557Y-123844564D01*
X139922173Y-123835707D01*
X140172913Y-123828159D01*
X140409598Y-123821831D01*
X140635052Y-123816635D01*
X140852096Y-123812480D01*
X141063554Y-123809279D01*
X141272248Y-123806943D01*
X141481001Y-123805382D01*
X141692636Y-123804508D01*
X141909974Y-123804232D01*
X141933084Y-123804234D01*
X142362155Y-123805784D01*
X142751441Y-123810597D01*
X143103400Y-123819195D01*
X143420490Y-123832100D01*
X143705171Y-123849836D01*
X143959901Y-123872924D01*
X144187139Y-123901887D01*
X144389344Y-123937247D01*
X144568974Y-123979528D01*
X144728488Y-124029251D01*
X144870345Y-124086938D01*
X144997004Y-124153113D01*
X145110923Y-124228298D01*
X145214561Y-124313015D01*
X145310377Y-124407787D01*
X145400830Y-124513136D01*
X145427140Y-124546689D01*
X145506579Y-124656438D01*
X145578820Y-124771326D01*
X145645311Y-124895443D01*
X145707499Y-125032877D01*
X145766834Y-125187718D01*
X145824763Y-125364057D01*
X145882736Y-125565982D01*
X145942201Y-125797582D01*
X146004605Y-126062949D01*
X146071147Y-126365000D01*
X146134074Y-126652107D01*
X146192373Y-126903407D01*
X146248132Y-127124893D01*
X146303439Y-127322556D01*
X146360382Y-127502386D01*
X146421050Y-127670375D01*
X146487530Y-127832514D01*
X146561911Y-127994795D01*
X146646281Y-128163208D01*
X146742728Y-128343745D01*
X146791769Y-128432594D01*
X147037617Y-128863813D01*
X147275801Y-129258940D01*
X147509807Y-129622724D01*
X147743119Y-129959914D01*
X147979221Y-130275257D01*
X148221598Y-130573501D01*
X148473735Y-130859395D01*
X148739115Y-131137687D01*
X148878681Y-131276267D01*
X149227880Y-131600165D01*
X149576958Y-131888537D01*
X149932321Y-132145237D01*
X150300373Y-132374125D01*
X150687520Y-132579058D01*
X151100168Y-132763892D01*
X151544721Y-132932485D01*
X151737180Y-132997640D01*
X152230236Y-133145257D01*
X152724243Y-133264248D01*
X153226783Y-133355869D01*
X153745437Y-133421378D01*
X154287790Y-133462035D01*
X154611917Y-133474610D01*
X155014507Y-133480010D01*
X155411604Y-133475015D01*
X155792492Y-133459951D01*
X156146454Y-133435143D01*
X156259152Y-133424508D01*
X156539311Y-133393801D01*
X156787117Y-133361125D01*
X157012546Y-133324591D01*
X157225578Y-133282305D01*
X157436191Y-133232378D01*
X157654364Y-133172917D01*
X157776334Y-133136933D01*
X158169534Y-133007143D01*
X158573804Y-132852625D01*
X158982042Y-132677016D01*
X159387144Y-132483952D01*
X159782009Y-132277071D01*
X160159534Y-132060010D01*
X160512616Y-131836404D01*
X160834153Y-131609892D01*
X160983084Y-131494918D01*
X161125468Y-131373340D01*
X161285057Y-131223520D01*
X161455472Y-131052369D01*
X161630334Y-130866802D01*
X161803265Y-130673730D01*
X161967885Y-130480067D01*
X162117816Y-130292725D01*
X162225265Y-130148752D01*
X162381358Y-129916702D01*
X162545659Y-129644450D01*
X162717569Y-129333202D01*
X162896487Y-128984165D01*
X163081814Y-128598544D01*
X163272949Y-128177545D01*
X163469295Y-127722374D01*
X163649457Y-127285750D01*
X163813860Y-126859313D01*
X163952393Y-126454679D01*
X164067640Y-126062302D01*
X164162179Y-125672637D01*
X164238592Y-125276138D01*
X164294908Y-124898613D01*
X164313520Y-124751104D01*
X164329641Y-124611302D01*
X164343732Y-124472977D01*
X164356253Y-124329898D01*
X164367664Y-124175836D01*
X164378427Y-124004559D01*
X164389001Y-123809838D01*
X164399847Y-123585441D01*
X164411424Y-123325140D01*
X164411775Y-123317000D01*
X164423077Y-123064198D01*
X164433740Y-122848575D01*
X164444206Y-122664988D01*
X164454917Y-122508296D01*
X164466314Y-122373358D01*
X164478838Y-122255031D01*
X164492932Y-122148176D01*
X164509036Y-122047650D01*
X164527593Y-121948312D01*
X164530601Y-121933263D01*
X164600241Y-121654005D01*
X164691018Y-121407835D01*
X164805474Y-121189815D01*
X164946152Y-120995001D01*
X165093715Y-120838784D01*
X165221050Y-120733347D01*
X165368100Y-120640192D01*
X165539046Y-120557641D01*
X165738070Y-120484014D01*
X165969355Y-120417633D01*
X166237082Y-120356818D01*
X166348834Y-120334897D01*
X166592338Y-120291217D01*
X166867450Y-120246241D01*
X167175033Y-120199867D01*
X167515950Y-120151994D01*
X167891064Y-120102519D01*
X168301238Y-120051341D01*
X168747334Y-119998358D01*
X169230217Y-119943469D01*
X169750750Y-119886572D01*
X170309794Y-119827564D01*
X170908214Y-119766345D01*
X171546872Y-119702813D01*
X172226631Y-119636866D01*
X172466000Y-119613996D01*
X173294066Y-119535723D01*
X174080309Y-119462534D01*
X174824932Y-119394416D01*
X175528138Y-119331353D01*
X176190127Y-119273331D01*
X176811103Y-119220335D01*
X177391268Y-119172349D01*
X177930825Y-119129360D01*
X178429975Y-119091352D01*
X178888921Y-119058310D01*
X179307866Y-119030220D01*
X179687012Y-119007067D01*
X180026561Y-118988836D01*
X180326715Y-118975512D01*
X180587677Y-118967080D01*
X180809649Y-118963526D01*
X180992834Y-118964835D01*
X181137434Y-118970991D01*
X181188739Y-118975218D01*
X181412330Y-119008325D01*
X181605539Y-119062516D01*
X181776574Y-119141471D01*
X181933644Y-119248867D01*
X182065084Y-119368061D01*
X182164710Y-119475741D01*
X182253006Y-119588215D01*
X182331371Y-119709445D01*
X182401205Y-119843395D01*
X182463907Y-119994028D01*
X182520877Y-120165307D01*
X182573512Y-120361194D01*
X182623213Y-120585654D01*
X182671380Y-120842649D01*
X182719410Y-121136142D01*
X182741919Y-121285000D01*
X182779486Y-121531744D01*
X182814671Y-121743458D01*
X182849578Y-121927209D01*
X182886310Y-122090061D01*
X182926972Y-122239080D01*
X182973667Y-122381333D01*
X183028501Y-122523883D01*
X183093576Y-122673798D01*
X183170997Y-122838142D01*
X183255247Y-123008776D01*
X183381669Y-123243311D01*
X183510826Y-123443660D01*
X183649539Y-123617773D01*
X183804631Y-123773600D01*
X183982923Y-123919091D01*
X184118250Y-124014407D01*
X184338010Y-124151928D01*
X184544300Y-124259114D01*
X184747978Y-124340274D01*
X184959905Y-124399718D01*
X185190941Y-124441753D01*
X185197750Y-124442716D01*
X185303201Y-124453496D01*
X185442711Y-124461760D01*
X185608544Y-124467555D01*
X185792964Y-124470927D01*
X185988235Y-124471922D01*
X186186622Y-124470587D01*
X186380390Y-124466967D01*
X186561802Y-124461109D01*
X186723122Y-124453059D01*
X186856616Y-124442863D01*
X186944000Y-124432298D01*
X187257211Y-124373732D01*
X187531677Y-124302208D01*
X187769166Y-124217058D01*
X187971443Y-124117613D01*
X188140274Y-124003203D01*
X188191110Y-123960113D01*
X188340542Y-123807970D01*
X188492570Y-123620096D01*
X188643951Y-123402690D01*
X188791441Y-123161951D01*
X188931796Y-122904076D01*
X189061772Y-122635263D01*
X189178125Y-122361712D01*
X189277612Y-122089620D01*
X189356987Y-121825186D01*
X189397296Y-121655417D01*
X189410581Y-121582561D01*
X189427921Y-121472988D01*
X189448636Y-121332047D01*
X189472045Y-121165090D01*
X189497469Y-120977464D01*
X189524226Y-120774522D01*
X189551636Y-120561613D01*
X189579019Y-120344087D01*
X189605694Y-120127293D01*
X189630981Y-119916584D01*
X189654200Y-119717307D01*
X189674670Y-119534814D01*
X189691711Y-119374455D01*
X189704642Y-119241579D01*
X189705520Y-119231834D01*
X189728147Y-119020573D01*
X189756105Y-118843833D01*
X189791496Y-118693925D01*
X189836422Y-118563160D01*
X189892986Y-118443850D01*
X189944917Y-118356313D01*
X190091242Y-118166654D01*
X190270306Y-118000184D01*
X190477394Y-117860359D01*
X190707791Y-117750637D01*
X190828084Y-117708811D01*
X190921466Y-117682024D01*
X191014655Y-117659966D01*
X191112893Y-117642206D01*
X191221425Y-117628312D01*
X191345495Y-117617852D01*
X191490345Y-117610396D01*
X191661221Y-117605512D01*
X191863365Y-117602768D01*
X192102022Y-117601733D01*
X192129834Y-117601706D01*
X192371559Y-117601106D01*
X192574850Y-117599300D01*
X192743603Y-117595712D01*
X192881712Y-117589762D01*
X192993072Y-117580873D01*
X193081579Y-117568466D01*
X193151127Y-117551965D01*
X193205612Y-117530790D01*
X193248929Y-117504364D01*
X193284971Y-117472109D01*
X193317636Y-117433447D01*
X193324442Y-117424445D01*
X193345998Y-117388790D01*
X193359201Y-117345281D01*
X193365926Y-117283069D01*
X193368046Y-117191307D01*
X193368084Y-117171752D01*
X193366539Y-117073110D01*
X193359834Y-117001226D01*
X193344863Y-116940572D01*
X193318520Y-116875622D01*
X193301715Y-116840000D01*
X193246646Y-116745598D01*
X193166519Y-116635130D01*
X193069107Y-116519255D01*
X193062477Y-116511917D01*
X192830603Y-116240391D01*
X192635367Y-115975781D01*
X192473147Y-115711920D01*
X192340323Y-115442638D01*
X192233273Y-115161767D01*
X192192631Y-115030250D01*
X192154920Y-114894053D01*
X192124873Y-114770340D01*
X192101510Y-114651114D01*
X192083849Y-114528378D01*
X192070913Y-114394135D01*
X192061719Y-114240389D01*
X192055289Y-114059143D01*
X192051249Y-113876667D01*
X192049474Y-113770350D01*
X192048285Y-113670667D01*
X192047824Y-113574242D01*
X192048234Y-113477701D01*
X192049659Y-113377668D01*
X192052240Y-113270770D01*
X192056122Y-113153630D01*
X192061445Y-113022874D01*
X192068354Y-112875127D01*
X192076991Y-112707015D01*
X192087499Y-112515161D01*
X192100021Y-112296192D01*
X192114700Y-112046733D01*
X192131678Y-111763408D01*
X192151098Y-111442843D01*
X192161426Y-111273167D01*
X192176213Y-111028831D01*
X192189408Y-110805980D01*
X192201139Y-110600524D01*
X192211530Y-110408373D01*
X192220709Y-110225437D01*
X192228802Y-110047625D01*
X192235936Y-109870847D01*
X192242236Y-109691012D01*
X192247829Y-109504031D01*
X192252842Y-109305814D01*
X192257401Y-109092269D01*
X192261632Y-108859307D01*
X192265662Y-108602837D01*
X192269616Y-108318769D01*
X192273623Y-108003014D01*
X192277807Y-107651479D01*
X192280465Y-107420834D01*
X192286936Y-106771192D01*
X192290934Y-106159955D01*
X192292325Y-105583256D01*
X192290970Y-105037229D01*
X192286733Y-104518010D01*
X192279478Y-104021733D01*
X192269067Y-103544533D01*
X192255364Y-103082545D01*
X192238231Y-102631902D01*
X192217533Y-102188741D01*
X192193132Y-101749194D01*
X192164891Y-101309398D01*
X192132674Y-100865487D01*
X192096344Y-100413595D01*
X192055764Y-99949856D01*
X192010797Y-99470407D01*
X191992428Y-99282250D01*
X191975172Y-99106439D01*
X191954713Y-98896628D01*
X191931838Y-98660964D01*
X191907333Y-98407591D01*
X191881986Y-98144655D01*
X191856582Y-97880303D01*
X191831909Y-97622678D01*
X191812529Y-97419584D01*
X191789548Y-97179006D01*
X191765569Y-96929261D01*
X191741310Y-96677757D01*
X191717492Y-96431903D01*
X191694833Y-96199106D01*
X191674052Y-95986775D01*
X191655869Y-95802318D01*
X191641968Y-95662750D01*
X191562852Y-94896150D01*
X191483416Y-94170823D01*
X191403452Y-93485711D01*
X191322753Y-92839754D01*
X191241112Y-92231893D01*
X191158322Y-91661069D01*
X191074177Y-91126222D01*
X190988468Y-90626293D01*
X190900990Y-90160223D01*
X190811535Y-89726952D01*
X190719897Y-89325422D01*
X190625867Y-88954572D01*
X190529240Y-88613344D01*
X190429809Y-88300678D01*
X190327365Y-88015515D01*
X190221703Y-87756795D01*
X190112615Y-87523460D01*
X190016393Y-87343148D01*
X189835972Y-87047434D01*
X189649798Y-86787849D01*
X189451685Y-86558190D01*
X189235447Y-86352255D01*
X188994900Y-86163841D01*
X188723858Y-85986745D01*
X188581227Y-85904004D01*
X188354410Y-85775934D01*
X188160962Y-85664134D01*
X187996547Y-85565621D01*
X187856833Y-85477413D01*
X187737485Y-85396527D01*
X187634169Y-85319982D01*
X187542550Y-85244794D01*
X187458295Y-85167981D01*
X187377070Y-85086560D01*
X187346853Y-85054602D01*
X187154343Y-84821089D01*
X186980997Y-84555711D01*
X186830568Y-84266030D01*
X186706809Y-83959610D01*
X186613473Y-83644014D01*
X186586630Y-83522594D01*
X186563900Y-83402204D01*
X186544929Y-83284709D01*
X186529029Y-83163001D01*
X186515512Y-83029972D01*
X186503689Y-82878516D01*
X186492871Y-82701526D01*
X186482371Y-82491892D01*
X186478505Y-82406367D01*
X186469289Y-82223369D01*
X186458043Y-82041291D01*
X186445314Y-81866218D01*
X186431645Y-81704230D01*
X186417583Y-81561411D01*
X186403672Y-81443843D01*
X186390457Y-81357608D01*
X186380718Y-81315158D01*
X186350938Y-81268134D01*
X186285524Y-81201121D01*
X186185649Y-81115044D01*
X186052485Y-81010825D01*
X185887205Y-80889388D01*
X185690982Y-80751658D01*
X185504667Y-80625100D01*
X185214473Y-80434650D01*
X184894996Y-80232922D01*
X184545266Y-80019367D01*
X184164313Y-79793436D01*
X183751167Y-79554579D01*
X183304855Y-79302247D01*
X182824409Y-79035892D01*
X182308858Y-78754962D01*
X181757231Y-78458911D01*
X181168557Y-78147187D01*
X180604584Y-77851902D01*
X180469717Y-77782137D01*
X180300253Y-77695302D01*
X180099547Y-77593076D01*
X179870958Y-77477137D01*
X179617842Y-77349163D01*
X179343556Y-77210834D01*
X179051458Y-77063828D01*
X178744904Y-76909824D01*
X178427252Y-76750499D01*
X178101859Y-76587533D01*
X177772082Y-76422603D01*
X177441278Y-76257390D01*
X177112805Y-76093571D01*
X176790018Y-75932824D01*
X176476277Y-75776829D01*
X176174937Y-75627263D01*
X175889356Y-75485806D01*
X175622891Y-75354136D01*
X175378898Y-75233932D01*
X175160737Y-75126871D01*
X174971762Y-75034633D01*
X174910750Y-75005005D01*
X174417938Y-74766318D01*
X173926686Y-74528875D01*
X173435481Y-74291961D01*
X172942810Y-74054867D01*
X172447162Y-73816879D01*
X171947023Y-73577287D01*
X171440882Y-73335377D01*
X170927226Y-73090439D01*
X170404542Y-72841761D01*
X169871318Y-72588629D01*
X169326042Y-72330334D01*
X168767201Y-72066162D01*
X168193283Y-71795403D01*
X167602775Y-71517343D01*
X166994165Y-71231272D01*
X166365940Y-70936477D01*
X165716589Y-70632247D01*
X165044598Y-70317869D01*
X164348455Y-69992632D01*
X163626647Y-69655824D01*
X162877663Y-69306733D01*
X162099990Y-68944647D01*
X161292115Y-68568854D01*
X160452526Y-68178643D01*
X159579710Y-67773302D01*
X158672155Y-67352118D01*
X157728349Y-66914380D01*
X157257750Y-66696206D01*
X156363188Y-66281273D01*
X155504221Y-65882301D01*
X154677849Y-65497865D01*
X153881069Y-65126539D01*
X153110878Y-64766899D01*
X152364275Y-64417518D01*
X151638258Y-64076971D01*
X150929825Y-63743833D01*
X150235973Y-63416678D01*
X149553701Y-63094081D01*
X148880007Y-62774617D01*
X148211888Y-62456859D01*
X147546342Y-62139384D01*
X146880368Y-61820764D01*
X146210963Y-61499575D01*
X145535126Y-61174392D01*
X144849853Y-60843788D01*
X144152144Y-60506339D01*
X143438996Y-60160619D01*
X142707407Y-59805203D01*
X141954375Y-59438665D01*
X141266334Y-59103217D01*
X140852092Y-58900848D01*
X140412390Y-58685536D01*
X139949699Y-58458511D01*
X139466492Y-58221002D01*
X138965241Y-57974238D01*
X138448419Y-57719448D01*
X137918496Y-57457863D01*
X137377947Y-57190711D01*
X136829242Y-56919221D01*
X136274854Y-56644624D01*
X135717256Y-56368148D01*
X135158920Y-56091023D01*
X134602317Y-55814478D01*
X134049920Y-55539743D01*
X133504201Y-55268047D01*
X132967633Y-55000618D01*
X132442687Y-54738688D01*
X131931837Y-54483484D01*
X131437553Y-54236237D01*
X130962309Y-53998175D01*
X130508577Y-53770528D01*
X130078828Y-53554526D01*
X129675535Y-53351397D01*
X129301171Y-53162372D01*
X128958207Y-52988679D01*
X128649116Y-52831548D01*
X128460500Y-52735275D01*
X128140834Y-52571863D01*
X127855880Y-52426399D01*
X127602696Y-52297483D01*
X127378342Y-52183715D01*
X127179877Y-52083695D01*
X127004359Y-51996021D01*
X126848848Y-51919293D01*
X126710403Y-51852110D01*
X126586083Y-51793073D01*
X126472947Y-51740779D01*
X126368053Y-51693830D01*
X126268462Y-51650824D01*
X126171232Y-51610360D01*
X126073422Y-51571039D01*
X125972091Y-51531459D01*
X125864298Y-51490219D01*
X125775796Y-51456737D01*
X125588485Y-51388684D01*
X125430284Y-51337768D01*
X125292472Y-51302127D01*
X125166327Y-51279902D01*
X125043129Y-51269231D01*
X124914155Y-51268255D01*
X124894832Y-51268796D01*
X124788513Y-51273012D01*
X124711455Y-51279617D01*
X124650587Y-51291479D01*
X124592839Y-51311467D01*
X124525141Y-51342448D01*
X124497586Y-51355970D01*
X124345301Y-51449815D01*
X124205256Y-51575617D01*
X124076184Y-51735265D01*
X123956814Y-51930649D01*
X123845880Y-52163657D01*
X123742113Y-52436180D01*
X123712122Y-52526138D01*
X123675279Y-52641622D01*
X123642493Y-52748839D01*
X123611700Y-52855501D01*
X123580835Y-52969323D01*
X123547832Y-53098016D01*
X123510627Y-53249294D01*
X123467155Y-53430869D01*
X123446084Y-53519917D01*
X123371999Y-53814759D01*
X123297376Y-54070688D01*
X123220303Y-54291103D01*
X123138866Y-54479402D01*
X123051153Y-54638984D01*
X122955250Y-54773246D01*
X122849245Y-54885587D01*
X122731225Y-54979406D01*
X122599277Y-55058101D01*
X122572703Y-55071511D01*
X122414801Y-55138262D01*
X122258259Y-55179835D01*
X122089986Y-55198630D01*
X121896889Y-55197044D01*
X121889692Y-55196659D01*
X121787151Y-55188867D01*
X121687763Y-55176045D01*
X121587204Y-55156641D01*
X121481153Y-55129106D01*
X121365286Y-55091890D01*
X121235281Y-55043441D01*
X121086815Y-54982210D01*
X120915565Y-54906646D01*
X120717209Y-54815199D01*
X120487424Y-54706320D01*
X120383701Y-54656558D01*
X120109544Y-54526375D01*
X119868845Y-54415951D01*
X119658288Y-54324071D01*
X119474560Y-54249518D01*
X119314346Y-54191075D01*
X119174332Y-54147525D01*
X119051204Y-54117653D01*
X118941648Y-54100241D01*
X118851716Y-54094215D01*
X118774468Y-54095422D01*
X118710337Y-54105417D01*
X118642932Y-54128349D01*
X118555859Y-54168366D01*
X118552783Y-54169868D01*
X118357962Y-54288307D01*
X118178377Y-54444864D01*
X118015281Y-54637701D01*
X117869928Y-54864979D01*
X117743569Y-55124859D01*
X117637459Y-55415502D01*
X117589263Y-55583667D01*
X117537999Y-55794860D01*
X117496160Y-56002983D01*
X117463346Y-56213728D01*
X117439155Y-56432785D01*
X117423185Y-56665846D01*
X117415033Y-56918602D01*
X117414300Y-57196743D01*
X117420582Y-57505962D01*
X117431845Y-57814169D01*
X117440200Y-58027823D01*
X117445075Y-58205244D01*
X117446075Y-58352418D01*
X117442805Y-58475332D01*
X117434871Y-58579974D01*
X117421876Y-58672331D01*
X117403425Y-58758389D01*
X117379124Y-58844136D01*
X117360005Y-58902537D01*
X117254933Y-59157731D01*
X117125157Y-59378584D01*
X116970702Y-59565069D01*
X116791593Y-59717162D01*
X116587854Y-59834840D01*
X116359511Y-59918076D01*
X116328821Y-59926163D01*
X116242891Y-59945834D01*
X116164867Y-59957791D01*
X116081206Y-59963061D01*
X115978364Y-59962673D01*
X115888284Y-59959609D01*
X115773840Y-59952931D01*
X115660533Y-59941699D01*
X115545335Y-59924886D01*
X115425221Y-59901462D01*
X115297162Y-59870400D01*
X115158133Y-59830671D01*
X115005106Y-59781247D01*
X114835056Y-59721099D01*
X114644955Y-59649199D01*
X114431776Y-59564518D01*
X114192494Y-59466029D01*
X113924081Y-59352702D01*
X113623511Y-59223510D01*
X113287757Y-59077424D01*
X113273417Y-59071156D01*
X112862394Y-58894341D01*
X112485842Y-58738453D01*
X112141843Y-58602788D01*
X111828480Y-58486640D01*
X111543835Y-58389304D01*
X111285992Y-58310073D01*
X111053032Y-58248242D01*
X111008584Y-58237747D01*
X110890090Y-58212140D01*
X110787499Y-58194951D01*
X110685721Y-58184567D01*
X110569666Y-58179379D01*
X110447667Y-58177845D01*
X110140750Y-58176584D01*
X109977643Y-58254328D01*
X109744131Y-58378461D01*
X109540874Y-58515334D01*
X109366110Y-58668041D01*
X109218080Y-58839675D01*
X109095022Y-59033330D01*
X108995174Y-59252098D01*
X108916777Y-59499073D01*
X108858068Y-59777349D01*
X108817288Y-60090018D01*
X108798829Y-60325000D01*
X108788891Y-60598576D01*
X108795100Y-60852206D01*
X108818828Y-61099533D01*
X108861444Y-61354200D01*
X108924318Y-61629852D01*
X108933442Y-61665582D01*
X109038923Y-62020807D01*
X109175547Y-62393925D01*
X109339898Y-62778381D01*
X109528557Y-63167621D01*
X109738109Y-63555090D01*
X109965136Y-63934233D01*
X110206220Y-64298495D01*
X110457945Y-64641322D01*
X110536987Y-64741451D01*
X110993852Y-65296622D01*
X111458276Y-65834990D01*
X111927078Y-66353285D01*
X112397073Y-66848238D01*
X112865079Y-67316581D01*
X113327912Y-67755045D01*
X113782391Y-68160361D01*
X114225330Y-68529261D01*
X114225917Y-68529731D01*
X114401044Y-68668606D01*
X114573144Y-68801761D01*
X114746080Y-68931850D01*
X114923717Y-69061525D01*
X115109918Y-69193440D01*
X115308548Y-69330248D01*
X115523470Y-69474601D01*
X115758548Y-69629154D01*
X116017645Y-69796557D01*
X116304627Y-69979466D01*
X116623356Y-70180533D01*
X116702417Y-70230162D01*
X117007937Y-70422823D01*
X117279608Y-70596473D01*
X117520307Y-70753158D01*
X117732909Y-70894923D01*
X117920292Y-71023816D01*
X118085332Y-71141881D01*
X118230904Y-71251165D01*
X118359885Y-71353714D01*
X118475152Y-71451573D01*
X118579580Y-71546789D01*
X118651211Y-71616392D01*
X118798902Y-71771640D01*
X118917115Y-71914898D01*
X119012827Y-72055698D01*
X119093014Y-72203571D01*
X119114291Y-72248985D01*
X119176183Y-72401485D01*
X119215169Y-72542418D01*
X119235012Y-72689691D01*
X119239603Y-72845084D01*
X119226419Y-73032321D01*
X119187044Y-73209661D01*
X119118749Y-73383483D01*
X119018801Y-73560163D01*
X118884467Y-73746079D01*
X118819668Y-73825444D01*
X118699574Y-73962073D01*
X118568382Y-74098707D01*
X118423659Y-74237194D01*
X118262971Y-74379383D01*
X118083885Y-74527122D01*
X117883967Y-74682258D01*
X117660783Y-74846639D01*
X117411901Y-75022115D01*
X117134888Y-75210532D01*
X116827308Y-75413739D01*
X116486730Y-75633584D01*
X116194417Y-75819183D01*
X115950718Y-75972989D01*
X115739471Y-76106392D01*
X115557305Y-76221546D01*
X115400847Y-76320606D01*
X115266728Y-76405728D01*
X115151575Y-76479065D01*
X115052018Y-76542773D01*
X114964686Y-76599005D01*
X114886208Y-76649918D01*
X114813211Y-76697665D01*
X114742326Y-76744401D01*
X114670182Y-76792281D01*
X114628084Y-76820323D01*
X114455315Y-76937809D01*
X114287277Y-77056389D01*
X114129513Y-77171872D01*
X113987569Y-77280066D01*
X113866990Y-77376779D01*
X113773323Y-77457818D01*
X113731293Y-77498254D01*
X113638837Y-77593111D01*
X113647188Y-77737930D01*
X113652316Y-77800176D01*
X113662069Y-77853987D01*
X113680048Y-77908934D01*
X113709851Y-77974587D01*
X113755081Y-78060516D01*
X113797232Y-78136750D01*
X113860422Y-78253395D01*
X113925703Y-78379581D01*
X113985092Y-78499567D01*
X114028057Y-78591834D01*
X114117189Y-78792917D01*
X114118636Y-79163334D01*
X114118526Y-79305629D01*
X114116371Y-79415290D01*
X114111333Y-79501999D01*
X114102574Y-79575437D01*
X114089255Y-79645286D01*
X114070537Y-79721228D01*
X114070208Y-79722473D01*
X114016316Y-79904926D01*
X113949409Y-80091333D01*
X113867668Y-80285055D01*
X113769271Y-80489457D01*
X113652398Y-80707901D01*
X113515229Y-80943749D01*
X113355944Y-81200366D01*
X113172720Y-81481114D01*
X112963739Y-81789355D01*
X112906172Y-81872667D01*
X112667416Y-82217552D01*
X112449574Y-82533711D01*
X112250433Y-82824896D01*
X112067782Y-83094858D01*
X111899409Y-83347348D01*
X111743102Y-83586119D01*
X111596648Y-83814922D01*
X111457836Y-84037508D01*
X111324454Y-84257630D01*
X111194290Y-84479038D01*
X111065132Y-84705484D01*
X110934768Y-84940720D01*
X110800986Y-85188498D01*
X110661574Y-85452569D01*
X110514320Y-85736685D01*
X110357012Y-86044596D01*
X110187439Y-86380056D01*
X110003388Y-86746815D01*
X109842338Y-87069084D01*
X109720815Y-87312449D01*
X109601709Y-87550755D01*
X109486823Y-87780407D01*
X109377961Y-87997810D01*
X109276925Y-88199371D01*
X109185517Y-88381494D01*
X109105541Y-88540587D01*
X109038800Y-88673055D01*
X108987097Y-88775303D01*
X108952233Y-88843738D01*
X108948948Y-88850127D01*
X108897776Y-88952943D01*
X108834942Y-89084653D01*
X108765133Y-89235105D01*
X108693039Y-89394144D01*
X108623347Y-89551618D01*
X108597093Y-89612127D01*
X108472635Y-89896752D01*
X108359961Y-90145074D01*
X108256983Y-90360788D01*
X108161616Y-90547586D01*
X108071774Y-90709164D01*
X107985369Y-90849214D01*
X107900316Y-90971432D01*
X107814529Y-91079510D01*
X107725920Y-91177144D01*
X107696243Y-91207167D01*
X107505948Y-91372122D01*
X107306920Y-91496988D01*
X107095330Y-91583721D01*
X106867349Y-91634281D01*
X106858616Y-91635474D01*
X106633995Y-91645326D01*
X106418455Y-91614991D01*
X106215139Y-91546195D01*
X106027186Y-91440666D01*
X105857738Y-91300131D01*
X105709937Y-91126316D01*
X105597686Y-90942210D01*
X105529542Y-90802307D01*
X105477689Y-90674717D01*
X105434067Y-90538259D01*
X105409836Y-90448543D01*
X105386170Y-90356670D01*
X105284103Y-90463124D01*
X105140852Y-90589276D01*
X104971716Y-90699758D01*
X104854375Y-90758419D01*
X104797682Y-90785311D01*
X104761221Y-90806384D01*
X104753833Y-90813842D01*
X104761060Y-90837514D01*
X104780213Y-90890159D01*
X104807504Y-90961442D01*
X104814411Y-90979074D01*
X104881841Y-91158108D01*
X104941581Y-91334458D01*
X104994448Y-91512702D01*
X105041260Y-91697419D01*
X105082836Y-91893187D01*
X105119992Y-92104585D01*
X105153548Y-92336191D01*
X105184320Y-92592585D01*
X105213126Y-92878345D01*
X105240785Y-93198049D01*
X105263509Y-93493167D01*
X105277639Y-93693327D01*
X105288752Y-93874912D01*
X105296515Y-94042513D01*
X105300596Y-94200720D01*
X105300662Y-94354124D01*
X105296379Y-94507315D01*
X105287416Y-94664886D01*
X105273440Y-94831425D01*
X105254117Y-95011525D01*
X105229116Y-95209776D01*
X105198102Y-95430768D01*
X105160745Y-95679092D01*
X105116710Y-95959340D01*
X105065666Y-96276102D01*
X105058707Y-96318917D01*
X105020598Y-96552172D01*
X104986059Y-96760199D01*
X104953999Y-96947913D01*
X104923329Y-97120228D01*
X104892960Y-97282059D01*
X104861801Y-97438321D01*
X104828764Y-97593929D01*
X104792758Y-97753796D01*
X104752693Y-97922838D01*
X104707481Y-98105969D01*
X104656031Y-98308104D01*
X104597254Y-98534158D01*
X104530060Y-98789044D01*
X104453359Y-99077679D01*
X104415754Y-99218750D01*
X104291382Y-99689430D01*
X104179180Y-100124150D01*
X104078349Y-100527249D01*
X103988093Y-100903067D01*
X103907616Y-101255941D01*
X103836119Y-101590212D01*
X103772807Y-101910219D01*
X103716881Y-102220300D01*
X103667546Y-102524794D01*
X103624004Y-102828041D01*
X103585459Y-103134380D01*
X103551113Y-103448149D01*
X103520169Y-103773687D01*
X103491831Y-104115334D01*
X103474936Y-104341084D01*
X103464997Y-104481264D01*
X103455619Y-104619072D01*
X103446582Y-104758605D01*
X103437663Y-104903960D01*
X103428643Y-105059234D01*
X103419298Y-105228523D01*
X103409409Y-105415926D01*
X103398753Y-105625538D01*
X103387108Y-105861458D01*
X103374255Y-106127780D01*
X103359970Y-106428604D01*
X103345676Y-106732917D01*
X103334388Y-106972043D01*
X103322640Y-107217090D01*
X103310770Y-107461231D01*
X103299118Y-107697642D01*
X103288021Y-107919497D01*
X103277820Y-108119971D01*
X103268852Y-108292239D01*
X103261458Y-108429476D01*
X103261051Y-108436834D01*
X103247455Y-108736391D01*
X103237664Y-109072528D01*
X103231634Y-109439664D01*
X103229319Y-109832221D01*
X101205555Y-109832221D01*
X101205994Y-109628079D01*
X101211761Y-109255580D01*
X101222612Y-108882805D01*
X101238683Y-108499164D01*
X101251593Y-108246334D01*
X101258722Y-108111546D01*
X101267440Y-107941293D01*
X101277412Y-107742402D01*
X101288303Y-107521698D01*
X101299779Y-107286005D01*
X101311505Y-107042149D01*
X101323148Y-106796956D01*
X101334373Y-106557251D01*
X101335061Y-106542417D01*
X101360640Y-106004031D01*
X101385841Y-105504378D01*
X101411191Y-105039866D01*
X101437217Y-104606903D01*
X101464446Y-104201899D01*
X101493405Y-103821261D01*
X101524620Y-103461399D01*
X101558619Y-103118722D01*
X101595928Y-102789637D01*
X101637074Y-102470554D01*
X101682583Y-102157882D01*
X101732984Y-101848028D01*
X101788802Y-101537402D01*
X101850565Y-101222411D01*
X101918798Y-100899466D01*
X101994030Y-100564975D01*
X102076787Y-100215345D01*
X102167596Y-99846987D01*
X102266983Y-99456307D01*
X102375476Y-99039716D01*
X102493601Y-98593622D01*
X102510344Y-98530834D01*
X102586063Y-98246494D01*
X102651865Y-97997492D01*
X102708958Y-97778320D01*
X102758545Y-97583469D01*
X102801833Y-97407432D01*
X102840027Y-97244700D01*
X102874334Y-97089765D01*
X102905958Y-96937119D01*
X102936106Y-96781253D01*
X102965982Y-96616660D01*
X102996794Y-96437831D01*
X103029746Y-96239258D01*
X103066044Y-96015432D01*
X103080207Y-95927334D01*
X103126720Y-95635641D01*
X103166401Y-95381201D01*
X103199628Y-95159554D01*
X103226784Y-94966239D01*
X103248249Y-94796794D01*
X103264404Y-94646758D01*
X103275630Y-94511672D01*
X103282307Y-94387073D01*
X103284816Y-94268501D01*
X103283538Y-94151495D01*
X103278854Y-94031595D01*
X103271144Y-93904338D01*
X103262687Y-93789500D01*
X103239741Y-93498989D01*
X103218829Y-93246535D01*
X103199406Y-93027941D01*
X103180929Y-92839009D01*
X103162854Y-92675543D01*
X103144637Y-92533345D01*
X103125735Y-92408218D01*
X103105604Y-92295964D01*
X103083700Y-92192385D01*
X103059480Y-92093285D01*
X103032400Y-91994466D01*
X103028364Y-91980464D01*
X102972799Y-91810419D01*
X102906009Y-91650319D01*
X102822286Y-91488393D01*
X102715922Y-91312869D01*
X102672099Y-91245757D01*
X102550464Y-91051908D01*
X102457718Y-90878412D01*
X102391078Y-90717538D01*
X102347759Y-90561553D01*
X102324977Y-90402724D01*
X102319667Y-90266953D01*
X102338868Y-90034273D01*
X102395535Y-89819892D01*
X102488259Y-89625345D01*
X102615636Y-89452165D01*
X102776258Y-89301884D01*
X102968719Y-89176038D01*
X103191612Y-89076158D01*
X103443531Y-89003779D01*
X103486522Y-88994836D01*
X103669128Y-88958741D01*
X103679833Y-88331412D01*
X103686697Y-88059095D01*
X103697958Y-87823198D01*
X103714587Y-87617948D01*
X103737560Y-87437570D01*
X103767847Y-87276291D01*
X103806424Y-87128336D01*
X103854263Y-86987931D01*
X103912337Y-86849303D01*
X103939369Y-86791559D01*
X104067255Y-86571395D01*
X104223994Y-86380280D01*
X104406791Y-86220418D01*
X104612850Y-86094012D01*
X104839374Y-86003267D01*
X104986128Y-85966421D01*
X105215890Y-85941102D01*
X105453340Y-85952042D01*
X105690381Y-85997003D01*
X105918917Y-86073750D01*
X106130848Y-86180044D01*
X106318079Y-86313650D01*
X106352224Y-86343795D01*
X106469113Y-86460126D01*
X106572668Y-86584436D01*
X106664818Y-86721116D01*
X106747491Y-86874557D01*
X106822615Y-87049149D01*
X106892118Y-87249282D01*
X106957929Y-87479348D01*
X107021975Y-87743737D01*
X107074289Y-87988058D01*
X107079380Y-87998487D01*
X107089006Y-87997379D01*
X107104219Y-87982754D01*
X107126068Y-87952631D01*
X107155607Y-87905028D01*
X107193886Y-87837966D01*
X107241957Y-87749463D01*
X107300872Y-87637538D01*
X107371682Y-87500210D01*
X107455438Y-87335500D01*
X107553192Y-87141425D01*
X107665995Y-86916005D01*
X107794899Y-86657259D01*
X107940955Y-86363206D01*
X108000287Y-86243584D01*
X108184702Y-85872479D01*
X108352882Y-85535945D01*
X108506766Y-85230319D01*
X108648294Y-84951938D01*
X108779408Y-84697141D01*
X108902049Y-84462265D01*
X109018156Y-84243647D01*
X109129671Y-84037626D01*
X109238533Y-83840540D01*
X109346685Y-83648726D01*
X109456066Y-83458521D01*
X109568617Y-83266265D01*
X109656275Y-83118527D01*
X109741433Y-82976510D01*
X109823652Y-82841249D01*
X109905296Y-82709173D01*
X109988730Y-82576712D01*
X110076317Y-82440296D01*
X110170422Y-82296354D01*
X110273410Y-82141316D01*
X110387643Y-81971612D01*
X110515487Y-81783671D01*
X110659306Y-81573922D01*
X110821464Y-81338796D01*
X111004324Y-81074722D01*
X111119919Y-80908159D01*
X111319155Y-80618694D01*
X111492882Y-80360755D01*
X111642058Y-80132828D01*
X111767643Y-79933402D01*
X111870595Y-79760964D01*
X111951874Y-79614002D01*
X111994834Y-79528721D01*
X112044792Y-79421489D01*
X112075989Y-79342250D01*
X112089370Y-79281531D01*
X112085880Y-79229857D01*
X112066461Y-79177754D01*
X112035427Y-79121442D01*
X111897077Y-78866534D01*
X111791104Y-78623720D01*
X111713701Y-78383118D01*
X111665345Y-78160436D01*
X111651031Y-78048301D01*
X111640888Y-77909294D01*
X111634931Y-77753690D01*
X111633177Y-77591764D01*
X111635640Y-77433790D01*
X111642336Y-77290041D01*
X111653283Y-77170793D01*
X111663717Y-77106286D01*
X111719095Y-76910975D01*
X111802775Y-76718221D01*
X111916525Y-76525867D01*
X112062113Y-76331758D01*
X112241308Y-76133739D01*
X112455879Y-75929653D01*
X112707594Y-75717345D01*
X112967012Y-75517712D01*
X113117183Y-75409378D01*
X113302031Y-75281399D01*
X113521893Y-75133554D01*
X113777102Y-74965623D01*
X114067995Y-74777386D01*
X114394908Y-74568622D01*
X114758177Y-74339111D01*
X114829167Y-74294501D01*
X115160580Y-74085483D01*
X115457819Y-73895991D01*
X115723355Y-73724360D01*
X115959660Y-73568922D01*
X116169206Y-73428011D01*
X116354463Y-73299960D01*
X116517905Y-73183103D01*
X116662002Y-73075771D01*
X116789226Y-72976300D01*
X116815986Y-72954663D01*
X116971889Y-72827786D01*
X116921819Y-72788405D01*
X116855570Y-72739343D01*
X116756870Y-72670535D01*
X116629355Y-72584368D01*
X116476661Y-72483229D01*
X116302423Y-72369504D01*
X116110277Y-72245582D01*
X115903860Y-72113847D01*
X115686806Y-71976689D01*
X115654667Y-71956493D01*
X115208977Y-71674380D01*
X114797191Y-71408705D01*
X114415557Y-71156557D01*
X114060324Y-70915028D01*
X113727742Y-70681208D01*
X113414059Y-70452189D01*
X113115524Y-70225060D01*
X112828387Y-69996912D01*
X112548897Y-69764837D01*
X112273302Y-69525925D01*
X111997852Y-69277267D01*
X111718796Y-69015954D01*
X111432382Y-68739077D01*
X111166698Y-68475657D01*
X110923654Y-68228478D01*
X110674789Y-67968407D01*
X110423150Y-67698995D01*
X110171780Y-67423795D01*
X109923724Y-67146356D01*
X109682026Y-66870232D01*
X109449730Y-66598972D01*
X109229881Y-66336129D01*
X109025523Y-66085255D01*
X108839700Y-65849900D01*
X108675457Y-65633616D01*
X108535837Y-65439955D01*
X108432523Y-65286022D01*
X108100234Y-64745390D01*
X107806145Y-64220503D01*
X107549729Y-63710009D01*
X107330460Y-63212551D01*
X107147811Y-62726775D01*
X107001257Y-62251328D01*
X106890272Y-61784855D01*
X106814328Y-61326001D01*
X106784604Y-61044667D01*
X106772542Y-60817488D01*
X106770633Y-60560992D01*
X106778638Y-60286904D01*
X106796317Y-60006944D01*
X106808562Y-59869917D01*
X106870068Y-59416968D01*
X106962661Y-58992572D01*
X107086664Y-58596195D01*
X107242404Y-58227306D01*
X107430205Y-57885373D01*
X107650394Y-57569862D01*
X107903296Y-57280242D01*
X108189236Y-57015980D01*
X108508540Y-56776544D01*
X108815276Y-56587141D01*
X109106183Y-56437052D01*
X109393653Y-56318127D01*
X109682029Y-56229989D01*
X109975656Y-56172259D01*
X110278874Y-56144557D01*
X110596028Y-56146505D01*
X110931460Y-56177724D01*
X111289512Y-56237835D01*
X111674528Y-56326460D01*
X111707084Y-56334890D01*
X111910153Y-56390539D01*
X112118951Y-56453286D01*
X112337223Y-56524546D01*
X112568718Y-56605736D01*
X112817181Y-56698271D01*
X113086361Y-56803567D01*
X113380005Y-56923040D01*
X113701859Y-57058104D01*
X114055672Y-57210177D01*
X114261859Y-57300095D01*
X114422287Y-57370046D01*
X114588252Y-57441847D01*
X114750375Y-57511479D01*
X114899275Y-57574924D01*
X115025571Y-57628164D01*
X115097102Y-57657864D01*
X115396787Y-57781050D01*
X115406197Y-56994567D01*
X115408878Y-56785754D01*
X115411674Y-56613279D01*
X115414933Y-56471145D01*
X115419000Y-56353357D01*
X115424224Y-56253919D01*
X115430951Y-56166835D01*
X115439529Y-56086110D01*
X115450305Y-56005749D01*
X115463626Y-55919755D01*
X115471053Y-55874552D01*
X115552793Y-55440092D01*
X115648176Y-55041868D01*
X115758881Y-54675510D01*
X115886586Y-54336645D01*
X116032970Y-54020903D01*
X116199710Y-53723912D01*
X116388486Y-53441301D01*
X116423972Y-53392917D01*
X116516016Y-53278997D01*
X116632522Y-53149755D01*
X116764147Y-53014382D01*
X116901550Y-52882068D01*
X117035386Y-52762004D01*
X117156314Y-52663382D01*
X117193392Y-52635966D01*
X117452338Y-52469965D01*
X117726826Y-52329302D01*
X118009694Y-52216488D01*
X118293781Y-52134034D01*
X118571927Y-52084450D01*
X118807494Y-52070000D01*
X119034303Y-52078763D01*
X119267331Y-52105790D01*
X119510225Y-52152192D01*
X119766629Y-52219078D01*
X120040187Y-52307558D01*
X120334547Y-52418741D01*
X120653351Y-52553737D01*
X121000246Y-52713656D01*
X121134337Y-52778336D01*
X121502257Y-52957700D01*
X121603538Y-52561475D01*
X121717141Y-52147831D01*
X121837162Y-51772754D01*
X121965293Y-51432740D01*
X122103229Y-51124287D01*
X122252665Y-50843891D01*
X122415295Y-50588051D01*
X122592812Y-50353262D01*
X122766294Y-50157490D01*
X123010846Y-49930659D01*
X123285225Y-49730518D01*
X123584355Y-49559801D01*
X123903159Y-49421245D01*
X124236560Y-49317583D01*
X124389176Y-49283212D01*
X124518727Y-49264563D01*
X124678682Y-49252579D01*
X124857647Y-49247228D01*
X125044225Y-49248478D01*
G37*
X125044225Y-49248478D02*
X125227021Y-49256295D01*
X125394640Y-49270647D01*
X125507750Y-49286397D01*
X125730542Y-49333330D01*
X125983684Y-49402090D01*
X126262422Y-49490846D01*
X126561997Y-49597773D01*
X126877652Y-49721040D01*
X127204632Y-49858820D01*
X127538178Y-50009284D01*
X127873535Y-50170605D01*
X128079500Y-50274871D01*
X128520673Y-50501912D01*
X128997780Y-50746110D01*
X129508566Y-51006350D01*
X130050780Y-51281516D01*
X130622167Y-51570492D01*
X131220475Y-51872164D01*
X131843451Y-52185414D01*
X132488842Y-52509127D01*
X133154394Y-52842188D01*
X133837854Y-53183481D01*
X134536970Y-53531890D01*
X135249488Y-53886299D01*
X135973155Y-54245592D01*
X136705719Y-54608655D01*
X137444925Y-54974370D01*
X138188521Y-55341623D01*
X138934253Y-55709297D01*
X139679869Y-56076277D01*
X140423116Y-56441447D01*
X141161740Y-56803691D01*
X141893489Y-57161895D01*
X142616109Y-57514941D01*
X143327347Y-57861714D01*
X144024950Y-58201098D01*
X144706665Y-58531978D01*
X145370238Y-58853238D01*
X146013418Y-59163762D01*
X146589750Y-59441194D01*
X147173530Y-59721616D01*
X147735649Y-59991279D01*
X148279175Y-60251628D01*
X148807174Y-60504107D01*
X149322716Y-60750161D01*
X149828866Y-60991236D01*
X150328692Y-61228775D01*
X150825262Y-61464224D01*
X151321644Y-61699027D01*
X151820904Y-61934629D01*
X152326110Y-62172475D01*
X152840330Y-62414010D01*
X153366631Y-62660678D01*
X153908080Y-62913924D01*
X154467745Y-63175193D01*
X155048694Y-63445930D01*
X155653993Y-63727579D01*
X156286711Y-64021586D01*
X156949914Y-64329394D01*
X157646670Y-64652450D01*
X158093834Y-64859635D01*
X159138627Y-65343796D01*
X160146156Y-65811078D01*
X161117706Y-66262088D01*
X162054569Y-66697430D01*
X162958032Y-67117709D01*
X163829385Y-67523531D01*
X164669915Y-67915499D01*
X165480912Y-68294220D01*
X166263665Y-68660297D01*
X167019462Y-69014337D01*
X167749593Y-69356944D01*
X168455345Y-69688724D01*
X169138008Y-70010280D01*
X169798871Y-70322218D01*
X170439222Y-70625144D01*
X171060349Y-70919662D01*
X171663543Y-71206377D01*
X172250091Y-71485894D01*
X172821283Y-71758818D01*
X173378407Y-72025754D01*
X173922752Y-72287308D01*
X174169917Y-72406320D01*
X175149148Y-72879502D01*
X176089583Y-73336714D01*
X176991560Y-73778134D01*
X177855413Y-74203941D01*
X178681480Y-74614313D01*
X179470097Y-75009428D01*
X180221600Y-75389464D01*
X180936327Y-75754601D01*
X181614613Y-76105016D01*
X182256796Y-76440887D01*
X182863210Y-76762394D01*
X183434194Y-77069714D01*
X183970083Y-77363025D01*
X184471215Y-77642507D01*
X184937924Y-77908338D01*
X185370549Y-78160695D01*
X185769425Y-78399758D01*
X186134889Y-78625704D01*
X186467277Y-78838712D01*
X186766926Y-79038960D01*
X187028667Y-79222653D01*
X187334415Y-79453375D01*
X187600011Y-79675358D01*
X187825191Y-79888353D01*
X188009693Y-80092114D01*
X188152460Y-80285167D01*
X188200354Y-80360453D01*
X188235148Y-80422098D01*
X188260965Y-80481232D01*
X188281930Y-80548985D01*
X188302166Y-80636487D01*
X188325016Y-80750834D01*
X188361907Y-80946555D01*
X188392119Y-81122266D01*
X188416697Y-81287251D01*
X188436683Y-81450791D01*
X188453125Y-81622171D01*
X188467065Y-81810673D01*
X188479548Y-82025580D01*
X188488169Y-82200750D01*
X188499453Y-82431887D01*
X188510367Y-82625769D01*
X188521657Y-82787461D01*
X188534069Y-82922025D01*
X188548349Y-83034527D01*
X188565244Y-83130031D01*
X188585499Y-83213599D01*
X188609862Y-83290297D01*
X188639078Y-83365188D01*
X188670077Y-83435099D01*
X188705474Y-83508945D01*
X188740380Y-83572179D01*
X188779070Y-83628273D01*
X188825821Y-83680700D01*
X188884910Y-83732931D01*
X188960612Y-83788439D01*
X189057204Y-83850696D01*
X189178962Y-83923174D01*
X189330163Y-84009346D01*
X189481631Y-84094061D01*
X189824977Y-84294751D01*
X190132002Y-84495098D01*
X190408422Y-84699756D01*
X190659953Y-84913379D01*
X190892311Y-85140621D01*
X191111213Y-85386136D01*
X191195455Y-85489456D01*
X191411189Y-85775559D01*
X191609704Y-86071351D01*
X191792575Y-86380529D01*
X191961378Y-86706791D01*
X192117687Y-87053834D01*
X192263078Y-87425355D01*
X192399125Y-87825051D01*
X192527404Y-88256620D01*
X192649489Y-88723759D01*
X192742938Y-89121914D01*
X192805340Y-89406544D01*
X192865535Y-89695041D01*
X192923803Y-89989518D01*
X192980424Y-90292089D01*
X193035679Y-90604869D01*
X193089847Y-90929970D01*
X193143209Y-91269507D01*
X193196045Y-91625593D01*
X193248635Y-92000343D01*
X193301260Y-92395870D01*
X193354199Y-92814288D01*
X193407732Y-93257712D01*
X193462140Y-93728253D01*
X193517703Y-94228028D01*
X193574700Y-94759148D01*
X193633413Y-95323729D01*
X193694121Y-95923884D01*
X193757105Y-96561727D01*
X193822644Y-97239372D01*
X193832800Y-97345500D01*
X193857076Y-97599232D01*
X193882568Y-97865177D01*
X193908549Y-98135780D01*
X193934292Y-98403483D01*
X193959068Y-98660729D01*
X193982152Y-98899963D01*
X194002815Y-99113628D01*
X194020330Y-99294166D01*
X194023289Y-99324584D01*
X194069953Y-99819564D01*
X194111150Y-100291485D01*
X194147598Y-100750658D01*
X194180015Y-101207394D01*
X194209115Y-101672003D01*
X194235618Y-102154797D01*
X194260239Y-102666087D01*
X194268335Y-102848834D01*
X194274748Y-103023558D01*
X194280586Y-103236663D01*
X194285833Y-103484199D01*
X194290470Y-103762216D01*
X194294482Y-104066765D01*
X194297850Y-104393897D01*
X194300559Y-104739662D01*
X194302590Y-105100111D01*
X194303927Y-105471294D01*
X194304553Y-105849262D01*
X194304451Y-106230066D01*
X194303604Y-106609756D01*
X194301994Y-106984382D01*
X194299604Y-107349996D01*
X194296418Y-107702648D01*
X194292419Y-108038388D01*
X194291135Y-108129917D01*
X194286795Y-108425755D01*
X194282720Y-108692211D01*
X194278734Y-108933601D01*
X194274661Y-109154244D01*
X194270323Y-109358455D01*
X194265543Y-109550553D01*
X194260145Y-109734853D01*
X194253951Y-109915674D01*
X194246784Y-110097332D01*
X194238469Y-110284145D01*
X194228827Y-110480429D01*
X194217682Y-110690502D01*
X194204857Y-110918681D01*
X194190176Y-111169283D01*
X194173460Y-111446624D01*
X194154534Y-111755023D01*
X194133219Y-112098797D01*
X194119393Y-112320917D01*
X194098698Y-112667028D01*
X194082327Y-112974100D01*
X194070335Y-113245210D01*
X194062778Y-113483438D01*
X194059709Y-113691861D01*
X194061183Y-113873558D01*
X194067256Y-114031607D01*
X194077981Y-114169085D01*
X194093415Y-114289072D01*
X194113610Y-114394646D01*
X194138623Y-114488884D01*
X194159032Y-114549765D01*
X194199833Y-114652158D01*
X194245945Y-114746156D01*
X194302328Y-114839166D01*
X194373947Y-114938591D01*
X194465764Y-115051835D01*
X194582741Y-115186303D01*
X194594569Y-115199584D01*
X194729930Y-115355658D01*
X194839986Y-115493309D01*
X194931368Y-115621905D01*
X195010707Y-115750812D01*
X195084633Y-115889397D01*
X195088971Y-115898084D01*
X195222179Y-116208091D01*
X195318063Y-116525378D01*
X195376592Y-116846104D01*
X195397735Y-117166431D01*
X195381458Y-117482518D01*
X195327731Y-117790526D01*
X195236522Y-118086615D01*
X195109398Y-118364000D01*
X194942000Y-118630084D01*
X194744127Y-118868747D01*
X194518640Y-119077585D01*
X194268400Y-119254189D01*
X193996270Y-119396154D01*
X193786902Y-119476056D01*
X193692018Y-119505559D01*
X193600953Y-119530076D01*
X193508354Y-119550153D01*
X193408867Y-119566336D01*
X193297137Y-119579173D01*
X193167812Y-119589211D01*
X193015537Y-119596995D01*
X192834959Y-119603074D01*
X192620724Y-119607993D01*
X192468550Y-119610703D01*
X191696016Y-119623417D01*
X191668766Y-119877417D01*
X191653949Y-120009905D01*
X191635253Y-120168202D01*
X191613428Y-120346641D01*
X191589224Y-120539560D01*
X191563394Y-120741294D01*
X191536688Y-120946178D01*
X191509856Y-121148548D01*
X191483649Y-121342740D01*
X191458819Y-121523090D01*
X191436116Y-121683933D01*
X191416291Y-121819606D01*
X191400096Y-121924443D01*
X191388513Y-121991574D01*
X191296747Y-122386205D01*
X191173591Y-122788491D01*
X191022190Y-123192331D01*
X190845686Y-123591623D01*
X190647223Y-123980266D01*
X190429943Y-124352157D01*
X190196990Y-124701194D01*
X189951507Y-125021276D01*
X189696636Y-125306301D01*
X189664039Y-125339396D01*
X189395929Y-125579810D01*
X189098602Y-125791971D01*
X188771534Y-125976089D01*
X188414201Y-126132373D01*
X188026079Y-126261030D01*
X187606643Y-126362271D01*
X187155371Y-126436303D01*
X186822179Y-126471885D01*
X186697866Y-126479696D01*
X186542445Y-126485084D01*
X186363181Y-126488163D01*
X186167338Y-126489047D01*
X185962181Y-126487852D01*
X185754974Y-126484690D01*
X185552981Y-126479677D01*
X185363468Y-126472928D01*
X185193698Y-126464557D01*
X185050936Y-126454677D01*
X184942446Y-126443405D01*
X184933167Y-126442120D01*
X184529337Y-126368665D01*
X184150914Y-126266108D01*
X183789983Y-126131464D01*
X183438632Y-125961744D01*
X183088949Y-125753962D01*
X183059917Y-125735020D01*
X182750673Y-125518230D01*
X182476097Y-125295120D01*
X182230721Y-125059517D01*
X182009074Y-124805250D01*
X181805688Y-124526144D01*
X181615092Y-124216028D01*
X181464727Y-123934688D01*
X181337037Y-123676831D01*
X181228330Y-123444665D01*
X181136127Y-123230268D01*
X181057946Y-123025720D01*
X180991306Y-122823099D01*
X180933725Y-122614485D01*
X180882723Y-122391957D01*
X180835819Y-122147594D01*
X180790531Y-121873475D01*
X180764029Y-121697750D01*
X180743012Y-121555717D01*
X180722494Y-121419056D01*
X180703812Y-121296520D01*
X180688301Y-121196864D01*
X180677300Y-121128841D01*
X180675958Y-121120959D01*
X180653154Y-120988667D01*
X180487918Y-120988667D01*
X180368078Y-120990767D01*
X180208448Y-120996931D01*
X180011357Y-121006956D01*
X179779133Y-121020640D01*
X179514105Y-121037778D01*
X179218600Y-121058169D01*
X178894946Y-121081608D01*
X178545472Y-121107893D01*
X178172507Y-121136821D01*
X177778378Y-121168188D01*
X177365413Y-121201792D01*
X176935942Y-121237429D01*
X176492291Y-121274896D01*
X176036790Y-121313990D01*
X175571766Y-121354509D01*
X175099548Y-121396248D01*
X174622463Y-121439006D01*
X174142842Y-121482578D01*
X173663010Y-121526762D01*
X173185297Y-121571354D01*
X172712031Y-121616152D01*
X172245540Y-121660952D01*
X171788153Y-121705552D01*
X171342197Y-121749747D01*
X170910000Y-121793336D01*
X170493892Y-121836115D01*
X170096200Y-121877881D01*
X169719253Y-121918430D01*
X169365378Y-121957561D01*
X169312167Y-121963551D01*
X169002447Y-121999199D01*
X168697706Y-122035610D01*
X168400895Y-122072354D01*
X168114964Y-122109003D01*
X167842862Y-122145128D01*
X167587540Y-122180302D01*
X167351947Y-122214094D01*
X167139032Y-122246078D01*
X166951747Y-122275824D01*
X166793041Y-122302904D01*
X166665864Y-122326890D01*
X166573165Y-122347353D01*
X166517895Y-122363864D01*
X166504189Y-122371422D01*
X166493684Y-122402746D01*
X166482976Y-122475122D01*
X166472161Y-122587270D01*
X166461338Y-122737908D01*
X166450602Y-122925758D01*
X166440053Y-123149539D01*
X166434036Y-123295834D01*
X166410563Y-123802321D01*
X166380815Y-124271747D01*
X166343849Y-124709048D01*
X166298720Y-125119158D01*
X166244486Y-125507013D01*
X166180203Y-125877547D01*
X166104929Y-126235697D01*
X166017720Y-126586397D01*
X165917632Y-126934582D01*
X165803723Y-127285188D01*
X165675048Y-127643150D01*
X165533886Y-128005417D01*
X165322846Y-128518855D01*
X165119069Y-128993295D01*
X164921284Y-129431204D01*
X164728219Y-129835046D01*
X164538600Y-130207288D01*
X164351155Y-130550395D01*
X164164613Y-130866834D01*
X163977700Y-131159071D01*
X163789146Y-131429571D01*
X163716610Y-131527425D01*
X163583926Y-131696210D01*
X163430220Y-131879595D01*
X163261099Y-132071728D01*
X163082170Y-132266760D01*
X162899042Y-132458842D01*
X162717322Y-132642122D01*
X162542617Y-132810752D01*
X162380535Y-132958880D01*
X162236683Y-133080658D01*
X162200167Y-133109444D01*
X161775217Y-133419033D01*
X161315497Y-133718903D01*
X160828143Y-134005323D01*
X160320294Y-134274561D01*
X159799085Y-134522887D01*
X159271655Y-134746568D01*
X158745141Y-134941875D01*
X158604766Y-134989029D01*
X158277605Y-135091162D01*
X157960163Y-135178821D01*
X157644301Y-135253547D01*
X157321877Y-135316881D01*
X156984749Y-135370364D01*
X156624777Y-135415538D01*
X156233819Y-135453945D01*
X156083000Y-135466484D01*
X155989214Y-135472392D01*
X155862756Y-135478083D01*
X155710974Y-135483421D01*
X155541215Y-135488272D01*
X155360826Y-135492499D01*
X155177155Y-135495968D01*
X154997550Y-135498543D01*
X154829358Y-135500088D01*
X154679927Y-135500469D01*
X154556604Y-135499549D01*
X154466736Y-135497193D01*
X154453167Y-135496524D01*
X153892803Y-135458024D01*
X153366817Y-135405816D01*
X152869123Y-135338626D01*
X152393633Y-135255185D01*
X151934261Y-135154222D01*
X151484921Y-135034465D01*
X151039524Y-134894644D01*
X150591986Y-134733486D01*
X150357417Y-134641242D01*
X150189990Y-134569795D01*
X149999292Y-134482060D01*
X149795694Y-134383299D01*
X149589565Y-134278776D01*
X149391279Y-134173755D01*
X149211204Y-134073500D01*
X149059713Y-133983274D01*
X149054150Y-133979794D01*
X148553854Y-133641864D01*
X148068015Y-133264559D01*
X147597206Y-132848493D01*
X147141999Y-132394283D01*
X146702966Y-131902544D01*
X146280680Y-131373893D01*
X145875713Y-130808944D01*
X145488637Y-130208313D01*
X145379393Y-130026834D01*
X145191732Y-129705921D01*
X145026692Y-129413255D01*
X144881870Y-129142938D01*
X144754860Y-128889071D01*
X144643260Y-128645756D01*
X144544665Y-128407094D01*
X144456673Y-128167188D01*
X144376878Y-127920139D01*
X144302878Y-127660049D01*
X144232269Y-127381020D01*
X144162646Y-127077153D01*
X144145844Y-127000000D01*
X144110651Y-126839232D01*
X144073994Y-126675755D01*
X144037163Y-126514952D01*
X144001447Y-126362207D01*
X143968138Y-126222902D01*
X143938525Y-126102421D01*
X143913898Y-126006146D01*
X143895547Y-125939460D01*
X143884762Y-125907747D01*
X143883704Y-125906149D01*
X143850381Y-125893492D01*
X143778415Y-125881184D01*
X143671497Y-125869399D01*
X143533318Y-125858313D01*
X143367569Y-125848101D01*
X143177940Y-125838939D01*
X142968123Y-125831002D01*
X142741807Y-125824465D01*
X142502683Y-125819504D01*
X142254442Y-125816293D01*
X142000775Y-125815009D01*
X141964834Y-125814993D01*
X141757672Y-125815432D01*
X141548678Y-125816748D01*
X141335214Y-125819029D01*
X141114645Y-125822358D01*
X140884335Y-125826821D01*
X140641650Y-125832505D01*
X140383953Y-125839494D01*
X140108608Y-125847874D01*
X139812981Y-125857730D01*
X139494436Y-125869148D01*
X139150336Y-125882213D01*
X138778047Y-125897011D01*
X138374932Y-125913627D01*
X137938357Y-125932148D01*
X137465686Y-125952657D01*
X136954282Y-125975241D01*
X136768417Y-125983528D01*
X136407426Y-125999635D01*
X136083014Y-126014051D01*
X135789471Y-126027016D01*
X135521088Y-126038770D01*
X135272155Y-126049553D01*
X135036960Y-126059604D01*
X134809796Y-126069163D01*
X134584951Y-126078470D01*
X134356715Y-126087765D01*
X134119379Y-126097287D01*
X133867233Y-126107276D01*
X133594567Y-126117972D01*
X133295670Y-126129615D01*
X133212417Y-126132847D01*
X132692210Y-126153752D01*
X132211508Y-126174617D01*
X131767481Y-126195639D01*
X131357300Y-126217019D01*
X130978137Y-126238955D01*
X130627163Y-126261647D01*
X130301550Y-126285295D01*
X129998468Y-126310096D01*
X129715089Y-126336250D01*
X129448585Y-126363956D01*
X129196126Y-126393414D01*
X128954884Y-126424823D01*
X128843970Y-126440402D01*
X128507161Y-126493879D01*
X128196370Y-126553473D01*
X127914007Y-126618466D01*
X127662478Y-126688140D01*
X127444192Y-126761778D01*
X127261555Y-126838661D01*
X127116976Y-126918072D01*
X127033267Y-126980341D01*
X126992220Y-127020802D01*
X126952264Y-127070874D01*
X126910703Y-127135518D01*
X126864840Y-127219692D01*
X126811979Y-127328358D01*
X126749422Y-127466475D01*
X126674473Y-127639003D01*
X126671978Y-127644824D01*
X126540418Y-127942864D01*
X126415031Y-128206193D01*
X126291686Y-128441160D01*
X126166253Y-128654115D01*
X126034601Y-128851407D01*
X125892600Y-129039385D01*
X125736120Y-129224399D01*
X125561029Y-129412798D01*
X125445926Y-129529504D01*
X125131853Y-129823124D01*
X124795388Y-130102452D01*
X124441782Y-130364355D01*
X124076287Y-130605697D01*
X123704154Y-130823345D01*
X123330635Y-131014162D01*
X122960981Y-131175014D01*
X122600446Y-131302768D01*
X122364500Y-131368805D01*
X122082913Y-131432369D01*
X121764068Y-131493254D01*
X121412996Y-131550693D01*
X121034730Y-131603919D01*
X120634301Y-131652162D01*
X120247834Y-131691752D01*
X120106474Y-131702554D01*
X119933995Y-131711683D01*
X119736978Y-131719111D01*
X119522003Y-131724805D01*
X119295650Y-131728735D01*
X119064500Y-131730870D01*
X118835135Y-131731179D01*
X118614133Y-131729631D01*
X118408078Y-131726195D01*
X118223548Y-131720840D01*
X118067124Y-131713536D01*
X117945388Y-131704252D01*
X117930084Y-131702638D01*
X117548070Y-131650572D01*
X117172164Y-131578719D01*
X116790687Y-131484445D01*
X116391962Y-131365117D01*
X116300250Y-131335069D01*
X115789252Y-131149983D01*
X115282692Y-130936770D01*
X114785168Y-130698230D01*
X114301276Y-130437159D01*
X113835611Y-130156356D01*
X113392770Y-129858619D01*
X112977350Y-129546745D01*
X112593946Y-129223533D01*
X112247156Y-128891780D01*
X112191125Y-128833632D01*
X111998398Y-128621832D01*
X111827003Y-128412293D01*
X111672743Y-128198115D01*
X111531424Y-127972396D01*
X111398848Y-127728236D01*
X111270822Y-127458734D01*
X111143148Y-127156989D01*
X111090050Y-127022661D01*
X110996481Y-126784949D01*
X110913820Y-126582750D01*
X110839603Y-126411406D01*
X110771367Y-126266264D01*
X110706649Y-126142669D01*
X110642985Y-126035965D01*
X110577914Y-125941498D01*
X110508971Y-125854612D01*
X110433694Y-125770653D01*
X110419862Y-125756099D01*
X110289756Y-125630634D01*
X110157873Y-125526850D01*
X110017453Y-125441720D01*
X109861737Y-125372215D01*
X109683966Y-125315306D01*
X109477379Y-125267966D01*
X109241167Y-125228043D01*
X109186655Y-125221053D01*
X109122165Y-125215001D01*
X109044340Y-125209807D01*
X108949826Y-125205391D01*
X108835264Y-125201671D01*
X108697299Y-125198568D01*
X108532575Y-125196000D01*
X108337735Y-125193886D01*
X108109423Y-125192147D01*
X107844283Y-125190700D01*
X107653667Y-125189892D01*
X107319799Y-125188226D01*
X107024283Y-125185820D01*
X106763140Y-125182435D01*
X106532390Y-125177831D01*
X106328055Y-125171770D01*
X106146155Y-125164013D01*
X105982713Y-125154322D01*
X105833748Y-125142458D01*
X105695282Y-125128181D01*
X105563337Y-125111253D01*
X105433932Y-125091435D01*
X105303090Y-125068489D01*
X105166831Y-125042176D01*
X105156000Y-125040003D01*
X104705158Y-124931165D01*
X104282939Y-124791391D01*
X103888390Y-124620031D01*
X103520557Y-124416436D01*
X103178485Y-124179955D01*
X102861219Y-123909938D01*
X102567807Y-123605736D01*
X102297293Y-123266700D01*
X102082121Y-122946584D01*
X101971833Y-122749031D01*
X101865327Y-122520148D01*
X101766770Y-122270938D01*
X101680331Y-122012403D01*
X101610176Y-121755543D01*
X101580985Y-121623667D01*
X101547775Y-121441432D01*
X101523445Y-121264175D01*
X101507329Y-121082205D01*
X101498761Y-120885834D01*
X101497075Y-120665375D01*
X101500514Y-120453430D01*
X101505104Y-120296191D01*
X101511228Y-120152899D01*
X101519620Y-120016653D01*
X101531018Y-119880551D01*
X101546156Y-119737692D01*
X101565770Y-119581174D01*
X101590596Y-119404095D01*
X101621369Y-119199554D01*
X101658824Y-118960649D01*
X101661247Y-118945408D01*
X101703656Y-118670787D01*
X101737392Y-118432366D01*
X101762697Y-118224962D01*
X101779813Y-118043391D01*
X101788982Y-117882469D01*
X101790448Y-117737013D01*
X101784453Y-117601840D01*
X101771239Y-117471766D01*
X101751049Y-117341606D01*
X101739205Y-117278861D01*
X101686844Y-116991071D01*
X101635776Y-116664139D01*
X101586260Y-116301241D01*
X101538553Y-115905557D01*
X101492913Y-115480264D01*
X101449598Y-115028540D01*
X101408865Y-114553563D01*
X101370972Y-114058510D01*
X101336177Y-113546561D01*
X101304738Y-113020893D01*
X101276912Y-112484683D01*
X101252957Y-111941109D01*
X101233130Y-111393351D01*
X101217817Y-110849834D01*
X101209159Y-110414614D01*
X101205172Y-110010893D01*
X101205555Y-109832221D01*
X103229319Y-109832221D01*
X103230675Y-110244620D01*
X103235656Y-110671282D01*
X103244218Y-111106628D01*
X103256316Y-111545078D01*
X103271905Y-111981054D01*
X103290941Y-112408977D01*
X103293403Y-112458500D01*
X103317840Y-112910723D01*
X103345331Y-113358393D01*
X103375556Y-113798329D01*
X103408197Y-114227352D01*
X103442936Y-114642280D01*
X103479455Y-115039933D01*
X103517435Y-115417129D01*
X103556557Y-115770690D01*
X103596503Y-116097433D01*
X103636955Y-116394178D01*
X103677595Y-116657745D01*
X103718103Y-116884953D01*
X103753244Y-117051667D01*
X103773040Y-117140801D01*
X103787590Y-117218396D01*
X103797679Y-117293804D01*
X103804092Y-117376377D01*
X103807611Y-117475468D01*
X103809023Y-117600427D01*
X103809168Y-117718417D01*
X103807805Y-117875902D01*
X103803555Y-118023082D01*
X103795716Y-118167208D01*
X103783586Y-118315529D01*
X103766462Y-118475296D01*
X103743641Y-118653760D01*
X103714419Y-118858171D01*
X103678095Y-119095779D01*
X103671699Y-119136584D01*
X103633461Y-119382872D01*
X103601928Y-119593416D01*
X103576393Y-119774148D01*
X103556149Y-119931003D01*
X103540487Y-120069914D01*
X103528699Y-120196815D01*
X103520079Y-120317641D01*
X103513918Y-120438324D01*
X103512644Y-120470084D01*
X103512400Y-120801605D01*
X103539151Y-121103576D01*
X103594339Y-121380197D01*
X103679403Y-121635668D01*
X103795785Y-121874190D01*
X103944926Y-122099963D01*
X104128268Y-122317187D01*
X104156553Y-122346954D01*
X104335547Y-122516463D01*
X104524718Y-122661898D01*
X104729008Y-122785469D01*
X104953360Y-122889386D01*
X105202717Y-122975859D01*
X105482022Y-123047100D01*
X105796218Y-123105318D01*
X105880969Y-123118122D01*
X105936097Y-123125136D01*
X106001089Y-123131376D01*
X106079100Y-123136930D01*
X106173287Y-123141890D01*
X106286806Y-123146346D01*
X106422814Y-123150387D01*
X106584467Y-123154105D01*
X106774921Y-123157589D01*
X106997333Y-123160930D01*
X107254860Y-123164218D01*
X107550657Y-123167543D01*
X107643084Y-123168517D01*
X107957100Y-123171921D01*
X108232449Y-123175299D01*
X108472797Y-123178846D01*
X108681809Y-123182757D01*
X108863152Y-123187228D01*
X109020490Y-123192454D01*
X109157490Y-123198631D01*
X109277818Y-123205952D01*
X109385139Y-123214615D01*
X109483119Y-123224815D01*
X109575423Y-123236745D01*
X109665718Y-123250603D01*
X109757669Y-123266583D01*
X109854942Y-123284881D01*
X109865584Y-123286939D01*
X110188646Y-123361814D01*
X110500132Y-123458000D01*
X110790556Y-123572145D01*
X111050432Y-123700899D01*
X111072084Y-123713137D01*
X111283778Y-123848589D01*
X111502120Y-124014758D01*
X111717518Y-124203268D01*
X111920383Y-124405742D01*
X112096140Y-124607592D01*
X112220156Y-124768903D01*
X112333687Y-124932795D01*
X112439923Y-125105263D01*
X112542055Y-125292300D01*
X112643275Y-125499899D01*
X112746773Y-125734055D01*
X112855740Y-126000759D01*
X112905194Y-126127259D01*
X112998676Y-126364148D01*
X113083270Y-126566285D01*
X113162289Y-126739458D01*
X113239046Y-126889451D01*
X113316853Y-127022051D01*
X113399023Y-127143043D01*
X113488870Y-127258214D01*
X113589706Y-127373349D01*
X113663639Y-127451871D01*
X113968393Y-127744216D01*
X114308483Y-128026945D01*
X114678460Y-128297314D01*
X115072876Y-128552577D01*
X115486282Y-128789988D01*
X115913230Y-129006802D01*
X116348272Y-129200275D01*
X116785958Y-129367660D01*
X117220840Y-129506212D01*
X117647469Y-129613185D01*
X118060398Y-129685835D01*
X118110000Y-129692270D01*
X118208296Y-129701131D01*
X118341764Y-129708224D01*
X118503282Y-129713550D01*
X118685724Y-129717108D01*
X118881968Y-129718897D01*
X119084890Y-129718917D01*
X119287366Y-129717168D01*
X119482272Y-129713649D01*
X119662484Y-129708360D01*
X119820879Y-129701301D01*
X119950333Y-129692470D01*
X119951500Y-129692369D01*
X120223369Y-129666476D01*
X120499590Y-129635846D01*
X120774044Y-129601412D01*
X121040611Y-129564105D01*
X121293170Y-129524858D01*
X121525601Y-129484603D01*
X121731784Y-129444273D01*
X121905598Y-129404798D01*
X121994084Y-129381261D01*
X122195112Y-129312074D01*
X122417504Y-129215110D01*
X122654735Y-129094442D01*
X122900285Y-128954145D01*
X123147629Y-128798292D01*
X123390245Y-128630957D01*
X123621611Y-128456214D01*
X123835205Y-128278138D01*
X123990959Y-128134006D01*
X124120067Y-128004108D01*
X124232099Y-127881674D01*
X124331159Y-127760309D01*
X124421352Y-127633617D01*
X124506785Y-127495204D01*
X124591562Y-127338674D01*
X124679790Y-127157633D01*
X124775573Y-126945686D01*
X124821428Y-126840391D01*
X124882317Y-126701244D01*
X124943519Y-126564767D01*
X125001148Y-126439376D01*
X125051319Y-126333490D01*
X125090149Y-126255523D01*
X125099460Y-126238000D01*
X125268288Y-125959492D01*
X125454332Y-125715035D01*
X125662698Y-125499732D01*
X125898492Y-125308681D01*
X126166822Y-125136984D01*
X126348184Y-125039898D01*
X126566102Y-124938903D01*
X126804148Y-124845101D01*
X127064143Y-124758186D01*
X127347909Y-124677850D01*
X127657267Y-124603785D01*
X127994041Y-124535683D01*
X128360050Y-124473235D01*
X128757118Y-124416135D01*
X129187065Y-124364074D01*
X129651714Y-124316745D01*
X130152886Y-124273839D01*
X130692403Y-124235048D01*
X131272086Y-124200065D01*
X131339167Y-124196394D01*
X131446579Y-124190644D01*
X131553911Y-124185064D01*
X131664163Y-124179526D01*
X131780338Y-124173904D01*
X131905438Y-124168069D01*
X132042465Y-124161893D01*
X132194420Y-124155249D01*
X132364305Y-124148008D01*
X132555123Y-124140044D01*
X132769876Y-124131227D01*
X133011564Y-124121432D01*
X133283191Y-124110529D01*
X133587758Y-124098391D01*
X133928268Y-124084890D01*
X134307721Y-124069899D01*
X134355417Y-124068018D01*
X134530831Y-124060969D01*
X134741633Y-124052283D01*
X134980923Y-124042255D01*
X135241799Y-124031180D01*
X135517361Y-124019354D01*
X135800708Y-124007073D01*
X136084940Y-123994633D01*
X136363154Y-123982330D01*
X136567334Y-123973208D01*
X137071581Y-123950679D01*
X137536371Y-123930171D01*
X137964525Y-123911593D01*
X138358867Y-123894859D01*
X138722218Y-123879877D01*
X139057401Y-123866560D01*
X139367240Y-123854818D01*
X139654557Y-123844564D01*
X139922173Y-123835707D01*
X140172913Y-123828159D01*
X140409598Y-123821831D01*
X140635052Y-123816635D01*
X140852096Y-123812480D01*
X141063554Y-123809279D01*
X141272248Y-123806943D01*
X141481001Y-123805382D01*
X141692636Y-123804508D01*
X141909974Y-123804232D01*
X141933084Y-123804234D01*
X142362155Y-123805784D01*
X142751441Y-123810597D01*
X143103400Y-123819195D01*
X143420490Y-123832100D01*
X143705171Y-123849836D01*
X143959901Y-123872924D01*
X144187139Y-123901887D01*
X144389344Y-123937247D01*
X144568974Y-123979528D01*
X144728488Y-124029251D01*
X144870345Y-124086938D01*
X144997004Y-124153113D01*
X145110923Y-124228298D01*
X145214561Y-124313015D01*
X145310377Y-124407787D01*
X145400830Y-124513136D01*
X145427140Y-124546689D01*
X145506579Y-124656438D01*
X145578820Y-124771326D01*
X145645311Y-124895443D01*
X145707499Y-125032877D01*
X145766834Y-125187718D01*
X145824763Y-125364057D01*
X145882736Y-125565982D01*
X145942201Y-125797582D01*
X146004605Y-126062949D01*
X146071147Y-126365000D01*
X146134074Y-126652107D01*
X146192373Y-126903407D01*
X146248132Y-127124893D01*
X146303439Y-127322556D01*
X146360382Y-127502386D01*
X146421050Y-127670375D01*
X146487530Y-127832514D01*
X146561911Y-127994795D01*
X146646281Y-128163208D01*
X146742728Y-128343745D01*
X146791769Y-128432594D01*
X147037617Y-128863813D01*
X147275801Y-129258940D01*
X147509807Y-129622724D01*
X147743119Y-129959914D01*
X147979221Y-130275257D01*
X148221598Y-130573501D01*
X148473735Y-130859395D01*
X148739115Y-131137687D01*
X148878681Y-131276267D01*
X149227880Y-131600165D01*
X149576958Y-131888537D01*
X149932321Y-132145237D01*
X150300373Y-132374125D01*
X150687520Y-132579058D01*
X151100168Y-132763892D01*
X151544721Y-132932485D01*
X151737180Y-132997640D01*
X152230236Y-133145257D01*
X152724243Y-133264248D01*
X153226783Y-133355869D01*
X153745437Y-133421378D01*
X154287790Y-133462035D01*
X154611917Y-133474610D01*
X155014507Y-133480010D01*
X155411604Y-133475015D01*
X155792492Y-133459951D01*
X156146454Y-133435143D01*
X156259152Y-133424508D01*
X156539311Y-133393801D01*
X156787117Y-133361125D01*
X157012546Y-133324591D01*
X157225578Y-133282305D01*
X157436191Y-133232378D01*
X157654364Y-133172917D01*
X157776334Y-133136933D01*
X158169534Y-133007143D01*
X158573804Y-132852625D01*
X158982042Y-132677016D01*
X159387144Y-132483952D01*
X159782009Y-132277071D01*
X160159534Y-132060010D01*
X160512616Y-131836404D01*
X160834153Y-131609892D01*
X160983084Y-131494918D01*
X161125468Y-131373340D01*
X161285057Y-131223520D01*
X161455472Y-131052369D01*
X161630334Y-130866802D01*
X161803265Y-130673730D01*
X161967885Y-130480067D01*
X162117816Y-130292725D01*
X162225265Y-130148752D01*
X162381358Y-129916702D01*
X162545659Y-129644450D01*
X162717569Y-129333202D01*
X162896487Y-128984165D01*
X163081814Y-128598544D01*
X163272949Y-128177545D01*
X163469295Y-127722374D01*
X163649457Y-127285750D01*
X163813860Y-126859313D01*
X163952393Y-126454679D01*
X164067640Y-126062302D01*
X164162179Y-125672637D01*
X164238592Y-125276138D01*
X164294908Y-124898613D01*
X164313520Y-124751104D01*
X164329641Y-124611302D01*
X164343732Y-124472977D01*
X164356253Y-124329898D01*
X164367664Y-124175836D01*
X164378427Y-124004559D01*
X164389001Y-123809838D01*
X164399847Y-123585441D01*
X164411424Y-123325140D01*
X164411775Y-123317000D01*
X164423077Y-123064198D01*
X164433740Y-122848575D01*
X164444206Y-122664988D01*
X164454917Y-122508296D01*
X164466314Y-122373358D01*
X164478838Y-122255031D01*
X164492932Y-122148176D01*
X164509036Y-122047650D01*
X164527593Y-121948312D01*
X164530601Y-121933263D01*
X164600241Y-121654005D01*
X164691018Y-121407835D01*
X164805474Y-121189815D01*
X164946152Y-120995001D01*
X165093715Y-120838784D01*
X165221050Y-120733347D01*
X165368100Y-120640192D01*
X165539046Y-120557641D01*
X165738070Y-120484014D01*
X165969355Y-120417633D01*
X166237082Y-120356818D01*
X166348834Y-120334897D01*
X166592338Y-120291217D01*
X166867450Y-120246241D01*
X167175033Y-120199867D01*
X167515950Y-120151994D01*
X167891064Y-120102519D01*
X168301238Y-120051341D01*
X168747334Y-119998358D01*
X169230217Y-119943469D01*
X169750750Y-119886572D01*
X170309794Y-119827564D01*
X170908214Y-119766345D01*
X171546872Y-119702813D01*
X172226631Y-119636866D01*
X172466000Y-119613996D01*
X173294066Y-119535723D01*
X174080309Y-119462534D01*
X174824932Y-119394416D01*
X175528138Y-119331353D01*
X176190127Y-119273331D01*
X176811103Y-119220335D01*
X177391268Y-119172349D01*
X177930825Y-119129360D01*
X178429975Y-119091352D01*
X178888921Y-119058310D01*
X179307866Y-119030220D01*
X179687012Y-119007067D01*
X180026561Y-118988836D01*
X180326715Y-118975512D01*
X180587677Y-118967080D01*
X180809649Y-118963526D01*
X180992834Y-118964835D01*
X181137434Y-118970991D01*
X181188739Y-118975218D01*
X181412330Y-119008325D01*
X181605539Y-119062516D01*
X181776574Y-119141471D01*
X181933644Y-119248867D01*
X182065084Y-119368061D01*
X182164710Y-119475741D01*
X182253006Y-119588215D01*
X182331371Y-119709445D01*
X182401205Y-119843395D01*
X182463907Y-119994028D01*
X182520877Y-120165307D01*
X182573512Y-120361194D01*
X182623213Y-120585654D01*
X182671380Y-120842649D01*
X182719410Y-121136142D01*
X182741919Y-121285000D01*
X182779486Y-121531744D01*
X182814671Y-121743458D01*
X182849578Y-121927209D01*
X182886310Y-122090061D01*
X182926972Y-122239080D01*
X182973667Y-122381333D01*
X183028501Y-122523883D01*
X183093576Y-122673798D01*
X183170997Y-122838142D01*
X183255247Y-123008776D01*
X183381669Y-123243311D01*
X183510826Y-123443660D01*
X183649539Y-123617773D01*
X183804631Y-123773600D01*
X183982923Y-123919091D01*
X184118250Y-124014407D01*
X184338010Y-124151928D01*
X184544300Y-124259114D01*
X184747978Y-124340274D01*
X184959905Y-124399718D01*
X185190941Y-124441753D01*
X185197750Y-124442716D01*
X185303201Y-124453496D01*
X185442711Y-124461760D01*
X185608544Y-124467555D01*
X185792964Y-124470927D01*
X185988235Y-124471922D01*
X186186622Y-124470587D01*
X186380390Y-124466967D01*
X186561802Y-124461109D01*
X186723122Y-124453059D01*
X186856616Y-124442863D01*
X186944000Y-124432298D01*
X187257211Y-124373732D01*
X187531677Y-124302208D01*
X187769166Y-124217058D01*
X187971443Y-124117613D01*
X188140274Y-124003203D01*
X188191110Y-123960113D01*
X188340542Y-123807970D01*
X188492570Y-123620096D01*
X188643951Y-123402690D01*
X188791441Y-123161951D01*
X188931796Y-122904076D01*
X189061772Y-122635263D01*
X189178125Y-122361712D01*
X189277612Y-122089620D01*
X189356987Y-121825186D01*
X189397296Y-121655417D01*
X189410581Y-121582561D01*
X189427921Y-121472988D01*
X189448636Y-121332047D01*
X189472045Y-121165090D01*
X189497469Y-120977464D01*
X189524226Y-120774522D01*
X189551636Y-120561613D01*
X189579019Y-120344087D01*
X189605694Y-120127293D01*
X189630981Y-119916584D01*
X189654200Y-119717307D01*
X189674670Y-119534814D01*
X189691711Y-119374455D01*
X189704642Y-119241579D01*
X189705520Y-119231834D01*
X189728147Y-119020573D01*
X189756105Y-118843833D01*
X189791496Y-118693925D01*
X189836422Y-118563160D01*
X189892986Y-118443850D01*
X189944917Y-118356313D01*
X190091242Y-118166654D01*
X190270306Y-118000184D01*
X190477394Y-117860359D01*
X190707791Y-117750637D01*
X190828084Y-117708811D01*
X190921466Y-117682024D01*
X191014655Y-117659966D01*
X191112893Y-117642206D01*
X191221425Y-117628312D01*
X191345495Y-117617852D01*
X191490345Y-117610396D01*
X191661221Y-117605512D01*
X191863365Y-117602768D01*
X192102022Y-117601733D01*
X192129834Y-117601706D01*
X192371559Y-117601106D01*
X192574850Y-117599300D01*
X192743603Y-117595712D01*
X192881712Y-117589762D01*
X192993072Y-117580873D01*
X193081579Y-117568466D01*
X193151127Y-117551965D01*
X193205612Y-117530790D01*
X193248929Y-117504364D01*
X193284971Y-117472109D01*
X193317636Y-117433447D01*
X193324442Y-117424445D01*
X193345998Y-117388790D01*
X193359201Y-117345281D01*
X193365926Y-117283069D01*
X193368046Y-117191307D01*
X193368084Y-117171752D01*
X193366539Y-117073110D01*
X193359834Y-117001226D01*
X193344863Y-116940572D01*
X193318520Y-116875622D01*
X193301715Y-116840000D01*
X193246646Y-116745598D01*
X193166519Y-116635130D01*
X193069107Y-116519255D01*
X193062477Y-116511917D01*
X192830603Y-116240391D01*
X192635367Y-115975781D01*
X192473147Y-115711920D01*
X192340323Y-115442638D01*
X192233273Y-115161767D01*
X192192631Y-115030250D01*
X192154920Y-114894053D01*
X192124873Y-114770340D01*
X192101510Y-114651114D01*
X192083849Y-114528378D01*
X192070913Y-114394135D01*
X192061719Y-114240389D01*
X192055289Y-114059143D01*
X192051249Y-113876667D01*
X192049474Y-113770350D01*
X192048285Y-113670667D01*
X192047824Y-113574242D01*
X192048234Y-113477701D01*
X192049659Y-113377668D01*
X192052240Y-113270770D01*
X192056122Y-113153630D01*
X192061445Y-113022874D01*
X192068354Y-112875127D01*
X192076991Y-112707015D01*
X192087499Y-112515161D01*
X192100021Y-112296192D01*
X192114700Y-112046733D01*
X192131678Y-111763408D01*
X192151098Y-111442843D01*
X192161426Y-111273167D01*
X192176213Y-111028831D01*
X192189408Y-110805980D01*
X192201139Y-110600524D01*
X192211530Y-110408373D01*
X192220709Y-110225437D01*
X192228802Y-110047625D01*
X192235936Y-109870847D01*
X192242236Y-109691012D01*
X192247829Y-109504031D01*
X192252842Y-109305814D01*
X192257401Y-109092269D01*
X192261632Y-108859307D01*
X192265662Y-108602837D01*
X192269616Y-108318769D01*
X192273623Y-108003014D01*
X192277807Y-107651479D01*
X192280465Y-107420834D01*
X192286936Y-106771192D01*
X192290934Y-106159955D01*
X192292325Y-105583256D01*
X192290970Y-105037229D01*
X192286733Y-104518010D01*
X192279478Y-104021733D01*
X192269067Y-103544533D01*
X192255364Y-103082545D01*
X192238231Y-102631902D01*
X192217533Y-102188741D01*
X192193132Y-101749194D01*
X192164891Y-101309398D01*
X192132674Y-100865487D01*
X192096344Y-100413595D01*
X192055764Y-99949856D01*
X192010797Y-99470407D01*
X191992428Y-99282250D01*
X191975172Y-99106439D01*
X191954713Y-98896628D01*
X191931838Y-98660964D01*
X191907333Y-98407591D01*
X191881986Y-98144655D01*
X191856582Y-97880303D01*
X191831909Y-97622678D01*
X191812529Y-97419584D01*
X191789548Y-97179006D01*
X191765569Y-96929261D01*
X191741310Y-96677757D01*
X191717492Y-96431903D01*
X191694833Y-96199106D01*
X191674052Y-95986775D01*
X191655869Y-95802318D01*
X191641968Y-95662750D01*
X191562852Y-94896150D01*
X191483416Y-94170823D01*
X191403452Y-93485711D01*
X191322753Y-92839754D01*
X191241112Y-92231893D01*
X191158322Y-91661069D01*
X191074177Y-91126222D01*
X190988468Y-90626293D01*
X190900990Y-90160223D01*
X190811535Y-89726952D01*
X190719897Y-89325422D01*
X190625867Y-88954572D01*
X190529240Y-88613344D01*
X190429809Y-88300678D01*
X190327365Y-88015515D01*
X190221703Y-87756795D01*
X190112615Y-87523460D01*
X190016393Y-87343148D01*
X189835972Y-87047434D01*
X189649798Y-86787849D01*
X189451685Y-86558190D01*
X189235447Y-86352255D01*
X188994900Y-86163841D01*
X188723858Y-85986745D01*
X188581227Y-85904004D01*
X188354410Y-85775934D01*
X188160962Y-85664134D01*
X187996547Y-85565621D01*
X187856833Y-85477413D01*
X187737485Y-85396527D01*
X187634169Y-85319982D01*
X187542550Y-85244794D01*
X187458295Y-85167981D01*
X187377070Y-85086560D01*
X187346853Y-85054602D01*
X187154343Y-84821089D01*
X186980997Y-84555711D01*
X186830568Y-84266030D01*
X186706809Y-83959610D01*
X186613473Y-83644014D01*
X186586630Y-83522594D01*
X186563900Y-83402204D01*
X186544929Y-83284709D01*
X186529029Y-83163001D01*
X186515512Y-83029972D01*
X186503689Y-82878516D01*
X186492871Y-82701526D01*
X186482371Y-82491892D01*
X186478505Y-82406367D01*
X186469289Y-82223369D01*
X186458043Y-82041291D01*
X186445314Y-81866218D01*
X186431645Y-81704230D01*
X186417583Y-81561411D01*
X186403672Y-81443843D01*
X186390457Y-81357608D01*
X186380718Y-81315158D01*
X186350938Y-81268134D01*
X186285524Y-81201121D01*
X186185649Y-81115044D01*
X186052485Y-81010825D01*
X185887205Y-80889388D01*
X185690982Y-80751658D01*
X185504667Y-80625100D01*
X185214473Y-80434650D01*
X184894996Y-80232922D01*
X184545266Y-80019367D01*
X184164313Y-79793436D01*
X183751167Y-79554579D01*
X183304855Y-79302247D01*
X182824409Y-79035892D01*
X182308858Y-78754962D01*
X181757231Y-78458911D01*
X181168557Y-78147187D01*
X180604584Y-77851902D01*
X180469717Y-77782137D01*
X180300253Y-77695302D01*
X180099547Y-77593076D01*
X179870958Y-77477137D01*
X179617842Y-77349163D01*
X179343556Y-77210834D01*
X179051458Y-77063828D01*
X178744904Y-76909824D01*
X178427252Y-76750499D01*
X178101859Y-76587533D01*
X177772082Y-76422603D01*
X177441278Y-76257390D01*
X177112805Y-76093571D01*
X176790018Y-75932824D01*
X176476277Y-75776829D01*
X176174937Y-75627263D01*
X175889356Y-75485806D01*
X175622891Y-75354136D01*
X175378898Y-75233932D01*
X175160737Y-75126871D01*
X174971762Y-75034633D01*
X174910750Y-75005005D01*
X174417938Y-74766318D01*
X173926686Y-74528875D01*
X173435481Y-74291961D01*
X172942810Y-74054867D01*
X172447162Y-73816879D01*
X171947023Y-73577287D01*
X171440882Y-73335377D01*
X170927226Y-73090439D01*
X170404542Y-72841761D01*
X169871318Y-72588629D01*
X169326042Y-72330334D01*
X168767201Y-72066162D01*
X168193283Y-71795403D01*
X167602775Y-71517343D01*
X166994165Y-71231272D01*
X166365940Y-70936477D01*
X165716589Y-70632247D01*
X165044598Y-70317869D01*
X164348455Y-69992632D01*
X163626647Y-69655824D01*
X162877663Y-69306733D01*
X162099990Y-68944647D01*
X161292115Y-68568854D01*
X160452526Y-68178643D01*
X159579710Y-67773302D01*
X158672155Y-67352118D01*
X157728349Y-66914380D01*
X157257750Y-66696206D01*
X156363188Y-66281273D01*
X155504221Y-65882301D01*
X154677849Y-65497865D01*
X153881069Y-65126539D01*
X153110878Y-64766899D01*
X152364275Y-64417518D01*
X151638258Y-64076971D01*
X150929825Y-63743833D01*
X150235973Y-63416678D01*
X149553701Y-63094081D01*
X148880007Y-62774617D01*
X148211888Y-62456859D01*
X147546342Y-62139384D01*
X146880368Y-61820764D01*
X146210963Y-61499575D01*
X145535126Y-61174392D01*
X144849853Y-60843788D01*
X144152144Y-60506339D01*
X143438996Y-60160619D01*
X142707407Y-59805203D01*
X141954375Y-59438665D01*
X141266334Y-59103217D01*
X140852092Y-58900848D01*
X140412390Y-58685536D01*
X139949699Y-58458511D01*
X139466492Y-58221002D01*
X138965241Y-57974238D01*
X138448419Y-57719448D01*
X137918496Y-57457863D01*
X137377947Y-57190711D01*
X136829242Y-56919221D01*
X136274854Y-56644624D01*
X135717256Y-56368148D01*
X135158920Y-56091023D01*
X134602317Y-55814478D01*
X134049920Y-55539743D01*
X133504201Y-55268047D01*
X132967633Y-55000618D01*
X132442687Y-54738688D01*
X131931837Y-54483484D01*
X131437553Y-54236237D01*
X130962309Y-53998175D01*
X130508577Y-53770528D01*
X130078828Y-53554526D01*
X129675535Y-53351397D01*
X129301171Y-53162372D01*
X128958207Y-52988679D01*
X128649116Y-52831548D01*
X128460500Y-52735275D01*
X128140834Y-52571863D01*
X127855880Y-52426399D01*
X127602696Y-52297483D01*
X127378342Y-52183715D01*
X127179877Y-52083695D01*
X127004359Y-51996021D01*
X126848848Y-51919293D01*
X126710403Y-51852110D01*
X126586083Y-51793073D01*
X126472947Y-51740779D01*
X126368053Y-51693830D01*
X126268462Y-51650824D01*
X126171232Y-51610360D01*
X126073422Y-51571039D01*
X125972091Y-51531459D01*
X125864298Y-51490219D01*
X125775796Y-51456737D01*
X125588485Y-51388684D01*
X125430284Y-51337768D01*
X125292472Y-51302127D01*
X125166327Y-51279902D01*
X125043129Y-51269231D01*
X124914155Y-51268255D01*
X124894832Y-51268796D01*
X124788513Y-51273012D01*
X124711455Y-51279617D01*
X124650587Y-51291479D01*
X124592839Y-51311467D01*
X124525141Y-51342448D01*
X124497586Y-51355970D01*
X124345301Y-51449815D01*
X124205256Y-51575617D01*
X124076184Y-51735265D01*
X123956814Y-51930649D01*
X123845880Y-52163657D01*
X123742113Y-52436180D01*
X123712122Y-52526138D01*
X123675279Y-52641622D01*
X123642493Y-52748839D01*
X123611700Y-52855501D01*
X123580835Y-52969323D01*
X123547832Y-53098016D01*
X123510627Y-53249294D01*
X123467155Y-53430869D01*
X123446084Y-53519917D01*
X123371999Y-53814759D01*
X123297376Y-54070688D01*
X123220303Y-54291103D01*
X123138866Y-54479402D01*
X123051153Y-54638984D01*
X122955250Y-54773246D01*
X122849245Y-54885587D01*
X122731225Y-54979406D01*
X122599277Y-55058101D01*
X122572703Y-55071511D01*
X122414801Y-55138262D01*
X122258259Y-55179835D01*
X122089986Y-55198630D01*
X121896889Y-55197044D01*
X121889692Y-55196659D01*
X121787151Y-55188867D01*
X121687763Y-55176045D01*
X121587204Y-55156641D01*
X121481153Y-55129106D01*
X121365286Y-55091890D01*
X121235281Y-55043441D01*
X121086815Y-54982210D01*
X120915565Y-54906646D01*
X120717209Y-54815199D01*
X120487424Y-54706320D01*
X120383701Y-54656558D01*
X120109544Y-54526375D01*
X119868845Y-54415951D01*
X119658288Y-54324071D01*
X119474560Y-54249518D01*
X119314346Y-54191075D01*
X119174332Y-54147525D01*
X119051204Y-54117653D01*
X118941648Y-54100241D01*
X118851716Y-54094215D01*
X118774468Y-54095422D01*
X118710337Y-54105417D01*
X118642932Y-54128349D01*
X118555859Y-54168366D01*
X118552783Y-54169868D01*
X118357962Y-54288307D01*
X118178377Y-54444864D01*
X118015281Y-54637701D01*
X117869928Y-54864979D01*
X117743569Y-55124859D01*
X117637459Y-55415502D01*
X117589263Y-55583667D01*
X117537999Y-55794860D01*
X117496160Y-56002983D01*
X117463346Y-56213728D01*
X117439155Y-56432785D01*
X117423185Y-56665846D01*
X117415033Y-56918602D01*
X117414300Y-57196743D01*
X117420582Y-57505962D01*
X117431845Y-57814169D01*
X117440200Y-58027823D01*
X117445075Y-58205244D01*
X117446075Y-58352418D01*
X117442805Y-58475332D01*
X117434871Y-58579974D01*
X117421876Y-58672331D01*
X117403425Y-58758389D01*
X117379124Y-58844136D01*
X117360005Y-58902537D01*
X117254933Y-59157731D01*
X117125157Y-59378584D01*
X116970702Y-59565069D01*
X116791593Y-59717162D01*
X116587854Y-59834840D01*
X116359511Y-59918076D01*
X116328821Y-59926163D01*
X116242891Y-59945834D01*
X116164867Y-59957791D01*
X116081206Y-59963061D01*
X115978364Y-59962673D01*
X115888284Y-59959609D01*
X115773840Y-59952931D01*
X115660533Y-59941699D01*
X115545335Y-59924886D01*
X115425221Y-59901462D01*
X115297162Y-59870400D01*
X115158133Y-59830671D01*
X115005106Y-59781247D01*
X114835056Y-59721099D01*
X114644955Y-59649199D01*
X114431776Y-59564518D01*
X114192494Y-59466029D01*
X113924081Y-59352702D01*
X113623511Y-59223510D01*
X113287757Y-59077424D01*
X113273417Y-59071156D01*
X112862394Y-58894341D01*
X112485842Y-58738453D01*
X112141843Y-58602788D01*
X111828480Y-58486640D01*
X111543835Y-58389304D01*
X111285992Y-58310073D01*
X111053032Y-58248242D01*
X111008584Y-58237747D01*
X110890090Y-58212140D01*
X110787499Y-58194951D01*
X110685721Y-58184567D01*
X110569666Y-58179379D01*
X110447667Y-58177845D01*
X110140750Y-58176584D01*
X109977643Y-58254328D01*
X109744131Y-58378461D01*
X109540874Y-58515334D01*
X109366110Y-58668041D01*
X109218080Y-58839675D01*
X109095022Y-59033330D01*
X108995174Y-59252098D01*
X108916777Y-59499073D01*
X108858068Y-59777349D01*
X108817288Y-60090018D01*
X108798829Y-60325000D01*
X108788891Y-60598576D01*
X108795100Y-60852206D01*
X108818828Y-61099533D01*
X108861444Y-61354200D01*
X108924318Y-61629852D01*
X108933442Y-61665582D01*
X109038923Y-62020807D01*
X109175547Y-62393925D01*
X109339898Y-62778381D01*
X109528557Y-63167621D01*
X109738109Y-63555090D01*
X109965136Y-63934233D01*
X110206220Y-64298495D01*
X110457945Y-64641322D01*
X110536987Y-64741451D01*
X110993852Y-65296622D01*
X111458276Y-65834990D01*
X111927078Y-66353285D01*
X112397073Y-66848238D01*
X112865079Y-67316581D01*
X113327912Y-67755045D01*
X113782391Y-68160361D01*
X114225330Y-68529261D01*
X114225917Y-68529731D01*
X114401044Y-68668606D01*
X114573144Y-68801761D01*
X114746080Y-68931850D01*
X114923717Y-69061525D01*
X115109918Y-69193440D01*
X115308548Y-69330248D01*
X115523470Y-69474601D01*
X115758548Y-69629154D01*
X116017645Y-69796557D01*
X116304627Y-69979466D01*
X116623356Y-70180533D01*
X116702417Y-70230162D01*
X117007937Y-70422823D01*
X117279608Y-70596473D01*
X117520307Y-70753158D01*
X117732909Y-70894923D01*
X117920292Y-71023816D01*
X118085332Y-71141881D01*
X118230904Y-71251165D01*
X118359885Y-71353714D01*
X118475152Y-71451573D01*
X118579580Y-71546789D01*
X118651211Y-71616392D01*
X118798902Y-71771640D01*
X118917115Y-71914898D01*
X119012827Y-72055698D01*
X119093014Y-72203571D01*
X119114291Y-72248985D01*
X119176183Y-72401485D01*
X119215169Y-72542418D01*
X119235012Y-72689691D01*
X119239603Y-72845084D01*
X119226419Y-73032321D01*
X119187044Y-73209661D01*
X119118749Y-73383483D01*
X119018801Y-73560163D01*
X118884467Y-73746079D01*
X118819668Y-73825444D01*
X118699574Y-73962073D01*
X118568382Y-74098707D01*
X118423659Y-74237194D01*
X118262971Y-74379383D01*
X118083885Y-74527122D01*
X117883967Y-74682258D01*
X117660783Y-74846639D01*
X117411901Y-75022115D01*
X117134888Y-75210532D01*
X116827308Y-75413739D01*
X116486730Y-75633584D01*
X116194417Y-75819183D01*
X115950718Y-75972989D01*
X115739471Y-76106392D01*
X115557305Y-76221546D01*
X115400847Y-76320606D01*
X115266728Y-76405728D01*
X115151575Y-76479065D01*
X115052018Y-76542773D01*
X114964686Y-76599005D01*
X114886208Y-76649918D01*
X114813211Y-76697665D01*
X114742326Y-76744401D01*
X114670182Y-76792281D01*
X114628084Y-76820323D01*
X114455315Y-76937809D01*
X114287277Y-77056389D01*
X114129513Y-77171872D01*
X113987569Y-77280066D01*
X113866990Y-77376779D01*
X113773323Y-77457818D01*
X113731293Y-77498254D01*
X113638837Y-77593111D01*
X113647188Y-77737930D01*
X113652316Y-77800176D01*
X113662069Y-77853987D01*
X113680048Y-77908934D01*
X113709851Y-77974587D01*
X113755081Y-78060516D01*
X113797232Y-78136750D01*
X113860422Y-78253395D01*
X113925703Y-78379581D01*
X113985092Y-78499567D01*
X114028057Y-78591834D01*
X114117189Y-78792917D01*
X114118636Y-79163334D01*
X114118526Y-79305629D01*
X114116371Y-79415290D01*
X114111333Y-79501999D01*
X114102574Y-79575437D01*
X114089255Y-79645286D01*
X114070537Y-79721228D01*
X114070208Y-79722473D01*
X114016316Y-79904926D01*
X113949409Y-80091333D01*
X113867668Y-80285055D01*
X113769271Y-80489457D01*
X113652398Y-80707901D01*
X113515229Y-80943749D01*
X113355944Y-81200366D01*
X113172720Y-81481114D01*
X112963739Y-81789355D01*
X112906172Y-81872667D01*
X112667416Y-82217552D01*
X112449574Y-82533711D01*
X112250433Y-82824896D01*
X112067782Y-83094858D01*
X111899409Y-83347348D01*
X111743102Y-83586119D01*
X111596648Y-83814922D01*
X111457836Y-84037508D01*
X111324454Y-84257630D01*
X111194290Y-84479038D01*
X111065132Y-84705484D01*
X110934768Y-84940720D01*
X110800986Y-85188498D01*
X110661574Y-85452569D01*
X110514320Y-85736685D01*
X110357012Y-86044596D01*
X110187439Y-86380056D01*
X110003388Y-86746815D01*
X109842338Y-87069084D01*
X109720815Y-87312449D01*
X109601709Y-87550755D01*
X109486823Y-87780407D01*
X109377961Y-87997810D01*
X109276925Y-88199371D01*
X109185517Y-88381494D01*
X109105541Y-88540587D01*
X109038800Y-88673055D01*
X108987097Y-88775303D01*
X108952233Y-88843738D01*
X108948948Y-88850127D01*
X108897776Y-88952943D01*
X108834942Y-89084653D01*
X108765133Y-89235105D01*
X108693039Y-89394144D01*
X108623347Y-89551618D01*
X108597093Y-89612127D01*
X108472635Y-89896752D01*
X108359961Y-90145074D01*
X108256983Y-90360788D01*
X108161616Y-90547586D01*
X108071774Y-90709164D01*
X107985369Y-90849214D01*
X107900316Y-90971432D01*
X107814529Y-91079510D01*
X107725920Y-91177144D01*
X107696243Y-91207167D01*
X107505948Y-91372122D01*
X107306920Y-91496988D01*
X107095330Y-91583721D01*
X106867349Y-91634281D01*
X106858616Y-91635474D01*
X106633995Y-91645326D01*
X106418455Y-91614991D01*
X106215139Y-91546195D01*
X106027186Y-91440666D01*
X105857738Y-91300131D01*
X105709937Y-91126316D01*
X105597686Y-90942210D01*
X105529542Y-90802307D01*
X105477689Y-90674717D01*
X105434067Y-90538259D01*
X105409836Y-90448543D01*
X105386170Y-90356670D01*
X105284103Y-90463124D01*
X105140852Y-90589276D01*
X104971716Y-90699758D01*
X104854375Y-90758419D01*
X104797682Y-90785311D01*
X104761221Y-90806384D01*
X104753833Y-90813842D01*
X104761060Y-90837514D01*
X104780213Y-90890159D01*
X104807504Y-90961442D01*
X104814411Y-90979074D01*
X104881841Y-91158108D01*
X104941581Y-91334458D01*
X104994448Y-91512702D01*
X105041260Y-91697419D01*
X105082836Y-91893187D01*
X105119992Y-92104585D01*
X105153548Y-92336191D01*
X105184320Y-92592585D01*
X105213126Y-92878345D01*
X105240785Y-93198049D01*
X105263509Y-93493167D01*
X105277639Y-93693327D01*
X105288752Y-93874912D01*
X105296515Y-94042513D01*
X105300596Y-94200720D01*
X105300662Y-94354124D01*
X105296379Y-94507315D01*
X105287416Y-94664886D01*
X105273440Y-94831425D01*
X105254117Y-95011525D01*
X105229116Y-95209776D01*
X105198102Y-95430768D01*
X105160745Y-95679092D01*
X105116710Y-95959340D01*
X105065666Y-96276102D01*
X105058707Y-96318917D01*
X105020598Y-96552172D01*
X104986059Y-96760199D01*
X104953999Y-96947913D01*
X104923329Y-97120228D01*
X104892960Y-97282059D01*
X104861801Y-97438321D01*
X104828764Y-97593929D01*
X104792758Y-97753796D01*
X104752693Y-97922838D01*
X104707481Y-98105969D01*
X104656031Y-98308104D01*
X104597254Y-98534158D01*
X104530060Y-98789044D01*
X104453359Y-99077679D01*
X104415754Y-99218750D01*
X104291382Y-99689430D01*
X104179180Y-100124150D01*
X104078349Y-100527249D01*
X103988093Y-100903067D01*
X103907616Y-101255941D01*
X103836119Y-101590212D01*
X103772807Y-101910219D01*
X103716881Y-102220300D01*
X103667546Y-102524794D01*
X103624004Y-102828041D01*
X103585459Y-103134380D01*
X103551113Y-103448149D01*
X103520169Y-103773687D01*
X103491831Y-104115334D01*
X103474936Y-104341084D01*
X103464997Y-104481264D01*
X103455619Y-104619072D01*
X103446582Y-104758605D01*
X103437663Y-104903960D01*
X103428643Y-105059234D01*
X103419298Y-105228523D01*
X103409409Y-105415926D01*
X103398753Y-105625538D01*
X103387108Y-105861458D01*
X103374255Y-106127780D01*
X103359970Y-106428604D01*
X103345676Y-106732917D01*
X103334388Y-106972043D01*
X103322640Y-107217090D01*
X103310770Y-107461231D01*
X103299118Y-107697642D01*
X103288021Y-107919497D01*
X103277820Y-108119971D01*
X103268852Y-108292239D01*
X103261458Y-108429476D01*
X103261051Y-108436834D01*
X103247455Y-108736391D01*
X103237664Y-109072528D01*
X103231634Y-109439664D01*
X103229319Y-109832221D01*
X101205555Y-109832221D01*
X101205994Y-109628079D01*
X101211761Y-109255580D01*
X101222612Y-108882805D01*
X101238683Y-108499164D01*
X101251593Y-108246334D01*
X101258722Y-108111546D01*
X101267440Y-107941293D01*
X101277412Y-107742402D01*
X101288303Y-107521698D01*
X101299779Y-107286005D01*
X101311505Y-107042149D01*
X101323148Y-106796956D01*
X101334373Y-106557251D01*
X101335061Y-106542417D01*
X101360640Y-106004031D01*
X101385841Y-105504378D01*
X101411191Y-105039866D01*
X101437217Y-104606903D01*
X101464446Y-104201899D01*
X101493405Y-103821261D01*
X101524620Y-103461399D01*
X101558619Y-103118722D01*
X101595928Y-102789637D01*
X101637074Y-102470554D01*
X101682583Y-102157882D01*
X101732984Y-101848028D01*
X101788802Y-101537402D01*
X101850565Y-101222411D01*
X101918798Y-100899466D01*
X101994030Y-100564975D01*
X102076787Y-100215345D01*
X102167596Y-99846987D01*
X102266983Y-99456307D01*
X102375476Y-99039716D01*
X102493601Y-98593622D01*
X102510344Y-98530834D01*
X102586063Y-98246494D01*
X102651865Y-97997492D01*
X102708958Y-97778320D01*
X102758545Y-97583469D01*
X102801833Y-97407432D01*
X102840027Y-97244700D01*
X102874334Y-97089765D01*
X102905958Y-96937119D01*
X102936106Y-96781253D01*
X102965982Y-96616660D01*
X102996794Y-96437831D01*
X103029746Y-96239258D01*
X103066044Y-96015432D01*
X103080207Y-95927334D01*
X103126720Y-95635641D01*
X103166401Y-95381201D01*
X103199628Y-95159554D01*
X103226784Y-94966239D01*
X103248249Y-94796794D01*
X103264404Y-94646758D01*
X103275630Y-94511672D01*
X103282307Y-94387073D01*
X103284816Y-94268501D01*
X103283538Y-94151495D01*
X103278854Y-94031595D01*
X103271144Y-93904338D01*
X103262687Y-93789500D01*
X103239741Y-93498989D01*
X103218829Y-93246535D01*
X103199406Y-93027941D01*
X103180929Y-92839009D01*
X103162854Y-92675543D01*
X103144637Y-92533345D01*
X103125735Y-92408218D01*
X103105604Y-92295964D01*
X103083700Y-92192385D01*
X103059480Y-92093285D01*
X103032400Y-91994466D01*
X103028364Y-91980464D01*
X102972799Y-91810419D01*
X102906009Y-91650319D01*
X102822286Y-91488393D01*
X102715922Y-91312869D01*
X102672099Y-91245757D01*
X102550464Y-91051908D01*
X102457718Y-90878412D01*
X102391078Y-90717538D01*
X102347759Y-90561553D01*
X102324977Y-90402724D01*
X102319667Y-90266953D01*
X102338868Y-90034273D01*
X102395535Y-89819892D01*
X102488259Y-89625345D01*
X102615636Y-89452165D01*
X102776258Y-89301884D01*
X102968719Y-89176038D01*
X103191612Y-89076158D01*
X103443531Y-89003779D01*
X103486522Y-88994836D01*
X103669128Y-88958741D01*
X103679833Y-88331412D01*
X103686697Y-88059095D01*
X103697958Y-87823198D01*
X103714587Y-87617948D01*
X103737560Y-87437570D01*
X103767847Y-87276291D01*
X103806424Y-87128336D01*
X103854263Y-86987931D01*
X103912337Y-86849303D01*
X103939369Y-86791559D01*
X104067255Y-86571395D01*
X104223994Y-86380280D01*
X104406791Y-86220418D01*
X104612850Y-86094012D01*
X104839374Y-86003267D01*
X104986128Y-85966421D01*
X105215890Y-85941102D01*
X105453340Y-85952042D01*
X105690381Y-85997003D01*
X105918917Y-86073750D01*
X106130848Y-86180044D01*
X106318079Y-86313650D01*
X106352224Y-86343795D01*
X106469113Y-86460126D01*
X106572668Y-86584436D01*
X106664818Y-86721116D01*
X106747491Y-86874557D01*
X106822615Y-87049149D01*
X106892118Y-87249282D01*
X106957929Y-87479348D01*
X107021975Y-87743737D01*
X107074289Y-87988058D01*
X107079380Y-87998487D01*
X107089006Y-87997379D01*
X107104219Y-87982754D01*
X107126068Y-87952631D01*
X107155607Y-87905028D01*
X107193886Y-87837966D01*
X107241957Y-87749463D01*
X107300872Y-87637538D01*
X107371682Y-87500210D01*
X107455438Y-87335500D01*
X107553192Y-87141425D01*
X107665995Y-86916005D01*
X107794899Y-86657259D01*
X107940955Y-86363206D01*
X108000287Y-86243584D01*
X108184702Y-85872479D01*
X108352882Y-85535945D01*
X108506766Y-85230319D01*
X108648294Y-84951938D01*
X108779408Y-84697141D01*
X108902049Y-84462265D01*
X109018156Y-84243647D01*
X109129671Y-84037626D01*
X109238533Y-83840540D01*
X109346685Y-83648726D01*
X109456066Y-83458521D01*
X109568617Y-83266265D01*
X109656275Y-83118527D01*
X109741433Y-82976510D01*
X109823652Y-82841249D01*
X109905296Y-82709173D01*
X109988730Y-82576712D01*
X110076317Y-82440296D01*
X110170422Y-82296354D01*
X110273410Y-82141316D01*
X110387643Y-81971612D01*
X110515487Y-81783671D01*
X110659306Y-81573922D01*
X110821464Y-81338796D01*
X111004324Y-81074722D01*
X111119919Y-80908159D01*
X111319155Y-80618694D01*
X111492882Y-80360755D01*
X111642058Y-80132828D01*
X111767643Y-79933402D01*
X111870595Y-79760964D01*
X111951874Y-79614002D01*
X111994834Y-79528721D01*
X112044792Y-79421489D01*
X112075989Y-79342250D01*
X112089370Y-79281531D01*
X112085880Y-79229857D01*
X112066461Y-79177754D01*
X112035427Y-79121442D01*
X111897077Y-78866534D01*
X111791104Y-78623720D01*
X111713701Y-78383118D01*
X111665345Y-78160436D01*
X111651031Y-78048301D01*
X111640888Y-77909294D01*
X111634931Y-77753690D01*
X111633177Y-77591764D01*
X111635640Y-77433790D01*
X111642336Y-77290041D01*
X111653283Y-77170793D01*
X111663717Y-77106286D01*
X111719095Y-76910975D01*
X111802775Y-76718221D01*
X111916525Y-76525867D01*
X112062113Y-76331758D01*
X112241308Y-76133739D01*
X112455879Y-75929653D01*
X112707594Y-75717345D01*
X112967012Y-75517712D01*
X113117183Y-75409378D01*
X113302031Y-75281399D01*
X113521893Y-75133554D01*
X113777102Y-74965623D01*
X114067995Y-74777386D01*
X114394908Y-74568622D01*
X114758177Y-74339111D01*
X114829167Y-74294501D01*
X115160580Y-74085483D01*
X115457819Y-73895991D01*
X115723355Y-73724360D01*
X115959660Y-73568922D01*
X116169206Y-73428011D01*
X116354463Y-73299960D01*
X116517905Y-73183103D01*
X116662002Y-73075771D01*
X116789226Y-72976300D01*
X116815986Y-72954663D01*
X116971889Y-72827786D01*
X116921819Y-72788405D01*
X116855570Y-72739343D01*
X116756870Y-72670535D01*
X116629355Y-72584368D01*
X116476661Y-72483229D01*
X116302423Y-72369504D01*
X116110277Y-72245582D01*
X115903860Y-72113847D01*
X115686806Y-71976689D01*
X115654667Y-71956493D01*
X115208977Y-71674380D01*
X114797191Y-71408705D01*
X114415557Y-71156557D01*
X114060324Y-70915028D01*
X113727742Y-70681208D01*
X113414059Y-70452189D01*
X113115524Y-70225060D01*
X112828387Y-69996912D01*
X112548897Y-69764837D01*
X112273302Y-69525925D01*
X111997852Y-69277267D01*
X111718796Y-69015954D01*
X111432382Y-68739077D01*
X111166698Y-68475657D01*
X110923654Y-68228478D01*
X110674789Y-67968407D01*
X110423150Y-67698995D01*
X110171780Y-67423795D01*
X109923724Y-67146356D01*
X109682026Y-66870232D01*
X109449730Y-66598972D01*
X109229881Y-66336129D01*
X109025523Y-66085255D01*
X108839700Y-65849900D01*
X108675457Y-65633616D01*
X108535837Y-65439955D01*
X108432523Y-65286022D01*
X108100234Y-64745390D01*
X107806145Y-64220503D01*
X107549729Y-63710009D01*
X107330460Y-63212551D01*
X107147811Y-62726775D01*
X107001257Y-62251328D01*
X106890272Y-61784855D01*
X106814328Y-61326001D01*
X106784604Y-61044667D01*
X106772542Y-60817488D01*
X106770633Y-60560992D01*
X106778638Y-60286904D01*
X106796317Y-60006944D01*
X106808562Y-59869917D01*
X106870068Y-59416968D01*
X106962661Y-58992572D01*
X107086664Y-58596195D01*
X107242404Y-58227306D01*
X107430205Y-57885373D01*
X107650394Y-57569862D01*
X107903296Y-57280242D01*
X108189236Y-57015980D01*
X108508540Y-56776544D01*
X108815276Y-56587141D01*
X109106183Y-56437052D01*
X109393653Y-56318127D01*
X109682029Y-56229989D01*
X109975656Y-56172259D01*
X110278874Y-56144557D01*
X110596028Y-56146505D01*
X110931460Y-56177724D01*
X111289512Y-56237835D01*
X111674528Y-56326460D01*
X111707084Y-56334890D01*
X111910153Y-56390539D01*
X112118951Y-56453286D01*
X112337223Y-56524546D01*
X112568718Y-56605736D01*
X112817181Y-56698271D01*
X113086361Y-56803567D01*
X113380005Y-56923040D01*
X113701859Y-57058104D01*
X114055672Y-57210177D01*
X114261859Y-57300095D01*
X114422287Y-57370046D01*
X114588252Y-57441847D01*
X114750375Y-57511479D01*
X114899275Y-57574924D01*
X115025571Y-57628164D01*
X115097102Y-57657864D01*
X115396787Y-57781050D01*
X115406197Y-56994567D01*
X115408878Y-56785754D01*
X115411674Y-56613279D01*
X115414933Y-56471145D01*
X115419000Y-56353357D01*
X115424224Y-56253919D01*
X115430951Y-56166835D01*
X115439529Y-56086110D01*
X115450305Y-56005749D01*
X115463626Y-55919755D01*
X115471053Y-55874552D01*
X115552793Y-55440092D01*
X115648176Y-55041868D01*
X115758881Y-54675510D01*
X115886586Y-54336645D01*
X116032970Y-54020903D01*
X116199710Y-53723912D01*
X116388486Y-53441301D01*
X116423972Y-53392917D01*
X116516016Y-53278997D01*
X116632522Y-53149755D01*
X116764147Y-53014382D01*
X116901550Y-52882068D01*
X117035386Y-52762004D01*
X117156314Y-52663382D01*
X117193392Y-52635966D01*
X117452338Y-52469965D01*
X117726826Y-52329302D01*
X118009694Y-52216488D01*
X118293781Y-52134034D01*
X118571927Y-52084450D01*
X118807494Y-52070000D01*
X119034303Y-52078763D01*
X119267331Y-52105790D01*
X119510225Y-52152192D01*
X119766629Y-52219078D01*
X120040187Y-52307558D01*
X120334547Y-52418741D01*
X120653351Y-52553737D01*
X121000246Y-52713656D01*
X121134337Y-52778336D01*
X121502257Y-52957700D01*
X121603538Y-52561475D01*
X121717141Y-52147831D01*
X121837162Y-51772754D01*
X121965293Y-51432740D01*
X122103229Y-51124287D01*
X122252665Y-50843891D01*
X122415295Y-50588051D01*
X122592812Y-50353262D01*
X122766294Y-50157490D01*
X123010846Y-49930659D01*
X123285225Y-49730518D01*
X123584355Y-49559801D01*
X123903159Y-49421245D01*
X124236560Y-49317583D01*
X124389176Y-49283212D01*
X124518727Y-49264563D01*
X124678682Y-49252579D01*
X124857647Y-49247228D01*
X125044225Y-49248478D01*
M02*
