G04 #@! TF.GenerationSoftware,KiCad,Pcbnew,(5.1.9-0-10_14)*
G04 #@! TF.CreationDate,2022-03-06T10:31:41-07:00*
G04 #@! TF.ProjectId,001,3030312e-6b69-4636-9164-5f7063625858,rev?*
G04 #@! TF.SameCoordinates,Original*
G04 #@! TF.FileFunction,Copper,L2,Bot*
G04 #@! TF.FilePolarity,Positive*
%FSLAX46Y46*%
G04 Gerber Fmt 4.6, Leading zero omitted, Abs format (unit mm)*
G04 Created by KiCad (PCBNEW (5.1.9-0-10_14)) date 2022-03-06 10:31:41*
%MOMM*%
%LPD*%
G01*
G04 APERTURE LIST*
G04 #@! TA.AperFunction,EtchedComponent*
%ADD10C,0.010000*%
G04 #@! TD*
G04 APERTURE END LIST*
D10*
G36*
X190942725Y-113390286D02*
G01*
X191209084Y-113396184D01*
X191202111Y-113629017D01*
X191168451Y-114071001D01*
X191094649Y-114515980D01*
X190982065Y-114958597D01*
X190832058Y-115393492D01*
X190648998Y-115809184D01*
X190415955Y-116236353D01*
X190148528Y-116639743D01*
X189848407Y-117017730D01*
X189517281Y-117368693D01*
X189156836Y-117691009D01*
X188768763Y-117983055D01*
X188354749Y-118243210D01*
X187916484Y-118469851D01*
X187846421Y-118501908D01*
X187684282Y-118570548D01*
X187497676Y-118642438D01*
X187296717Y-118714233D01*
X187091520Y-118782591D01*
X186892202Y-118844170D01*
X186708875Y-118895627D01*
X186551656Y-118933620D01*
X186520667Y-118940020D01*
X186223405Y-118988387D01*
X185909597Y-119020272D01*
X185594998Y-119034700D01*
X185295364Y-119030696D01*
X185176584Y-119023188D01*
X184975809Y-119006887D01*
X184814550Y-118993365D01*
X184690095Y-118982372D01*
X184599734Y-118973659D01*
X184540758Y-118966976D01*
X184510455Y-118962072D01*
X184508565Y-118961576D01*
X184494163Y-118953245D01*
X184486742Y-118933379D01*
X184486136Y-118894270D01*
X184492177Y-118828211D01*
X184503681Y-118735326D01*
X184519503Y-118613437D01*
X184531904Y-118527537D01*
X184543512Y-118471716D01*
X184556956Y-118440065D01*
X184574865Y-118426673D01*
X184599865Y-118425630D01*
X184634586Y-118431026D01*
X184638710Y-118431695D01*
X184849367Y-118456922D01*
X185090275Y-118471335D01*
X185350813Y-118475135D01*
X185620357Y-118468522D01*
X185888284Y-118451698D01*
X186143970Y-118424861D01*
X186310457Y-118400145D01*
X186769078Y-118301688D01*
X187213215Y-118165386D01*
X187640642Y-117992848D01*
X188049129Y-117785686D01*
X188436447Y-117545509D01*
X188800370Y-117273928D01*
X189138668Y-116972554D01*
X189449114Y-116642997D01*
X189729478Y-116286868D01*
X189977534Y-115905777D01*
X190119544Y-115647098D01*
X190293859Y-115272504D01*
X190432052Y-114899009D01*
X190536490Y-114518043D01*
X190609540Y-114121038D01*
X190652227Y-113718369D01*
X190676367Y-113384388D01*
X190942725Y-113390286D01*
G37*
X190942725Y-113390286D02*
X191209084Y-113396184D01*
X191202111Y-113629017D01*
X191168451Y-114071001D01*
X191094649Y-114515980D01*
X190982065Y-114958597D01*
X190832058Y-115393492D01*
X190648998Y-115809184D01*
X190415955Y-116236353D01*
X190148528Y-116639743D01*
X189848407Y-117017730D01*
X189517281Y-117368693D01*
X189156836Y-117691009D01*
X188768763Y-117983055D01*
X188354749Y-118243210D01*
X187916484Y-118469851D01*
X187846421Y-118501908D01*
X187684282Y-118570548D01*
X187497676Y-118642438D01*
X187296717Y-118714233D01*
X187091520Y-118782591D01*
X186892202Y-118844170D01*
X186708875Y-118895627D01*
X186551656Y-118933620D01*
X186520667Y-118940020D01*
X186223405Y-118988387D01*
X185909597Y-119020272D01*
X185594998Y-119034700D01*
X185295364Y-119030696D01*
X185176584Y-119023188D01*
X184975809Y-119006887D01*
X184814550Y-118993365D01*
X184690095Y-118982372D01*
X184599734Y-118973659D01*
X184540758Y-118966976D01*
X184510455Y-118962072D01*
X184508565Y-118961576D01*
X184494163Y-118953245D01*
X184486742Y-118933379D01*
X184486136Y-118894270D01*
X184492177Y-118828211D01*
X184503681Y-118735326D01*
X184519503Y-118613437D01*
X184531904Y-118527537D01*
X184543512Y-118471716D01*
X184556956Y-118440065D01*
X184574865Y-118426673D01*
X184599865Y-118425630D01*
X184634586Y-118431026D01*
X184638710Y-118431695D01*
X184849367Y-118456922D01*
X185090275Y-118471335D01*
X185350813Y-118475135D01*
X185620357Y-118468522D01*
X185888284Y-118451698D01*
X186143970Y-118424861D01*
X186310457Y-118400145D01*
X186769078Y-118301688D01*
X187213215Y-118165386D01*
X187640642Y-117992848D01*
X188049129Y-117785686D01*
X188436447Y-117545509D01*
X188800370Y-117273928D01*
X189138668Y-116972554D01*
X189449114Y-116642997D01*
X189729478Y-116286868D01*
X189977534Y-115905777D01*
X190119544Y-115647098D01*
X190293859Y-115272504D01*
X190432052Y-114899009D01*
X190536490Y-114518043D01*
X190609540Y-114121038D01*
X190652227Y-113718369D01*
X190676367Y-113384388D01*
X190942725Y-113390286D01*
G36*
X167471893Y-117670043D02*
G01*
X167583962Y-117702376D01*
X167678066Y-117758771D01*
X167733466Y-117820264D01*
X167778052Y-117915769D01*
X167809262Y-118039921D01*
X167824859Y-118180524D01*
X167823633Y-118312035D01*
X167802867Y-118467426D01*
X167763462Y-118589162D01*
X167703197Y-118682608D01*
X167649498Y-118732479D01*
X167605330Y-118763029D01*
X167562496Y-118781903D01*
X167508178Y-118792363D01*
X167429561Y-118797670D01*
X167387691Y-118799104D01*
X167289093Y-118799961D01*
X167219721Y-118794309D01*
X167166727Y-118780330D01*
X167128412Y-118762430D01*
X167040696Y-118697428D01*
X166977212Y-118608555D01*
X166936302Y-118491803D01*
X166916307Y-118343164D01*
X166915353Y-118307573D01*
X167217642Y-118307573D01*
X167224454Y-118412297D01*
X167242082Y-118487924D01*
X167271500Y-118540603D01*
X167281347Y-118551447D01*
X167335385Y-118587745D01*
X167395533Y-118586546D01*
X167416802Y-118579452D01*
X167461784Y-118544508D01*
X167492856Y-118477778D01*
X167510872Y-118376291D01*
X167516683Y-118237080D01*
X167516677Y-118231821D01*
X167512012Y-118096984D01*
X167497344Y-117999608D01*
X167470563Y-117935562D01*
X167429559Y-117900717D01*
X167372220Y-117890941D01*
X167343667Y-117893199D01*
X167305213Y-117910338D01*
X167270843Y-117937369D01*
X167249671Y-117966365D01*
X167235534Y-118010186D01*
X167226362Y-118078334D01*
X167220676Y-118167604D01*
X167217642Y-118307573D01*
X166915353Y-118307573D01*
X166913631Y-118243350D01*
X166919419Y-118095646D01*
X166937428Y-117980251D01*
X166970089Y-117888288D01*
X167019834Y-117810882D01*
X167037859Y-117789826D01*
X167124841Y-117721665D01*
X167232638Y-117679264D01*
X167351553Y-117662198D01*
X167471893Y-117670043D01*
G37*
X167471893Y-117670043D02*
X167583962Y-117702376D01*
X167678066Y-117758771D01*
X167733466Y-117820264D01*
X167778052Y-117915769D01*
X167809262Y-118039921D01*
X167824859Y-118180524D01*
X167823633Y-118312035D01*
X167802867Y-118467426D01*
X167763462Y-118589162D01*
X167703197Y-118682608D01*
X167649498Y-118732479D01*
X167605330Y-118763029D01*
X167562496Y-118781903D01*
X167508178Y-118792363D01*
X167429561Y-118797670D01*
X167387691Y-118799104D01*
X167289093Y-118799961D01*
X167219721Y-118794309D01*
X167166727Y-118780330D01*
X167128412Y-118762430D01*
X167040696Y-118697428D01*
X166977212Y-118608555D01*
X166936302Y-118491803D01*
X166916307Y-118343164D01*
X166915353Y-118307573D01*
X167217642Y-118307573D01*
X167224454Y-118412297D01*
X167242082Y-118487924D01*
X167271500Y-118540603D01*
X167281347Y-118551447D01*
X167335385Y-118587745D01*
X167395533Y-118586546D01*
X167416802Y-118579452D01*
X167461784Y-118544508D01*
X167492856Y-118477778D01*
X167510872Y-118376291D01*
X167516683Y-118237080D01*
X167516677Y-118231821D01*
X167512012Y-118096984D01*
X167497344Y-117999608D01*
X167470563Y-117935562D01*
X167429559Y-117900717D01*
X167372220Y-117890941D01*
X167343667Y-117893199D01*
X167305213Y-117910338D01*
X167270843Y-117937369D01*
X167249671Y-117966365D01*
X167235534Y-118010186D01*
X167226362Y-118078334D01*
X167220676Y-118167604D01*
X167217642Y-118307573D01*
X166915353Y-118307573D01*
X166913631Y-118243350D01*
X166919419Y-118095646D01*
X166937428Y-117980251D01*
X166970089Y-117888288D01*
X167019834Y-117810882D01*
X167037859Y-117789826D01*
X167124841Y-117721665D01*
X167232638Y-117679264D01*
X167351553Y-117662198D01*
X167471893Y-117670043D01*
G36*
X169942070Y-117669680D02*
G01*
X170076952Y-117696925D01*
X170189325Y-117747169D01*
X170274975Y-117818518D01*
X170329688Y-117909076D01*
X170349250Y-118016949D01*
X170349254Y-118018939D01*
X170332731Y-118125157D01*
X170282278Y-118213236D01*
X170196294Y-118284503D01*
X170073175Y-118340288D01*
X169911317Y-118381918D01*
X169911084Y-118381963D01*
X169815554Y-118408648D01*
X169752111Y-118443420D01*
X169722791Y-118482363D01*
X169729629Y-118521562D01*
X169774658Y-118557101D01*
X169812192Y-118572295D01*
X169916255Y-118586776D01*
X170038924Y-118570640D01*
X170171206Y-118525370D01*
X170211224Y-118506430D01*
X170275194Y-118474706D01*
X170322324Y-118452354D01*
X170341733Y-118444434D01*
X170345520Y-118463792D01*
X170348243Y-118514641D01*
X170349332Y-118586139D01*
X170349334Y-118589049D01*
X170349334Y-118733664D01*
X170269959Y-118760147D01*
X170191704Y-118778017D01*
X170088980Y-118790233D01*
X169974664Y-118796490D01*
X169861634Y-118796483D01*
X169762767Y-118789907D01*
X169690941Y-118776459D01*
X169683807Y-118774022D01*
X169577972Y-118723734D01*
X169502493Y-118659184D01*
X169445617Y-118570333D01*
X169413282Y-118462242D01*
X169421346Y-118356672D01*
X169468846Y-118260387D01*
X169493972Y-118230795D01*
X169560380Y-118182396D01*
X169659765Y-118137304D01*
X169782774Y-118099127D01*
X169897657Y-118075020D01*
X169962251Y-118056529D01*
X170012847Y-118028904D01*
X170021087Y-118021280D01*
X170043468Y-117990809D01*
X170037703Y-117965896D01*
X170012389Y-117938156D01*
X169949346Y-117902469D01*
X169860984Y-117888936D01*
X169757886Y-117897281D01*
X169650637Y-117927229D01*
X169601469Y-117948857D01*
X169540803Y-117977475D01*
X169495066Y-117996010D01*
X169479761Y-117999934D01*
X169469822Y-117980638D01*
X169462818Y-117930197D01*
X169460334Y-117863794D01*
X169460334Y-117727654D01*
X169621637Y-117691768D01*
X169788894Y-117667329D01*
X169942070Y-117669680D01*
G37*
X169942070Y-117669680D02*
X170076952Y-117696925D01*
X170189325Y-117747169D01*
X170274975Y-117818518D01*
X170329688Y-117909076D01*
X170349250Y-118016949D01*
X170349254Y-118018939D01*
X170332731Y-118125157D01*
X170282278Y-118213236D01*
X170196294Y-118284503D01*
X170073175Y-118340288D01*
X169911317Y-118381918D01*
X169911084Y-118381963D01*
X169815554Y-118408648D01*
X169752111Y-118443420D01*
X169722791Y-118482363D01*
X169729629Y-118521562D01*
X169774658Y-118557101D01*
X169812192Y-118572295D01*
X169916255Y-118586776D01*
X170038924Y-118570640D01*
X170171206Y-118525370D01*
X170211224Y-118506430D01*
X170275194Y-118474706D01*
X170322324Y-118452354D01*
X170341733Y-118444434D01*
X170345520Y-118463792D01*
X170348243Y-118514641D01*
X170349332Y-118586139D01*
X170349334Y-118589049D01*
X170349334Y-118733664D01*
X170269959Y-118760147D01*
X170191704Y-118778017D01*
X170088980Y-118790233D01*
X169974664Y-118796490D01*
X169861634Y-118796483D01*
X169762767Y-118789907D01*
X169690941Y-118776459D01*
X169683807Y-118774022D01*
X169577972Y-118723734D01*
X169502493Y-118659184D01*
X169445617Y-118570333D01*
X169413282Y-118462242D01*
X169421346Y-118356672D01*
X169468846Y-118260387D01*
X169493972Y-118230795D01*
X169560380Y-118182396D01*
X169659765Y-118137304D01*
X169782774Y-118099127D01*
X169897657Y-118075020D01*
X169962251Y-118056529D01*
X170012847Y-118028904D01*
X170021087Y-118021280D01*
X170043468Y-117990809D01*
X170037703Y-117965896D01*
X170012389Y-117938156D01*
X169949346Y-117902469D01*
X169860984Y-117888936D01*
X169757886Y-117897281D01*
X169650637Y-117927229D01*
X169601469Y-117948857D01*
X169540803Y-117977475D01*
X169495066Y-117996010D01*
X169479761Y-117999934D01*
X169469822Y-117980638D01*
X169462818Y-117930197D01*
X169460334Y-117863794D01*
X169460334Y-117727654D01*
X169621637Y-117691768D01*
X169788894Y-117667329D01*
X169942070Y-117669680D01*
G36*
X171076325Y-117671050D02*
G01*
X171229318Y-117707646D01*
X171357284Y-117775576D01*
X171457809Y-117873004D01*
X171528476Y-117998094D01*
X171566873Y-118149007D01*
X171569977Y-118176670D01*
X171567226Y-118336906D01*
X171529542Y-118481718D01*
X171459360Y-118606098D01*
X171359113Y-118705034D01*
X171293254Y-118746160D01*
X171214176Y-118773222D01*
X171106120Y-118791016D01*
X170981512Y-118799085D01*
X170852778Y-118796977D01*
X170732347Y-118784235D01*
X170661542Y-118769267D01*
X170539834Y-118736204D01*
X170539834Y-118169267D01*
X171047834Y-118169267D01*
X171047834Y-118402100D01*
X170836167Y-118402100D01*
X170836167Y-118592600D01*
X170916349Y-118592600D01*
X171012315Y-118576659D01*
X171106407Y-118534315D01*
X171183820Y-118473783D01*
X171220892Y-118423597D01*
X171247711Y-118342605D01*
X171258590Y-118244274D01*
X171253068Y-118147075D01*
X171230685Y-118069480D01*
X171229761Y-118067674D01*
X171192662Y-118012451D01*
X171144468Y-117958613D01*
X171143389Y-117957600D01*
X171107900Y-117929376D01*
X171068514Y-117913348D01*
X171012134Y-117906218D01*
X170933134Y-117904684D01*
X170846287Y-117906967D01*
X170783872Y-117916904D01*
X170728099Y-117939127D01*
X170668850Y-117973475D01*
X170609411Y-118009570D01*
X170565764Y-118034480D01*
X170549010Y-118042267D01*
X170544460Y-118022899D01*
X170541176Y-117971984D01*
X170539837Y-117900304D01*
X170539834Y-117896090D01*
X170539834Y-117749913D01*
X170640375Y-117714683D01*
X170714040Y-117695074D01*
X170808974Y-117678039D01*
X170900720Y-117667626D01*
X171076325Y-117671050D01*
G37*
X171076325Y-117671050D02*
X171229318Y-117707646D01*
X171357284Y-117775576D01*
X171457809Y-117873004D01*
X171528476Y-117998094D01*
X171566873Y-118149007D01*
X171569977Y-118176670D01*
X171567226Y-118336906D01*
X171529542Y-118481718D01*
X171459360Y-118606098D01*
X171359113Y-118705034D01*
X171293254Y-118746160D01*
X171214176Y-118773222D01*
X171106120Y-118791016D01*
X170981512Y-118799085D01*
X170852778Y-118796977D01*
X170732347Y-118784235D01*
X170661542Y-118769267D01*
X170539834Y-118736204D01*
X170539834Y-118169267D01*
X171047834Y-118169267D01*
X171047834Y-118402100D01*
X170836167Y-118402100D01*
X170836167Y-118592600D01*
X170916349Y-118592600D01*
X171012315Y-118576659D01*
X171106407Y-118534315D01*
X171183820Y-118473783D01*
X171220892Y-118423597D01*
X171247711Y-118342605D01*
X171258590Y-118244274D01*
X171253068Y-118147075D01*
X171230685Y-118069480D01*
X171229761Y-118067674D01*
X171192662Y-118012451D01*
X171144468Y-117958613D01*
X171143389Y-117957600D01*
X171107900Y-117929376D01*
X171068514Y-117913348D01*
X171012134Y-117906218D01*
X170933134Y-117904684D01*
X170846287Y-117906967D01*
X170783872Y-117916904D01*
X170728099Y-117939127D01*
X170668850Y-117973475D01*
X170609411Y-118009570D01*
X170565764Y-118034480D01*
X170549010Y-118042267D01*
X170544460Y-118022899D01*
X170541176Y-117971984D01*
X170539837Y-117900304D01*
X170539834Y-117896090D01*
X170539834Y-117749913D01*
X170640375Y-117714683D01*
X170714040Y-117695074D01*
X170808974Y-117678039D01*
X170900720Y-117667626D01*
X171076325Y-117671050D01*
G36*
X165387367Y-117676173D02*
G01*
X165493292Y-117692126D01*
X165528625Y-117701059D01*
X165629167Y-117730269D01*
X165629167Y-117850990D01*
X165627165Y-117918739D01*
X165621994Y-117967756D01*
X165616838Y-117984040D01*
X165592586Y-117982540D01*
X165542684Y-117965867D01*
X165495130Y-117945441D01*
X165383962Y-117905712D01*
X165288527Y-117895145D01*
X165213424Y-117912545D01*
X165163251Y-117956720D01*
X165142608Y-118026475D01*
X165142334Y-118037038D01*
X165151247Y-118099435D01*
X165180166Y-118164429D01*
X165232364Y-118235847D01*
X165311110Y-118317516D01*
X165419676Y-118413265D01*
X165560375Y-118526174D01*
X165613586Y-118571173D01*
X165640352Y-118608954D01*
X165649549Y-118655641D01*
X165650334Y-118689629D01*
X165650334Y-118783100D01*
X164782500Y-118783100D01*
X164782500Y-118571434D01*
X165251968Y-118571434D01*
X165148723Y-118489823D01*
X165015771Y-118369764D01*
X164917330Y-118248755D01*
X164853994Y-118129823D01*
X164826357Y-118015992D01*
X164835015Y-117910288D01*
X164880561Y-117815737D01*
X164963589Y-117735364D01*
X164996379Y-117714184D01*
X165063859Y-117690033D01*
X165159970Y-117675439D01*
X165272033Y-117670715D01*
X165387367Y-117676173D01*
G37*
X165387367Y-117676173D02*
X165493292Y-117692126D01*
X165528625Y-117701059D01*
X165629167Y-117730269D01*
X165629167Y-117850990D01*
X165627165Y-117918739D01*
X165621994Y-117967756D01*
X165616838Y-117984040D01*
X165592586Y-117982540D01*
X165542684Y-117965867D01*
X165495130Y-117945441D01*
X165383962Y-117905712D01*
X165288527Y-117895145D01*
X165213424Y-117912545D01*
X165163251Y-117956720D01*
X165142608Y-118026475D01*
X165142334Y-118037038D01*
X165151247Y-118099435D01*
X165180166Y-118164429D01*
X165232364Y-118235847D01*
X165311110Y-118317516D01*
X165419676Y-118413265D01*
X165560375Y-118526174D01*
X165613586Y-118571173D01*
X165640352Y-118608954D01*
X165649549Y-118655641D01*
X165650334Y-118689629D01*
X165650334Y-118783100D01*
X164782500Y-118783100D01*
X164782500Y-118571434D01*
X165251968Y-118571434D01*
X165148723Y-118489823D01*
X165015771Y-118369764D01*
X164917330Y-118248755D01*
X164853994Y-118129823D01*
X164826357Y-118015992D01*
X164835015Y-117910288D01*
X164880561Y-117815737D01*
X164963589Y-117735364D01*
X164996379Y-117714184D01*
X165063859Y-117690033D01*
X165159970Y-117675439D01*
X165272033Y-117670715D01*
X165387367Y-117676173D01*
G36*
X166457502Y-117676015D02*
G01*
X166566480Y-117694771D01*
X166608125Y-117706264D01*
X166687500Y-117731870D01*
X166687500Y-117865902D01*
X166686280Y-117934957D01*
X166683093Y-117983347D01*
X166679019Y-117999934D01*
X166656829Y-117991714D01*
X166607982Y-117970408D01*
X166557310Y-117947224D01*
X166479654Y-117917499D01*
X166402993Y-117898289D01*
X166364709Y-117894307D01*
X166282298Y-117910507D01*
X166227110Y-117955087D01*
X166202778Y-118021274D01*
X166212937Y-118102295D01*
X166230811Y-118143860D01*
X166264996Y-118191605D01*
X166324715Y-118258197D01*
X166402378Y-118336118D01*
X166490398Y-118417849D01*
X166581187Y-118495873D01*
X166608125Y-118517669D01*
X166664676Y-118565464D01*
X166694834Y-118602830D01*
X166706762Y-118643792D01*
X166708667Y-118690400D01*
X166708667Y-118783100D01*
X165840834Y-118783100D01*
X165840834Y-118571434D01*
X166308698Y-118571434D01*
X166179526Y-118463935D01*
X166047034Y-118339047D01*
X165955311Y-118218040D01*
X165903222Y-118098782D01*
X165889632Y-117979141D01*
X165894961Y-117929264D01*
X165931229Y-117834589D01*
X166000923Y-117754129D01*
X166095498Y-117696564D01*
X166138445Y-117681875D01*
X166226699Y-117668696D01*
X166338646Y-117667033D01*
X166457502Y-117676015D01*
G37*
X166457502Y-117676015D02*
X166566480Y-117694771D01*
X166608125Y-117706264D01*
X166687500Y-117731870D01*
X166687500Y-117865902D01*
X166686280Y-117934957D01*
X166683093Y-117983347D01*
X166679019Y-117999934D01*
X166656829Y-117991714D01*
X166607982Y-117970408D01*
X166557310Y-117947224D01*
X166479654Y-117917499D01*
X166402993Y-117898289D01*
X166364709Y-117894307D01*
X166282298Y-117910507D01*
X166227110Y-117955087D01*
X166202778Y-118021274D01*
X166212937Y-118102295D01*
X166230811Y-118143860D01*
X166264996Y-118191605D01*
X166324715Y-118258197D01*
X166402378Y-118336118D01*
X166490398Y-118417849D01*
X166581187Y-118495873D01*
X166608125Y-118517669D01*
X166664676Y-118565464D01*
X166694834Y-118602830D01*
X166706762Y-118643792D01*
X166708667Y-118690400D01*
X166708667Y-118783100D01*
X165840834Y-118783100D01*
X165840834Y-118571434D01*
X166308698Y-118571434D01*
X166179526Y-118463935D01*
X166047034Y-118339047D01*
X165955311Y-118218040D01*
X165903222Y-118098782D01*
X165889632Y-117979141D01*
X165894961Y-117929264D01*
X165931229Y-117834589D01*
X166000923Y-117754129D01*
X166095498Y-117696564D01*
X166138445Y-117681875D01*
X166226699Y-117668696D01*
X166338646Y-117667033D01*
X166457502Y-117676015D01*
G36*
X168540974Y-117676334D02*
G01*
X168633454Y-117685095D01*
X168704388Y-117697314D01*
X168714209Y-117699944D01*
X168804167Y-117726399D01*
X168804167Y-117863166D01*
X168802662Y-117933007D01*
X168798727Y-117982296D01*
X168793507Y-117999934D01*
X168769913Y-117990820D01*
X168723545Y-117967976D01*
X168703934Y-117957639D01*
X168592024Y-117911243D01*
X168492437Y-117896652D01*
X168410404Y-117913719D01*
X168351157Y-117962298D01*
X168347481Y-117967659D01*
X168325872Y-118036016D01*
X168343175Y-118116283D01*
X168399655Y-118208860D01*
X168495580Y-118314149D01*
X168631217Y-118432548D01*
X168687576Y-118476742D01*
X168761582Y-118534307D01*
X168808102Y-118575047D01*
X168833509Y-118607547D01*
X168844178Y-118640392D01*
X168846482Y-118682167D01*
X168846500Y-118690784D01*
X168846500Y-118783100D01*
X167957500Y-118783100D01*
X167957500Y-118571434D01*
X168430787Y-118571434D01*
X168337018Y-118492757D01*
X168213504Y-118381979D01*
X168124090Y-118283599D01*
X168064840Y-118191425D01*
X168031822Y-118099266D01*
X168021100Y-118000929D01*
X168021079Y-117995485D01*
X168034991Y-117880023D01*
X168077782Y-117791501D01*
X168151305Y-117728505D01*
X168257417Y-117689622D01*
X168397972Y-117673435D01*
X168444334Y-117672780D01*
X168540974Y-117676334D01*
G37*
X168540974Y-117676334D02*
X168633454Y-117685095D01*
X168704388Y-117697314D01*
X168714209Y-117699944D01*
X168804167Y-117726399D01*
X168804167Y-117863166D01*
X168802662Y-117933007D01*
X168798727Y-117982296D01*
X168793507Y-117999934D01*
X168769913Y-117990820D01*
X168723545Y-117967976D01*
X168703934Y-117957639D01*
X168592024Y-117911243D01*
X168492437Y-117896652D01*
X168410404Y-117913719D01*
X168351157Y-117962298D01*
X168347481Y-117967659D01*
X168325872Y-118036016D01*
X168343175Y-118116283D01*
X168399655Y-118208860D01*
X168495580Y-118314149D01*
X168631217Y-118432548D01*
X168687576Y-118476742D01*
X168761582Y-118534307D01*
X168808102Y-118575047D01*
X168833509Y-118607547D01*
X168844178Y-118640392D01*
X168846482Y-118682167D01*
X168846500Y-118690784D01*
X168846500Y-118783100D01*
X167957500Y-118783100D01*
X167957500Y-118571434D01*
X168430787Y-118571434D01*
X168337018Y-118492757D01*
X168213504Y-118381979D01*
X168124090Y-118283599D01*
X168064840Y-118191425D01*
X168031822Y-118099266D01*
X168021100Y-118000929D01*
X168021079Y-117995485D01*
X168034991Y-117880023D01*
X168077782Y-117791501D01*
X168151305Y-117728505D01*
X168257417Y-117689622D01*
X168397972Y-117673435D01*
X168444334Y-117672780D01*
X168540974Y-117676334D01*
G36*
X172588471Y-118216892D02*
G01*
X172640321Y-118358934D01*
X172686987Y-118487950D01*
X172726576Y-118598613D01*
X172757196Y-118685593D01*
X172776954Y-118743561D01*
X172783956Y-118767189D01*
X172783955Y-118767225D01*
X172764351Y-118775092D01*
X172713239Y-118780771D01*
X172641431Y-118783093D01*
X172637035Y-118783100D01*
X172490569Y-118783100D01*
X172420265Y-118571434D01*
X172028933Y-118571434D01*
X171997779Y-118671975D01*
X171966625Y-118772517D01*
X171814146Y-118778736D01*
X171739899Y-118779625D01*
X171685462Y-118776203D01*
X171661416Y-118769203D01*
X171661074Y-118768152D01*
X171667919Y-118744567D01*
X171687518Y-118686605D01*
X171717983Y-118599607D01*
X171757425Y-118488917D01*
X171803953Y-118359877D01*
X171812274Y-118337025D01*
X172116580Y-118337025D01*
X172128552Y-118354589D01*
X172159237Y-118359862D01*
X172209952Y-118359806D01*
X172221157Y-118359767D01*
X172285386Y-118357186D01*
X172328230Y-118350520D01*
X172339102Y-118343892D01*
X172332359Y-118317712D01*
X172314405Y-118262690D01*
X172288808Y-118189651D01*
X172282676Y-118172709D01*
X172226148Y-118017402D01*
X172179774Y-118140959D01*
X172143508Y-118237173D01*
X172122004Y-118300207D01*
X172116580Y-118337025D01*
X171812274Y-118337025D01*
X171855679Y-118217829D01*
X171856022Y-118216892D01*
X172051562Y-117682434D01*
X172392530Y-117682434D01*
X172588471Y-118216892D01*
G37*
X172588471Y-118216892D02*
X172640321Y-118358934D01*
X172686987Y-118487950D01*
X172726576Y-118598613D01*
X172757196Y-118685593D01*
X172776954Y-118743561D01*
X172783956Y-118767189D01*
X172783955Y-118767225D01*
X172764351Y-118775092D01*
X172713239Y-118780771D01*
X172641431Y-118783093D01*
X172637035Y-118783100D01*
X172490569Y-118783100D01*
X172420265Y-118571434D01*
X172028933Y-118571434D01*
X171997779Y-118671975D01*
X171966625Y-118772517D01*
X171814146Y-118778736D01*
X171739899Y-118779625D01*
X171685462Y-118776203D01*
X171661416Y-118769203D01*
X171661074Y-118768152D01*
X171667919Y-118744567D01*
X171687518Y-118686605D01*
X171717983Y-118599607D01*
X171757425Y-118488917D01*
X171803953Y-118359877D01*
X171812274Y-118337025D01*
X172116580Y-118337025D01*
X172128552Y-118354589D01*
X172159237Y-118359862D01*
X172209952Y-118359806D01*
X172221157Y-118359767D01*
X172285386Y-118357186D01*
X172328230Y-118350520D01*
X172339102Y-118343892D01*
X172332359Y-118317712D01*
X172314405Y-118262690D01*
X172288808Y-118189651D01*
X172282676Y-118172709D01*
X172226148Y-118017402D01*
X172179774Y-118140959D01*
X172143508Y-118237173D01*
X172122004Y-118300207D01*
X172116580Y-118337025D01*
X171812274Y-118337025D01*
X171855679Y-118217829D01*
X171856022Y-118216892D01*
X172051562Y-117682434D01*
X172392530Y-117682434D01*
X172588471Y-118216892D01*
G36*
X185398834Y-108707767D02*
G01*
X185255959Y-108707993D01*
X185127331Y-108712482D01*
X184969755Y-108724628D01*
X184795621Y-108742974D01*
X184617321Y-108766064D01*
X184447246Y-108792442D01*
X184298071Y-108820590D01*
X184162691Y-108850769D01*
X184036621Y-108881623D01*
X183926041Y-108911377D01*
X183837131Y-108938255D01*
X183776071Y-108960483D01*
X183749041Y-108976284D01*
X183748263Y-108978538D01*
X183754565Y-109003004D01*
X183771612Y-109060222D01*
X183797098Y-109142674D01*
X183828718Y-109242841D01*
X183843513Y-109289134D01*
X183876893Y-109393401D01*
X183905126Y-109481973D01*
X183925945Y-109547707D01*
X183937084Y-109583462D01*
X183938334Y-109587863D01*
X183919802Y-109595806D01*
X183869892Y-109614694D01*
X183797131Y-109641341D01*
X183742542Y-109660985D01*
X183572354Y-109729014D01*
X183380099Y-109818100D01*
X183176571Y-109922612D01*
X182972563Y-110036917D01*
X182778871Y-110155384D01*
X182715358Y-110196892D01*
X182350594Y-110461549D01*
X181991522Y-110764977D01*
X181641552Y-111103671D01*
X181304095Y-111474131D01*
X180982563Y-111872854D01*
X180702305Y-112263767D01*
X180589627Y-112432629D01*
X180488409Y-112590078D01*
X180394522Y-112743420D01*
X180303834Y-112899962D01*
X180212215Y-113067010D01*
X180115534Y-113251870D01*
X180009661Y-113461849D01*
X179906516Y-113671350D01*
X179752265Y-113982171D01*
X179608804Y-114259907D01*
X179472228Y-114511172D01*
X179338631Y-114742582D01*
X179204106Y-114960752D01*
X179064748Y-115172296D01*
X178916649Y-115383830D01*
X178806019Y-115534996D01*
X178438857Y-116000147D01*
X178056836Y-116428324D01*
X177660688Y-116819018D01*
X177251149Y-117171720D01*
X176828951Y-117485921D01*
X176394828Y-117761114D01*
X175949514Y-117996791D01*
X175493743Y-118192442D01*
X175028248Y-118347559D01*
X174593229Y-118453790D01*
X174462396Y-118479628D01*
X174367600Y-118496508D01*
X174303623Y-118504966D01*
X174265249Y-118505538D01*
X174247260Y-118498759D01*
X174244000Y-118489669D01*
X174241094Y-118464453D01*
X174232925Y-118403279D01*
X174220320Y-118312078D01*
X174204105Y-118196785D01*
X174185106Y-118063334D01*
X174169917Y-117957600D01*
X174149364Y-117813960D01*
X174131002Y-117683519D01*
X174115660Y-117572356D01*
X174104171Y-117486549D01*
X174097366Y-117432178D01*
X174095834Y-117415907D01*
X174114769Y-117394412D01*
X174162771Y-117377426D01*
X174175209Y-117375084D01*
X174282112Y-117354296D01*
X174416781Y-117323118D01*
X174566925Y-117284863D01*
X174720253Y-117242842D01*
X174864476Y-117200365D01*
X174987304Y-117160744D01*
X175037750Y-117142703D01*
X175439827Y-116969945D01*
X175835768Y-116756391D01*
X176224030Y-116503330D01*
X176603067Y-116212050D01*
X176971335Y-115883840D01*
X177327292Y-115519988D01*
X177669392Y-115121782D01*
X177996091Y-114690511D01*
X178023812Y-114651359D01*
X178153730Y-114461999D01*
X178276546Y-114272133D01*
X178396151Y-114074981D01*
X178516438Y-113863762D01*
X178641297Y-113631696D01*
X178774620Y-113372002D01*
X178882284Y-113155476D01*
X178970798Y-112975059D01*
X179041964Y-112828778D01*
X179097359Y-112712902D01*
X179138563Y-112623698D01*
X179167152Y-112557435D01*
X179184704Y-112510382D01*
X179192796Y-112478807D01*
X179193006Y-112458979D01*
X179186911Y-112447165D01*
X179183119Y-112443889D01*
X179169172Y-112429468D01*
X179166255Y-112408791D01*
X179176828Y-112374846D01*
X179203347Y-112320617D01*
X179248270Y-112239092D01*
X179265656Y-112208347D01*
X179452677Y-111896105D01*
X179666401Y-111570117D01*
X179899129Y-111241311D01*
X180143165Y-110920612D01*
X180359742Y-110655448D01*
X180732959Y-110242059D01*
X181122917Y-109863278D01*
X181528157Y-109519882D01*
X181947221Y-109212651D01*
X182378650Y-108942364D01*
X182820986Y-108709800D01*
X183272770Y-108515737D01*
X183732544Y-108360954D01*
X184198849Y-108246231D01*
X184670227Y-108172345D01*
X185065459Y-108142547D01*
X185398834Y-108129735D01*
X185398834Y-108707767D01*
G37*
X185398834Y-108707767D02*
X185255959Y-108707993D01*
X185127331Y-108712482D01*
X184969755Y-108724628D01*
X184795621Y-108742974D01*
X184617321Y-108766064D01*
X184447246Y-108792442D01*
X184298071Y-108820590D01*
X184162691Y-108850769D01*
X184036621Y-108881623D01*
X183926041Y-108911377D01*
X183837131Y-108938255D01*
X183776071Y-108960483D01*
X183749041Y-108976284D01*
X183748263Y-108978538D01*
X183754565Y-109003004D01*
X183771612Y-109060222D01*
X183797098Y-109142674D01*
X183828718Y-109242841D01*
X183843513Y-109289134D01*
X183876893Y-109393401D01*
X183905126Y-109481973D01*
X183925945Y-109547707D01*
X183937084Y-109583462D01*
X183938334Y-109587863D01*
X183919802Y-109595806D01*
X183869892Y-109614694D01*
X183797131Y-109641341D01*
X183742542Y-109660985D01*
X183572354Y-109729014D01*
X183380099Y-109818100D01*
X183176571Y-109922612D01*
X182972563Y-110036917D01*
X182778871Y-110155384D01*
X182715358Y-110196892D01*
X182350594Y-110461549D01*
X181991522Y-110764977D01*
X181641552Y-111103671D01*
X181304095Y-111474131D01*
X180982563Y-111872854D01*
X180702305Y-112263767D01*
X180589627Y-112432629D01*
X180488409Y-112590078D01*
X180394522Y-112743420D01*
X180303834Y-112899962D01*
X180212215Y-113067010D01*
X180115534Y-113251870D01*
X180009661Y-113461849D01*
X179906516Y-113671350D01*
X179752265Y-113982171D01*
X179608804Y-114259907D01*
X179472228Y-114511172D01*
X179338631Y-114742582D01*
X179204106Y-114960752D01*
X179064748Y-115172296D01*
X178916649Y-115383830D01*
X178806019Y-115534996D01*
X178438857Y-116000147D01*
X178056836Y-116428324D01*
X177660688Y-116819018D01*
X177251149Y-117171720D01*
X176828951Y-117485921D01*
X176394828Y-117761114D01*
X175949514Y-117996791D01*
X175493743Y-118192442D01*
X175028248Y-118347559D01*
X174593229Y-118453790D01*
X174462396Y-118479628D01*
X174367600Y-118496508D01*
X174303623Y-118504966D01*
X174265249Y-118505538D01*
X174247260Y-118498759D01*
X174244000Y-118489669D01*
X174241094Y-118464453D01*
X174232925Y-118403279D01*
X174220320Y-118312078D01*
X174204105Y-118196785D01*
X174185106Y-118063334D01*
X174169917Y-117957600D01*
X174149364Y-117813960D01*
X174131002Y-117683519D01*
X174115660Y-117572356D01*
X174104171Y-117486549D01*
X174097366Y-117432178D01*
X174095834Y-117415907D01*
X174114769Y-117394412D01*
X174162771Y-117377426D01*
X174175209Y-117375084D01*
X174282112Y-117354296D01*
X174416781Y-117323118D01*
X174566925Y-117284863D01*
X174720253Y-117242842D01*
X174864476Y-117200365D01*
X174987304Y-117160744D01*
X175037750Y-117142703D01*
X175439827Y-116969945D01*
X175835768Y-116756391D01*
X176224030Y-116503330D01*
X176603067Y-116212050D01*
X176971335Y-115883840D01*
X177327292Y-115519988D01*
X177669392Y-115121782D01*
X177996091Y-114690511D01*
X178023812Y-114651359D01*
X178153730Y-114461999D01*
X178276546Y-114272133D01*
X178396151Y-114074981D01*
X178516438Y-113863762D01*
X178641297Y-113631696D01*
X178774620Y-113372002D01*
X178882284Y-113155476D01*
X178970798Y-112975059D01*
X179041964Y-112828778D01*
X179097359Y-112712902D01*
X179138563Y-112623698D01*
X179167152Y-112557435D01*
X179184704Y-112510382D01*
X179192796Y-112478807D01*
X179193006Y-112458979D01*
X179186911Y-112447165D01*
X179183119Y-112443889D01*
X179169172Y-112429468D01*
X179166255Y-112408791D01*
X179176828Y-112374846D01*
X179203347Y-112320617D01*
X179248270Y-112239092D01*
X179265656Y-112208347D01*
X179452677Y-111896105D01*
X179666401Y-111570117D01*
X179899129Y-111241311D01*
X180143165Y-110920612D01*
X180359742Y-110655448D01*
X180732959Y-110242059D01*
X181122917Y-109863278D01*
X181528157Y-109519882D01*
X181947221Y-109212651D01*
X182378650Y-108942364D01*
X182820986Y-108709800D01*
X183272770Y-108515737D01*
X183732544Y-108360954D01*
X184198849Y-108246231D01*
X184670227Y-108172345D01*
X185065459Y-108142547D01*
X185398834Y-108129735D01*
X185398834Y-108707767D01*
G36*
X167280167Y-117195600D02*
G01*
X166983834Y-117195600D01*
X166983834Y-117007692D01*
X166981830Y-116908456D01*
X166975052Y-116843739D01*
X166962349Y-116805880D01*
X166951572Y-116793009D01*
X166922207Y-116774672D01*
X166912196Y-116774542D01*
X166897585Y-116793841D01*
X166863005Y-116840315D01*
X166813587Y-116907049D01*
X166754461Y-116987129D01*
X166752916Y-116989225D01*
X166600750Y-117195600D01*
X166421875Y-117195600D01*
X166340826Y-117194300D01*
X166278931Y-117190830D01*
X166245934Y-117185841D01*
X166243000Y-117183694D01*
X166255192Y-117163670D01*
X166288872Y-117116053D01*
X166339698Y-117046790D01*
X166403327Y-116961827D01*
X166447790Y-116903236D01*
X166518602Y-116810343D01*
X166580915Y-116728536D01*
X166629955Y-116664086D01*
X166660950Y-116623264D01*
X166668895Y-116612728D01*
X166661786Y-116589188D01*
X166630066Y-116539220D01*
X166577379Y-116467919D01*
X166507371Y-116380383D01*
X166474688Y-116341198D01*
X166402220Y-116254737D01*
X166340530Y-116180091D01*
X166294303Y-116123011D01*
X166268225Y-116089249D01*
X166264167Y-116082695D01*
X166283686Y-116078752D01*
X166335667Y-116076038D01*
X166410247Y-116074982D01*
X166438792Y-116075076D01*
X166613417Y-116076386D01*
X166793334Y-116308201D01*
X166973250Y-116540016D01*
X166979235Y-116306892D01*
X166985220Y-116073767D01*
X167280167Y-116073767D01*
X167280167Y-117195600D01*
G37*
X167280167Y-117195600D02*
X166983834Y-117195600D01*
X166983834Y-117007692D01*
X166981830Y-116908456D01*
X166975052Y-116843739D01*
X166962349Y-116805880D01*
X166951572Y-116793009D01*
X166922207Y-116774672D01*
X166912196Y-116774542D01*
X166897585Y-116793841D01*
X166863005Y-116840315D01*
X166813587Y-116907049D01*
X166754461Y-116987129D01*
X166752916Y-116989225D01*
X166600750Y-117195600D01*
X166421875Y-117195600D01*
X166340826Y-117194300D01*
X166278931Y-117190830D01*
X166245934Y-117185841D01*
X166243000Y-117183694D01*
X166255192Y-117163670D01*
X166288872Y-117116053D01*
X166339698Y-117046790D01*
X166403327Y-116961827D01*
X166447790Y-116903236D01*
X166518602Y-116810343D01*
X166580915Y-116728536D01*
X166629955Y-116664086D01*
X166660950Y-116623264D01*
X166668895Y-116612728D01*
X166661786Y-116589188D01*
X166630066Y-116539220D01*
X166577379Y-116467919D01*
X166507371Y-116380383D01*
X166474688Y-116341198D01*
X166402220Y-116254737D01*
X166340530Y-116180091D01*
X166294303Y-116123011D01*
X166268225Y-116089249D01*
X166264167Y-116082695D01*
X166283686Y-116078752D01*
X166335667Y-116076038D01*
X166410247Y-116074982D01*
X166438792Y-116075076D01*
X166613417Y-116076386D01*
X166793334Y-116308201D01*
X166973250Y-116540016D01*
X166979235Y-116306892D01*
X166985220Y-116073767D01*
X167280167Y-116073767D01*
X167280167Y-117195600D01*
G36*
X168296167Y-117195600D02*
G01*
X167908111Y-117195600D01*
X167784010Y-117194865D01*
X167674783Y-117192821D01*
X167587373Y-117189713D01*
X167528723Y-117185784D01*
X167505945Y-117181489D01*
X167497668Y-117153637D01*
X167492591Y-117098830D01*
X167491834Y-117065072D01*
X167491834Y-116962767D01*
X167999834Y-116962767D01*
X167999834Y-116708767D01*
X167534167Y-116708767D01*
X167534167Y-116475934D01*
X167999834Y-116475934D01*
X167999834Y-116306600D01*
X167491834Y-116306600D01*
X167491834Y-116073767D01*
X168296167Y-116073767D01*
X168296167Y-117195600D01*
G37*
X168296167Y-117195600D02*
X167908111Y-117195600D01*
X167784010Y-117194865D01*
X167674783Y-117192821D01*
X167587373Y-117189713D01*
X167528723Y-117185784D01*
X167505945Y-117181489D01*
X167497668Y-117153637D01*
X167492591Y-117098830D01*
X167491834Y-117065072D01*
X167491834Y-116962767D01*
X167999834Y-116962767D01*
X167999834Y-116708767D01*
X167534167Y-116708767D01*
X167534167Y-116475934D01*
X167999834Y-116475934D01*
X167999834Y-116306600D01*
X167491834Y-116306600D01*
X167491834Y-116073767D01*
X168296167Y-116073767D01*
X168296167Y-117195600D01*
G36*
X169328394Y-116628934D02*
G01*
X169322750Y-117185017D01*
X168929855Y-117190761D01*
X168804934Y-117191827D01*
X168694817Y-117191321D01*
X168606409Y-117189394D01*
X168546613Y-117186195D01*
X168522397Y-117181941D01*
X168513852Y-117153802D01*
X168508613Y-117098792D01*
X168507834Y-117065072D01*
X168507834Y-116962767D01*
X169015834Y-116962767D01*
X169015834Y-116708767D01*
X168550167Y-116708767D01*
X168550167Y-116475934D01*
X169015834Y-116475934D01*
X169015834Y-116306600D01*
X168505621Y-116306600D01*
X168518417Y-116084350D01*
X168926228Y-116078600D01*
X169334038Y-116072850D01*
X169328394Y-116628934D01*
G37*
X169328394Y-116628934D02*
X169322750Y-117185017D01*
X168929855Y-117190761D01*
X168804934Y-117191827D01*
X168694817Y-117191321D01*
X168606409Y-117189394D01*
X168546613Y-117186195D01*
X168522397Y-117181941D01*
X168513852Y-117153802D01*
X168508613Y-117098792D01*
X168507834Y-117065072D01*
X168507834Y-116962767D01*
X169015834Y-116962767D01*
X169015834Y-116708767D01*
X168550167Y-116708767D01*
X168550167Y-116475934D01*
X169015834Y-116475934D01*
X169015834Y-116306600D01*
X168505621Y-116306600D01*
X168518417Y-116084350D01*
X168926228Y-116078600D01*
X169334038Y-116072850D01*
X169328394Y-116628934D01*
G36*
X170292611Y-116078186D02*
G01*
X170442149Y-116084350D01*
X170532124Y-116420053D01*
X170562680Y-116532814D01*
X170589764Y-116630420D01*
X170611388Y-116705892D01*
X170625565Y-116752254D01*
X170629976Y-116763632D01*
X170637073Y-116747234D01*
X170650934Y-116696789D01*
X170669689Y-116619691D01*
X170691469Y-116523338D01*
X170696109Y-116502013D01*
X170720037Y-116392523D01*
X170742730Y-116290837D01*
X170761700Y-116207961D01*
X170774462Y-116154902D01*
X170774915Y-116153142D01*
X170795465Y-116073767D01*
X170942816Y-116073767D01*
X171022246Y-116075475D01*
X171067669Y-116081847D01*
X171087317Y-116094754D01*
X171090167Y-116107241D01*
X171084805Y-116135902D01*
X171069942Y-116198350D01*
X171047415Y-116287747D01*
X171019058Y-116397260D01*
X170986709Y-116520053D01*
X170952202Y-116649289D01*
X170917373Y-116778134D01*
X170884058Y-116899752D01*
X170854092Y-117007308D01*
X170829312Y-117093966D01*
X170811554Y-117152890D01*
X170802906Y-117176879D01*
X170777533Y-117186020D01*
X170721426Y-117192688D01*
X170646167Y-117195570D01*
X170637448Y-117195600D01*
X170483560Y-117195600D01*
X170391526Y-116853976D01*
X170299491Y-116512353D01*
X170273098Y-116605268D01*
X170256901Y-116663143D01*
X170232998Y-116749613D01*
X170204767Y-116852417D01*
X170178963Y-116946892D01*
X170111220Y-117195600D01*
X169956359Y-117195600D01*
X169879528Y-117193268D01*
X169820628Y-117187117D01*
X169791174Y-117178417D01*
X169790179Y-117177285D01*
X169780960Y-117151080D01*
X169762979Y-117090695D01*
X169738061Y-117002936D01*
X169708030Y-116894611D01*
X169674711Y-116772526D01*
X169639928Y-116643489D01*
X169605506Y-116514308D01*
X169573270Y-116391790D01*
X169545043Y-116282741D01*
X169522651Y-116193970D01*
X169507917Y-116132284D01*
X169502667Y-116104567D01*
X169512308Y-116087593D01*
X169546212Y-116077951D01*
X169611853Y-116074064D01*
X169648461Y-116073767D01*
X169794256Y-116073767D01*
X169860037Y-116354225D01*
X169885647Y-116464319D01*
X169908817Y-116565568D01*
X169927233Y-116647752D01*
X169938581Y-116700649D01*
X169939613Y-116705851D01*
X169947361Y-116738773D01*
X169955707Y-116753148D01*
X169966121Y-116745283D01*
X169980078Y-116711484D01*
X169999051Y-116648060D01*
X170024512Y-116551316D01*
X170057935Y-116417561D01*
X170063330Y-116395686D01*
X170143074Y-116072021D01*
X170292611Y-116078186D01*
G37*
X170292611Y-116078186D02*
X170442149Y-116084350D01*
X170532124Y-116420053D01*
X170562680Y-116532814D01*
X170589764Y-116630420D01*
X170611388Y-116705892D01*
X170625565Y-116752254D01*
X170629976Y-116763632D01*
X170637073Y-116747234D01*
X170650934Y-116696789D01*
X170669689Y-116619691D01*
X170691469Y-116523338D01*
X170696109Y-116502013D01*
X170720037Y-116392523D01*
X170742730Y-116290837D01*
X170761700Y-116207961D01*
X170774462Y-116154902D01*
X170774915Y-116153142D01*
X170795465Y-116073767D01*
X170942816Y-116073767D01*
X171022246Y-116075475D01*
X171067669Y-116081847D01*
X171087317Y-116094754D01*
X171090167Y-116107241D01*
X171084805Y-116135902D01*
X171069942Y-116198350D01*
X171047415Y-116287747D01*
X171019058Y-116397260D01*
X170986709Y-116520053D01*
X170952202Y-116649289D01*
X170917373Y-116778134D01*
X170884058Y-116899752D01*
X170854092Y-117007308D01*
X170829312Y-117093966D01*
X170811554Y-117152890D01*
X170802906Y-117176879D01*
X170777533Y-117186020D01*
X170721426Y-117192688D01*
X170646167Y-117195570D01*
X170637448Y-117195600D01*
X170483560Y-117195600D01*
X170391526Y-116853976D01*
X170299491Y-116512353D01*
X170273098Y-116605268D01*
X170256901Y-116663143D01*
X170232998Y-116749613D01*
X170204767Y-116852417D01*
X170178963Y-116946892D01*
X170111220Y-117195600D01*
X169956359Y-117195600D01*
X169879528Y-117193268D01*
X169820628Y-117187117D01*
X169791174Y-117178417D01*
X169790179Y-117177285D01*
X169780960Y-117151080D01*
X169762979Y-117090695D01*
X169738061Y-117002936D01*
X169708030Y-116894611D01*
X169674711Y-116772526D01*
X169639928Y-116643489D01*
X169605506Y-116514308D01*
X169573270Y-116391790D01*
X169545043Y-116282741D01*
X169522651Y-116193970D01*
X169507917Y-116132284D01*
X169502667Y-116104567D01*
X169512308Y-116087593D01*
X169546212Y-116077951D01*
X169611853Y-116074064D01*
X169648461Y-116073767D01*
X169794256Y-116073767D01*
X169860037Y-116354225D01*
X169885647Y-116464319D01*
X169908817Y-116565568D01*
X169927233Y-116647752D01*
X169938581Y-116700649D01*
X169939613Y-116705851D01*
X169947361Y-116738773D01*
X169955707Y-116753148D01*
X169966121Y-116745283D01*
X169980078Y-116711484D01*
X169999051Y-116648060D01*
X170024512Y-116551316D01*
X170057935Y-116417561D01*
X170063330Y-116395686D01*
X170143074Y-116072021D01*
X170292611Y-116078186D01*
G36*
X188546638Y-110665684D02*
G01*
X188815098Y-110981773D01*
X189047006Y-111316220D01*
X189241802Y-111666553D01*
X189398924Y-112030302D01*
X189517812Y-112404994D01*
X189597904Y-112788159D01*
X189638640Y-113177324D01*
X189639458Y-113570019D01*
X189599798Y-113963772D01*
X189519097Y-114356112D01*
X189442868Y-114613722D01*
X189297276Y-114985506D01*
X189114308Y-115341970D01*
X188896871Y-115679740D01*
X188647874Y-115995443D01*
X188370226Y-116285703D01*
X188066837Y-116547147D01*
X187740614Y-116776399D01*
X187424511Y-116955129D01*
X187238272Y-117048894D01*
X187152817Y-116866538D01*
X187116765Y-116787500D01*
X187089807Y-116724311D01*
X187075531Y-116685620D01*
X187074473Y-116677817D01*
X187095524Y-116665894D01*
X187144379Y-116640400D01*
X187210932Y-116606601D01*
X187218511Y-116602797D01*
X187552497Y-116412737D01*
X187862960Y-116190500D01*
X188147647Y-115939077D01*
X188404304Y-115661456D01*
X188630681Y-115360624D01*
X188824523Y-115039571D01*
X188983580Y-114701285D01*
X189105598Y-114348755D01*
X189187373Y-113990571D01*
X189215085Y-113771906D01*
X189229252Y-113529751D01*
X189229857Y-113279791D01*
X189216885Y-113037713D01*
X189190320Y-112819203D01*
X189188531Y-112808570D01*
X189103093Y-112432959D01*
X188978119Y-112071173D01*
X188814856Y-111725684D01*
X188614552Y-111398963D01*
X188378452Y-111093481D01*
X188254274Y-110956688D01*
X188193757Y-110892169D01*
X188158191Y-110844564D01*
X188148558Y-110804561D01*
X188165836Y-110762847D01*
X188211006Y-110710109D01*
X188285048Y-110637035D01*
X188288237Y-110633934D01*
X188407929Y-110517517D01*
X188546638Y-110665684D01*
G37*
X188546638Y-110665684D02*
X188815098Y-110981773D01*
X189047006Y-111316220D01*
X189241802Y-111666553D01*
X189398924Y-112030302D01*
X189517812Y-112404994D01*
X189597904Y-112788159D01*
X189638640Y-113177324D01*
X189639458Y-113570019D01*
X189599798Y-113963772D01*
X189519097Y-114356112D01*
X189442868Y-114613722D01*
X189297276Y-114985506D01*
X189114308Y-115341970D01*
X188896871Y-115679740D01*
X188647874Y-115995443D01*
X188370226Y-116285703D01*
X188066837Y-116547147D01*
X187740614Y-116776399D01*
X187424511Y-116955129D01*
X187238272Y-117048894D01*
X187152817Y-116866538D01*
X187116765Y-116787500D01*
X187089807Y-116724311D01*
X187075531Y-116685620D01*
X187074473Y-116677817D01*
X187095524Y-116665894D01*
X187144379Y-116640400D01*
X187210932Y-116606601D01*
X187218511Y-116602797D01*
X187552497Y-116412737D01*
X187862960Y-116190500D01*
X188147647Y-115939077D01*
X188404304Y-115661456D01*
X188630681Y-115360624D01*
X188824523Y-115039571D01*
X188983580Y-114701285D01*
X189105598Y-114348755D01*
X189187373Y-113990571D01*
X189215085Y-113771906D01*
X189229252Y-113529751D01*
X189229857Y-113279791D01*
X189216885Y-113037713D01*
X189190320Y-112819203D01*
X189188531Y-112808570D01*
X189103093Y-112432959D01*
X188978119Y-112071173D01*
X188814856Y-111725684D01*
X188614552Y-111398963D01*
X188378452Y-111093481D01*
X188254274Y-110956688D01*
X188193757Y-110892169D01*
X188158191Y-110844564D01*
X188148558Y-110804561D01*
X188165836Y-110762847D01*
X188211006Y-110710109D01*
X188285048Y-110637035D01*
X188288237Y-110633934D01*
X188407929Y-110517517D01*
X188546638Y-110665684D01*
G36*
X165367371Y-114609804D02*
G01*
X165506167Y-114661277D01*
X165619013Y-114744060D01*
X165703180Y-114855694D01*
X165755937Y-114993719D01*
X165772597Y-115103039D01*
X165769377Y-115276345D01*
X165733375Y-115424412D01*
X165665046Y-115546275D01*
X165564849Y-115640967D01*
X165499949Y-115679324D01*
X165431916Y-115709359D01*
X165367817Y-115726265D01*
X165290725Y-115733331D01*
X165217553Y-115734171D01*
X165124063Y-115729985D01*
X165035777Y-115719807D01*
X164970223Y-115705735D01*
X164964861Y-115703936D01*
X164870407Y-115652224D01*
X164781115Y-115571844D01*
X164709839Y-115475760D01*
X164682134Y-115418768D01*
X164655587Y-115312196D01*
X164646005Y-115184319D01*
X164951380Y-115184319D01*
X164968022Y-115299297D01*
X164986785Y-115355930D01*
X165038236Y-115437862D01*
X165110625Y-115492941D01*
X165194323Y-115518288D01*
X165279702Y-115511028D01*
X165357133Y-115468283D01*
X165358564Y-115467019D01*
X165418238Y-115385843D01*
X165451944Y-115272532D01*
X165459834Y-115164998D01*
X165446011Y-115034766D01*
X165405594Y-114934055D01*
X165340163Y-114864922D01*
X165251295Y-114829426D01*
X165198900Y-114824934D01*
X165114874Y-114844103D01*
X165045237Y-114896819D01*
X164992860Y-114975888D01*
X164960616Y-115074118D01*
X164951380Y-115184319D01*
X164646005Y-115184319D01*
X164645491Y-115177471D01*
X164645450Y-115162958D01*
X164663558Y-114999097D01*
X164715058Y-114859346D01*
X164797464Y-114746238D01*
X164908292Y-114662306D01*
X165045058Y-114610082D01*
X165205277Y-114592100D01*
X165205356Y-114592100D01*
X165367371Y-114609804D01*
G37*
X165367371Y-114609804D02*
X165506167Y-114661277D01*
X165619013Y-114744060D01*
X165703180Y-114855694D01*
X165755937Y-114993719D01*
X165772597Y-115103039D01*
X165769377Y-115276345D01*
X165733375Y-115424412D01*
X165665046Y-115546275D01*
X165564849Y-115640967D01*
X165499949Y-115679324D01*
X165431916Y-115709359D01*
X165367817Y-115726265D01*
X165290725Y-115733331D01*
X165217553Y-115734171D01*
X165124063Y-115729985D01*
X165035777Y-115719807D01*
X164970223Y-115705735D01*
X164964861Y-115703936D01*
X164870407Y-115652224D01*
X164781115Y-115571844D01*
X164709839Y-115475760D01*
X164682134Y-115418768D01*
X164655587Y-115312196D01*
X164646005Y-115184319D01*
X164951380Y-115184319D01*
X164968022Y-115299297D01*
X164986785Y-115355930D01*
X165038236Y-115437862D01*
X165110625Y-115492941D01*
X165194323Y-115518288D01*
X165279702Y-115511028D01*
X165357133Y-115468283D01*
X165358564Y-115467019D01*
X165418238Y-115385843D01*
X165451944Y-115272532D01*
X165459834Y-115164998D01*
X165446011Y-115034766D01*
X165405594Y-114934055D01*
X165340163Y-114864922D01*
X165251295Y-114829426D01*
X165198900Y-114824934D01*
X165114874Y-114844103D01*
X165045237Y-114896819D01*
X164992860Y-114975888D01*
X164960616Y-115074118D01*
X164951380Y-115184319D01*
X164646005Y-115184319D01*
X164645491Y-115177471D01*
X164645450Y-115162958D01*
X164663558Y-114999097D01*
X164715058Y-114859346D01*
X164797464Y-114746238D01*
X164908292Y-114662306D01*
X165045058Y-114610082D01*
X165205277Y-114592100D01*
X165205356Y-114592100D01*
X165367371Y-114609804D01*
G36*
X168342143Y-115014889D02*
G01*
X168344788Y-115155045D01*
X168347701Y-115259187D01*
X168351657Y-115333630D01*
X168357429Y-115384690D01*
X168365793Y-115418683D01*
X168377522Y-115441924D01*
X168393390Y-115460729D01*
X168397296Y-115464681D01*
X168459970Y-115502486D01*
X168537301Y-115515866D01*
X168613540Y-115504922D01*
X168672942Y-115469755D01*
X168679037Y-115462880D01*
X168693291Y-115441842D01*
X168703768Y-115414838D01*
X168711039Y-115375522D01*
X168715676Y-115317551D01*
X168718249Y-115234581D01*
X168719328Y-115120267D01*
X168719500Y-115013089D01*
X168719500Y-114613267D01*
X169040178Y-114613267D01*
X169033297Y-115031309D01*
X169029520Y-115197612D01*
X169023245Y-115327584D01*
X169012853Y-115427215D01*
X168996724Y-115502498D01*
X168973239Y-115559426D01*
X168940777Y-115603990D01*
X168897719Y-115642182D01*
X168861247Y-115667778D01*
X168817152Y-115694035D01*
X168772879Y-115711127D01*
X168717048Y-115721433D01*
X168638277Y-115727332D01*
X168562930Y-115730126D01*
X168455585Y-115731751D01*
X168378953Y-115728138D01*
X168321600Y-115717998D01*
X168272090Y-115700043D01*
X168264417Y-115696493D01*
X168196970Y-115660379D01*
X168144506Y-115619840D01*
X168105201Y-115569293D01*
X168077232Y-115503155D01*
X168058774Y-115415842D01*
X168048004Y-115301771D01*
X168043097Y-115155357D01*
X168042167Y-115016113D01*
X168042167Y-114613267D01*
X168335202Y-114613267D01*
X168342143Y-115014889D01*
G37*
X168342143Y-115014889D02*
X168344788Y-115155045D01*
X168347701Y-115259187D01*
X168351657Y-115333630D01*
X168357429Y-115384690D01*
X168365793Y-115418683D01*
X168377522Y-115441924D01*
X168393390Y-115460729D01*
X168397296Y-115464681D01*
X168459970Y-115502486D01*
X168537301Y-115515866D01*
X168613540Y-115504922D01*
X168672942Y-115469755D01*
X168679037Y-115462880D01*
X168693291Y-115441842D01*
X168703768Y-115414838D01*
X168711039Y-115375522D01*
X168715676Y-115317551D01*
X168718249Y-115234581D01*
X168719328Y-115120267D01*
X168719500Y-115013089D01*
X168719500Y-114613267D01*
X169040178Y-114613267D01*
X169033297Y-115031309D01*
X169029520Y-115197612D01*
X169023245Y-115327584D01*
X169012853Y-115427215D01*
X168996724Y-115502498D01*
X168973239Y-115559426D01*
X168940777Y-115603990D01*
X168897719Y-115642182D01*
X168861247Y-115667778D01*
X168817152Y-115694035D01*
X168772879Y-115711127D01*
X168717048Y-115721433D01*
X168638277Y-115727332D01*
X168562930Y-115730126D01*
X168455585Y-115731751D01*
X168378953Y-115728138D01*
X168321600Y-115717998D01*
X168272090Y-115700043D01*
X168264417Y-115696493D01*
X168196970Y-115660379D01*
X168144506Y-115619840D01*
X168105201Y-115569293D01*
X168077232Y-115503155D01*
X168058774Y-115415842D01*
X168048004Y-115301771D01*
X168043097Y-115155357D01*
X168042167Y-115016113D01*
X168042167Y-114613267D01*
X168335202Y-114613267D01*
X168342143Y-115014889D01*
G36*
X166253584Y-115211479D02*
G01*
X166631192Y-114613267D01*
X166983834Y-114613267D01*
X166983834Y-115713934D01*
X166709690Y-115713934D01*
X166703887Y-115365736D01*
X166698084Y-115017539D01*
X166486417Y-115364930D01*
X166274750Y-115712322D01*
X165967834Y-115713934D01*
X165967834Y-114613267D01*
X166241838Y-114613267D01*
X166253584Y-115211479D01*
G37*
X166253584Y-115211479D02*
X166631192Y-114613267D01*
X166983834Y-114613267D01*
X166983834Y-115713934D01*
X166709690Y-115713934D01*
X166703887Y-115365736D01*
X166698084Y-115017539D01*
X166486417Y-115364930D01*
X166274750Y-115712322D01*
X165967834Y-115713934D01*
X165967834Y-114613267D01*
X166241838Y-114613267D01*
X166253584Y-115211479D01*
G36*
X167851667Y-114824934D02*
G01*
X167661167Y-114824934D01*
X167661167Y-115502267D01*
X167851667Y-115502267D01*
X167851667Y-115713934D01*
X167195500Y-115713934D01*
X167195500Y-115502267D01*
X167364834Y-115502267D01*
X167364834Y-114824934D01*
X167195500Y-114824934D01*
X167195500Y-114613267D01*
X167851667Y-114613267D01*
X167851667Y-114824934D01*
G37*
X167851667Y-114824934D02*
X167661167Y-114824934D01*
X167661167Y-115502267D01*
X167851667Y-115502267D01*
X167851667Y-115713934D01*
X167195500Y-115713934D01*
X167195500Y-115502267D01*
X167364834Y-115502267D01*
X167364834Y-114824934D01*
X167195500Y-114824934D01*
X167195500Y-114613267D01*
X167851667Y-114613267D01*
X167851667Y-114824934D01*
G36*
X170264667Y-115713934D02*
G01*
X169952459Y-115713004D01*
X169787323Y-115710003D01*
X169663366Y-115702063D01*
X169579717Y-115689116D01*
X169558282Y-115682857D01*
X169435705Y-115617809D01*
X169331913Y-115520363D01*
X169269928Y-115426492D01*
X169239624Y-115357475D01*
X169223265Y-115288082D01*
X169217249Y-115200487D01*
X169217245Y-115199958D01*
X169528941Y-115199958D01*
X169537672Y-115284281D01*
X169555454Y-115341463D01*
X169587017Y-115386474D01*
X169588293Y-115387865D01*
X169683199Y-115460907D01*
X169798926Y-115497181D01*
X169857209Y-115501438D01*
X169947167Y-115502267D01*
X169947167Y-114846100D01*
X169846625Y-114846133D01*
X169724198Y-114861861D01*
X169630642Y-114908395D01*
X169566712Y-114984897D01*
X169533162Y-115090526D01*
X169528941Y-115199958D01*
X169217245Y-115199958D01*
X169216920Y-115164165D01*
X169219540Y-115072245D01*
X169230087Y-115004676D01*
X169252594Y-114943655D01*
X169278014Y-114894604D01*
X169367301Y-114776129D01*
X169486843Y-114686383D01*
X169555584Y-114653697D01*
X169598813Y-114644077D01*
X169675086Y-114634706D01*
X169775119Y-114626436D01*
X169889625Y-114620120D01*
X169941875Y-114618190D01*
X170264667Y-114608119D01*
X170264667Y-115713934D01*
G37*
X170264667Y-115713934D02*
X169952459Y-115713004D01*
X169787323Y-115710003D01*
X169663366Y-115702063D01*
X169579717Y-115689116D01*
X169558282Y-115682857D01*
X169435705Y-115617809D01*
X169331913Y-115520363D01*
X169269928Y-115426492D01*
X169239624Y-115357475D01*
X169223265Y-115288082D01*
X169217249Y-115200487D01*
X169217245Y-115199958D01*
X169528941Y-115199958D01*
X169537672Y-115284281D01*
X169555454Y-115341463D01*
X169587017Y-115386474D01*
X169588293Y-115387865D01*
X169683199Y-115460907D01*
X169798926Y-115497181D01*
X169857209Y-115501438D01*
X169947167Y-115502267D01*
X169947167Y-114846100D01*
X169846625Y-114846133D01*
X169724198Y-114861861D01*
X169630642Y-114908395D01*
X169566712Y-114984897D01*
X169533162Y-115090526D01*
X169528941Y-115199958D01*
X169217245Y-115199958D01*
X169216920Y-115164165D01*
X169219540Y-115072245D01*
X169230087Y-115004676D01*
X169252594Y-114943655D01*
X169278014Y-114894604D01*
X169367301Y-114776129D01*
X169486843Y-114686383D01*
X169555584Y-114653697D01*
X169598813Y-114644077D01*
X169675086Y-114634706D01*
X169775119Y-114626436D01*
X169889625Y-114620120D01*
X169941875Y-114618190D01*
X170264667Y-114608119D01*
X170264667Y-115713934D01*
G36*
X171428834Y-115713934D02*
G01*
X171132500Y-115713934D01*
X171132500Y-115332934D01*
X171071128Y-115332934D01*
X171040489Y-115337366D01*
X171009773Y-115354532D01*
X170972792Y-115390232D01*
X170923357Y-115450270D01*
X170867917Y-115523434D01*
X170726077Y-115713934D01*
X170548289Y-115713934D01*
X170467511Y-115712594D01*
X170405915Y-115709023D01*
X170373279Y-115703890D01*
X170370500Y-115701744D01*
X170382832Y-115681431D01*
X170416551Y-115634583D01*
X170466738Y-115567837D01*
X170528477Y-115487827D01*
X170539127Y-115474202D01*
X170707753Y-115258850D01*
X170644541Y-115209363D01*
X170565044Y-115122153D01*
X170521429Y-115012793D01*
X170516339Y-114965797D01*
X170815000Y-114965797D01*
X170833119Y-115032337D01*
X170886427Y-115076834D01*
X170973353Y-115098239D01*
X171016084Y-115100100D01*
X171132500Y-115100100D01*
X171132500Y-114846100D01*
X171012459Y-114846100D01*
X170911913Y-114856173D01*
X170847392Y-114886938D01*
X170817539Y-114939219D01*
X170815000Y-114965797D01*
X170516339Y-114965797D01*
X170512120Y-114926859D01*
X170526043Y-114824415D01*
X170573817Y-114741605D01*
X170659271Y-114672070D01*
X170669046Y-114666184D01*
X170701584Y-114649888D01*
X170740402Y-114637962D01*
X170792919Y-114629521D01*
X170866556Y-114623684D01*
X170968736Y-114619569D01*
X171084875Y-114616737D01*
X171428834Y-114609625D01*
X171428834Y-115713934D01*
G37*
X171428834Y-115713934D02*
X171132500Y-115713934D01*
X171132500Y-115332934D01*
X171071128Y-115332934D01*
X171040489Y-115337366D01*
X171009773Y-115354532D01*
X170972792Y-115390232D01*
X170923357Y-115450270D01*
X170867917Y-115523434D01*
X170726077Y-115713934D01*
X170548289Y-115713934D01*
X170467511Y-115712594D01*
X170405915Y-115709023D01*
X170373279Y-115703890D01*
X170370500Y-115701744D01*
X170382832Y-115681431D01*
X170416551Y-115634583D01*
X170466738Y-115567837D01*
X170528477Y-115487827D01*
X170539127Y-115474202D01*
X170707753Y-115258850D01*
X170644541Y-115209363D01*
X170565044Y-115122153D01*
X170521429Y-115012793D01*
X170516339Y-114965797D01*
X170815000Y-114965797D01*
X170833119Y-115032337D01*
X170886427Y-115076834D01*
X170973353Y-115098239D01*
X171016084Y-115100100D01*
X171132500Y-115100100D01*
X171132500Y-114846100D01*
X171012459Y-114846100D01*
X170911913Y-114856173D01*
X170847392Y-114886938D01*
X170817539Y-114939219D01*
X170815000Y-114965797D01*
X170516339Y-114965797D01*
X170512120Y-114926859D01*
X170526043Y-114824415D01*
X170573817Y-114741605D01*
X170659271Y-114672070D01*
X170669046Y-114666184D01*
X170701584Y-114649888D01*
X170740402Y-114637962D01*
X170792919Y-114629521D01*
X170866556Y-114623684D01*
X170968736Y-114619569D01*
X171084875Y-114616737D01*
X171428834Y-114609625D01*
X171428834Y-115713934D01*
G36*
X172307250Y-114613723D02*
G01*
X172503042Y-115147959D01*
X172554882Y-115289977D01*
X172601568Y-115418967D01*
X172641204Y-115529599D01*
X172671892Y-115616541D01*
X172691734Y-115674463D01*
X172698833Y-115698035D01*
X172698834Y-115698064D01*
X172679468Y-115705926D01*
X172628549Y-115711602D01*
X172556845Y-115713926D01*
X172552368Y-115713934D01*
X172405902Y-115713934D01*
X172370750Y-115608100D01*
X172335598Y-115502267D01*
X171944266Y-115502267D01*
X171913107Y-115602809D01*
X171881947Y-115703350D01*
X171720636Y-115709501D01*
X171559325Y-115715651D01*
X171660160Y-115444917D01*
X171709215Y-115312886D01*
X171726176Y-115267080D01*
X172031817Y-115267080D01*
X172043685Y-115285106D01*
X172074289Y-115290655D01*
X172125000Y-115290656D01*
X172138755Y-115290600D01*
X172210311Y-115287721D01*
X172244940Y-115278276D01*
X172249112Y-115264142D01*
X172237988Y-115231959D01*
X172217833Y-115172008D01*
X172192830Y-115096737D01*
X172190600Y-115089985D01*
X172141839Y-114942287D01*
X172094946Y-115068819D01*
X172058817Y-115165867D01*
X172037318Y-115229644D01*
X172031817Y-115267080D01*
X171726176Y-115267080D01*
X171765421Y-115161100D01*
X171821382Y-115009562D01*
X171864023Y-114893725D01*
X171967052Y-114613267D01*
X172307250Y-114613723D01*
G37*
X172307250Y-114613723D02*
X172503042Y-115147959D01*
X172554882Y-115289977D01*
X172601568Y-115418967D01*
X172641204Y-115529599D01*
X172671892Y-115616541D01*
X172691734Y-115674463D01*
X172698833Y-115698035D01*
X172698834Y-115698064D01*
X172679468Y-115705926D01*
X172628549Y-115711602D01*
X172556845Y-115713926D01*
X172552368Y-115713934D01*
X172405902Y-115713934D01*
X172370750Y-115608100D01*
X172335598Y-115502267D01*
X171944266Y-115502267D01*
X171913107Y-115602809D01*
X171881947Y-115703350D01*
X171720636Y-115709501D01*
X171559325Y-115715651D01*
X171660160Y-115444917D01*
X171709215Y-115312886D01*
X171726176Y-115267080D01*
X172031817Y-115267080D01*
X172043685Y-115285106D01*
X172074289Y-115290655D01*
X172125000Y-115290656D01*
X172138755Y-115290600D01*
X172210311Y-115287721D01*
X172244940Y-115278276D01*
X172249112Y-115264142D01*
X172237988Y-115231959D01*
X172217833Y-115172008D01*
X172192830Y-115096737D01*
X172190600Y-115089985D01*
X172141839Y-114942287D01*
X172094946Y-115068819D01*
X172058817Y-115165867D01*
X172037318Y-115229644D01*
X172031817Y-115267080D01*
X171726176Y-115267080D01*
X171765421Y-115161100D01*
X171821382Y-115009562D01*
X171864023Y-114893725D01*
X171967052Y-114613267D01*
X172307250Y-114613723D01*
G36*
X185949167Y-112771767D02*
G01*
X187240334Y-112771767D01*
X187240334Y-114020600D01*
X185949167Y-114020600D01*
X185949167Y-115290600D01*
X184721500Y-115290600D01*
X184721500Y-114020600D01*
X183451500Y-114020600D01*
X183451500Y-112771767D01*
X184721500Y-112771767D01*
X184721500Y-111501767D01*
X185949167Y-111501767D01*
X185949167Y-112771767D01*
G37*
X185949167Y-112771767D02*
X187240334Y-112771767D01*
X187240334Y-114020600D01*
X185949167Y-114020600D01*
X185949167Y-115290600D01*
X184721500Y-115290600D01*
X184721500Y-114020600D01*
X183451500Y-114020600D01*
X183451500Y-112771767D01*
X184721500Y-112771767D01*
X184721500Y-111501767D01*
X185949167Y-111501767D01*
X185949167Y-112771767D01*
G36*
X173655392Y-109538073D02*
G01*
X173848983Y-109547396D01*
X173998056Y-109562082D01*
X174095862Y-109575398D01*
X174176834Y-109587217D01*
X174232617Y-109596265D01*
X174254856Y-109601266D01*
X174254884Y-109601294D01*
X174252979Y-109623017D01*
X174244399Y-109679602D01*
X174230266Y-109764306D01*
X174211703Y-109870381D01*
X174192278Y-109977767D01*
X174167380Y-110111171D01*
X174147872Y-110208355D01*
X174132121Y-110274848D01*
X174118496Y-110316176D01*
X174105363Y-110337866D01*
X174091091Y-110345447D01*
X174083616Y-110345713D01*
X174046635Y-110342366D01*
X173978152Y-110335228D01*
X173888711Y-110325422D01*
X173810084Y-110316520D01*
X173597528Y-110301435D01*
X173362495Y-110300612D01*
X173122105Y-110313354D01*
X172893482Y-110338962D01*
X172777161Y-110358627D01*
X172405513Y-110450905D01*
X172056059Y-110579173D01*
X171728198Y-110743747D01*
X171421325Y-110944947D01*
X171134836Y-111183092D01*
X171036480Y-111278024D01*
X170788129Y-111552690D01*
X170580494Y-111838195D01*
X170413077Y-112135718D01*
X170285378Y-112446437D01*
X170196897Y-112771532D01*
X170147136Y-113112180D01*
X170134877Y-113405728D01*
X170138401Y-113542722D01*
X170147635Y-113684901D01*
X170161431Y-113822151D01*
X170178641Y-113944358D01*
X170198117Y-114041408D01*
X170212445Y-114088862D01*
X170208994Y-114102785D01*
X170185064Y-114118419D01*
X170135976Y-114137455D01*
X170057055Y-114161584D01*
X169943622Y-114192496D01*
X169879425Y-114209237D01*
X169762245Y-114239576D01*
X169657569Y-114266801D01*
X169573077Y-114288904D01*
X169516449Y-114303877D01*
X169497375Y-114309079D01*
X169470869Y-114308114D01*
X169461011Y-114277956D01*
X169460334Y-114256201D01*
X169455383Y-114206018D01*
X169442237Y-114129320D01*
X169423457Y-114040537D01*
X169417822Y-114016649D01*
X169381425Y-113812746D01*
X169362099Y-113580106D01*
X169359673Y-113328655D01*
X169373974Y-113068318D01*
X169404830Y-112809020D01*
X169442313Y-112604377D01*
X169544373Y-112229449D01*
X169684300Y-111870449D01*
X169859999Y-111529332D01*
X170069376Y-111208054D01*
X170310335Y-110908571D01*
X170580782Y-110632838D01*
X170878622Y-110382811D01*
X171201761Y-110160447D01*
X171548104Y-109967701D01*
X171915556Y-109806528D01*
X172302023Y-109678885D01*
X172666571Y-109593875D01*
X172827730Y-109570000D01*
X173019008Y-109552200D01*
X173228589Y-109540757D01*
X173444656Y-109535954D01*
X173655392Y-109538073D01*
G37*
X173655392Y-109538073D02*
X173848983Y-109547396D01*
X173998056Y-109562082D01*
X174095862Y-109575398D01*
X174176834Y-109587217D01*
X174232617Y-109596265D01*
X174254856Y-109601266D01*
X174254884Y-109601294D01*
X174252979Y-109623017D01*
X174244399Y-109679602D01*
X174230266Y-109764306D01*
X174211703Y-109870381D01*
X174192278Y-109977767D01*
X174167380Y-110111171D01*
X174147872Y-110208355D01*
X174132121Y-110274848D01*
X174118496Y-110316176D01*
X174105363Y-110337866D01*
X174091091Y-110345447D01*
X174083616Y-110345713D01*
X174046635Y-110342366D01*
X173978152Y-110335228D01*
X173888711Y-110325422D01*
X173810084Y-110316520D01*
X173597528Y-110301435D01*
X173362495Y-110300612D01*
X173122105Y-110313354D01*
X172893482Y-110338962D01*
X172777161Y-110358627D01*
X172405513Y-110450905D01*
X172056059Y-110579173D01*
X171728198Y-110743747D01*
X171421325Y-110944947D01*
X171134836Y-111183092D01*
X171036480Y-111278024D01*
X170788129Y-111552690D01*
X170580494Y-111838195D01*
X170413077Y-112135718D01*
X170285378Y-112446437D01*
X170196897Y-112771532D01*
X170147136Y-113112180D01*
X170134877Y-113405728D01*
X170138401Y-113542722D01*
X170147635Y-113684901D01*
X170161431Y-113822151D01*
X170178641Y-113944358D01*
X170198117Y-114041408D01*
X170212445Y-114088862D01*
X170208994Y-114102785D01*
X170185064Y-114118419D01*
X170135976Y-114137455D01*
X170057055Y-114161584D01*
X169943622Y-114192496D01*
X169879425Y-114209237D01*
X169762245Y-114239576D01*
X169657569Y-114266801D01*
X169573077Y-114288904D01*
X169516449Y-114303877D01*
X169497375Y-114309079D01*
X169470869Y-114308114D01*
X169461011Y-114277956D01*
X169460334Y-114256201D01*
X169455383Y-114206018D01*
X169442237Y-114129320D01*
X169423457Y-114040537D01*
X169417822Y-114016649D01*
X169381425Y-113812746D01*
X169362099Y-113580106D01*
X169359673Y-113328655D01*
X169373974Y-113068318D01*
X169404830Y-112809020D01*
X169442313Y-112604377D01*
X169544373Y-112229449D01*
X169684300Y-111870449D01*
X169859999Y-111529332D01*
X170069376Y-111208054D01*
X170310335Y-110908571D01*
X170580782Y-110632838D01*
X170878622Y-110382811D01*
X171201761Y-110160447D01*
X171548104Y-109967701D01*
X171915556Y-109806528D01*
X172302023Y-109678885D01*
X172666571Y-109593875D01*
X172827730Y-109570000D01*
X173019008Y-109552200D01*
X173228589Y-109540757D01*
X173444656Y-109535954D01*
X173655392Y-109538073D01*
G36*
X169251130Y-109314982D02*
G01*
X169425611Y-109488281D01*
X169257764Y-109670613D01*
X169075479Y-109874048D01*
X168918108Y-110062484D01*
X168777178Y-110246953D01*
X168644222Y-110438488D01*
X168524771Y-110625393D01*
X168303740Y-111022722D01*
X168118164Y-111440804D01*
X167969054Y-111875783D01*
X167857417Y-112323805D01*
X167784264Y-112781013D01*
X167750603Y-113243551D01*
X167751450Y-113579552D01*
X167762888Y-113911087D01*
X167637944Y-113923510D01*
X167540035Y-113933244D01*
X167433875Y-113943796D01*
X167388473Y-113948308D01*
X167263946Y-113960683D01*
X167248550Y-113663342D01*
X167244832Y-113228922D01*
X167277410Y-112777861D01*
X167345937Y-112314710D01*
X167356096Y-112260932D01*
X167466614Y-111796727D01*
X167616232Y-111341889D01*
X167802922Y-110900338D01*
X168024657Y-110475995D01*
X168279409Y-110072779D01*
X168565149Y-109694609D01*
X168846745Y-109379316D01*
X169076649Y-109141684D01*
X169251130Y-109314982D01*
G37*
X169251130Y-109314982D02*
X169425611Y-109488281D01*
X169257764Y-109670613D01*
X169075479Y-109874048D01*
X168918108Y-110062484D01*
X168777178Y-110246953D01*
X168644222Y-110438488D01*
X168524771Y-110625393D01*
X168303740Y-111022722D01*
X168118164Y-111440804D01*
X167969054Y-111875783D01*
X167857417Y-112323805D01*
X167784264Y-112781013D01*
X167750603Y-113243551D01*
X167751450Y-113579552D01*
X167762888Y-113911087D01*
X167637944Y-113923510D01*
X167540035Y-113933244D01*
X167433875Y-113943796D01*
X167388473Y-113948308D01*
X167263946Y-113960683D01*
X167248550Y-113663342D01*
X167244832Y-113228922D01*
X167277410Y-112777861D01*
X167345937Y-112314710D01*
X167356096Y-112260932D01*
X167466614Y-111796727D01*
X167616232Y-111341889D01*
X167802922Y-110900338D01*
X168024657Y-110475995D01*
X168279409Y-110072779D01*
X168565149Y-109694609D01*
X168846745Y-109379316D01*
X169076649Y-109141684D01*
X169251130Y-109314982D01*
M02*
